<svg width="591" height="640" viewBox="0 0 591 640" fill="none" xmlns="http://www.w3.org/2000/svg">
<g opacity="0.1">
<path d="M440.485 470.34C427.904 470.34 417.67 480.505 417.67 493H419.604C419.604 481.566 428.973 472.261 440.485 472.261C451.996 472.261 461.365 481.566 461.365 493H463.299C463.299 480.505 453.065 470.34 440.485 470.34Z" fill="#7F7365"/>
<path d="M440.485 479.941C433.236 479.941 427.341 485.796 427.341 492.996H429.275C429.275 486.858 434.305 481.862 440.485 481.862C446.668 481.862 451.694 486.858 451.694 492.996H453.628C453.628 485.801 447.733 479.941 440.485 479.941Z" fill="#7F7365"/>
<path d="M503.582 460.735C500.109 446.358 486.956 436 472.002 436C459.71 436 448.607 442.781 443.022 453.694C441.878 455.933 441.017 458.299 440.427 460.735C422.541 460.766 408 475.226 408 493H409.934C409.934 476.271 423.641 462.656 440.485 462.656C457.328 462.656 471.035 476.271 471.035 493H472.969C472.969 476.271 486.676 462.656 503.52 462.656C520.363 462.656 534.07 476.271 534.07 493H536.004C536 475.231 521.463 460.77 503.582 460.735ZM444.743 454.567C449.995 444.296 460.442 437.921 472.002 437.921C485.931 437.921 498.201 447.473 501.612 460.797C498.964 460.951 496.396 461.418 493.956 462.167C491.228 452.518 482.174 445.609 472.007 445.609C464.119 445.609 456.893 449.584 452.679 456.237C451.508 458.087 450.639 460.079 450.053 462.167C447.613 461.418 445.054 460.955 442.41 460.801C442.955 458.642 443.727 456.549 444.743 454.567ZM458.978 466.494C456.791 464.982 454.409 463.731 451.881 462.788C452.417 460.841 453.22 458.977 454.312 457.254C458.166 451.161 464.78 447.526 472.002 447.526C481.349 447.526 489.662 453.901 492.124 462.788C489.586 463.736 487.204 464.991 485.013 466.503C484.143 460.136 478.647 455.206 472.002 455.206C467.362 455.206 463.152 457.563 460.748 461.511C459.817 463.039 459.218 464.736 458.978 466.494ZM472.002 485.193C470.259 478.258 466.253 472.204 460.806 467.855C460.877 465.965 461.418 464.123 462.403 462.511C464.452 459.14 468.041 457.131 472.002 457.131C478.044 457.131 482.977 461.907 483.194 467.86C477.747 472.208 473.741 478.258 472.002 485.193Z" fill="#7F7365"/>
<path d="M503.515 470.34C490.935 470.34 480.701 480.505 480.701 493H482.635C482.635 481.566 492.004 472.261 503.515 472.261C515.027 472.261 524.396 481.566 524.396 493H526.33C526.33 480.505 516.096 470.34 503.515 470.34Z" fill="#7F7365"/>
<path d="M503.515 479.941C496.267 479.941 490.372 485.796 490.372 492.996H492.306C492.306 486.858 497.336 481.862 503.515 481.862C509.695 481.862 514.725 486.858 514.725 492.996H516.659C516.659 485.801 510.764 479.941 503.515 479.941Z" fill="#7F7365"/>
</g>
<g opacity="0.1">
<path d="M358.485 240.34C345.904 240.34 335.67 250.505 335.67 263H337.604C337.604 251.566 346.973 242.261 358.485 242.261C369.996 242.261 379.365 251.566 379.365 263H381.299C381.299 250.505 371.065 240.34 358.485 240.34Z" fill="#7F7365"/>
<path d="M358.485 249.941C351.236 249.941 345.341 255.796 345.341 262.996H347.275C347.275 256.858 352.305 251.862 358.485 251.862C364.668 251.862 369.694 256.858 369.694 262.996H371.628C371.628 255.801 365.733 249.941 358.485 249.941Z" fill="#7F7365"/>
<path d="M421.582 230.735C418.109 216.358 404.956 206 390.002 206C377.71 206 366.607 212.781 361.022 223.694C359.878 225.933 359.017 228.299 358.427 230.735C340.541 230.766 326 245.226 326 263H327.934C327.934 246.271 341.641 232.656 358.485 232.656C375.328 232.656 389.035 246.271 389.035 263H390.969C390.969 246.271 404.676 232.656 421.52 232.656C438.363 232.656 452.07 246.271 452.07 263H454.004C454 245.231 439.463 230.77 421.582 230.735ZM362.743 224.567C367.995 214.296 378.442 207.921 390.002 207.921C403.931 207.921 416.201 217.473 419.612 230.797C416.964 230.951 414.396 231.418 411.956 232.167C409.228 222.518 400.174 215.609 390.007 215.609C382.119 215.609 374.893 219.584 370.679 226.237C369.508 228.087 368.639 230.079 368.053 232.167C365.613 231.418 363.054 230.955 360.41 230.801C360.955 228.642 361.727 226.549 362.743 224.567ZM376.978 236.494C374.791 234.982 372.409 233.731 369.881 232.788C370.417 230.841 371.22 228.977 372.312 227.254C376.166 221.161 382.78 217.526 390.002 217.526C399.349 217.526 407.662 223.901 410.124 232.788C407.586 233.736 405.204 234.991 403.013 236.503C402.143 230.136 396.647 225.206 390.002 225.206C385.362 225.206 381.152 227.563 378.748 231.511C377.817 233.039 377.218 234.736 376.978 236.494ZM390.002 255.193C388.259 248.258 384.253 242.204 378.806 237.855C378.877 235.965 379.418 234.123 380.403 232.511C382.452 229.14 386.041 227.131 390.002 227.131C396.044 227.131 400.977 231.907 401.194 237.86C395.747 242.208 391.741 248.258 390.002 255.193Z" fill="#7F7365"/>
<path d="M421.515 240.34C408.935 240.34 398.701 250.505 398.701 263H400.635C400.635 251.566 410.004 242.261 421.515 242.261C433.027 242.261 442.396 251.566 442.396 263H444.33C444.33 250.505 434.096 240.34 421.515 240.34Z" fill="#7F7365"/>
<path d="M421.515 249.941C414.267 249.941 408.372 255.796 408.372 262.996H410.306C410.306 256.858 415.336 251.862 421.515 251.862C427.695 251.862 432.725 256.858 432.725 262.996H434.659C434.659 255.801 428.764 249.941 421.515 249.941Z" fill="#7F7365"/>
</g>
<g opacity="0.1">
<path d="M495.485 127.34C482.904 127.34 472.67 137.505 472.67 150H474.604C474.604 138.566 483.973 129.261 495.485 129.261C506.996 129.261 516.365 138.566 516.365 150H518.299C518.299 137.505 508.065 127.34 495.485 127.34Z" fill="#7F7365"/>
<path d="M495.485 136.941C488.236 136.941 482.341 142.796 482.341 149.996H484.275C484.275 143.858 489.305 138.862 495.485 138.862C501.668 138.862 506.694 143.858 506.694 149.996H508.628C508.628 142.801 502.733 136.941 495.485 136.941Z" fill="#7F7365"/>
<path d="M558.582 117.735C555.109 103.358 541.956 93 527.002 93C514.71 93 503.607 99.7808 498.022 110.694C496.878 112.933 496.017 115.299 495.427 117.735C477.541 117.766 463 132.226 463 150H464.934C464.934 133.271 478.641 119.656 495.485 119.656C512.328 119.656 526.035 133.271 526.035 150H527.969C527.969 133.271 541.676 119.656 558.52 119.656C575.363 119.656 589.07 133.271 589.07 150H591.004C591 132.231 576.463 117.77 558.582 117.735ZM499.743 111.567C504.995 101.296 515.442 94.921 527.002 94.921C540.931 94.921 553.201 104.473 556.612 117.797C553.964 117.951 551.396 118.418 548.956 119.167C546.228 109.518 537.174 102.609 527.007 102.609C519.119 102.609 511.893 106.584 507.679 113.237C506.508 115.087 505.639 117.079 505.053 119.167C502.613 118.418 500.054 117.955 497.41 117.801C497.955 115.642 498.727 113.549 499.743 111.567ZM513.978 123.494C511.791 121.982 509.409 120.731 506.881 119.788C507.417 117.841 508.22 115.977 509.312 114.254C513.166 108.161 519.78 104.526 527.002 104.526C536.349 104.526 544.662 110.901 547.124 119.788C544.586 120.736 542.204 121.991 540.013 123.503C539.143 117.136 533.647 112.206 527.002 112.206C522.362 112.206 518.152 114.563 515.748 118.511C514.817 120.039 514.218 121.736 513.978 123.494ZM527.002 142.193C525.259 135.258 521.253 129.204 515.806 124.855C515.877 122.965 516.418 121.123 517.403 119.511C519.452 116.14 523.041 114.131 527.002 114.131C533.044 114.131 537.977 118.907 538.194 124.86C532.747 129.208 528.741 135.258 527.002 142.193Z" fill="#7F7365"/>
<path d="M558.515 127.34C545.935 127.34 535.701 137.505 535.701 150H537.635C537.635 138.566 547.004 129.261 558.515 129.261C570.027 129.261 579.396 138.566 579.396 150H581.33C581.33 137.505 571.096 127.34 558.515 127.34Z" fill="#7F7365"/>
<path d="M558.515 136.941C551.267 136.941 545.372 142.796 545.372 149.996H547.306C547.306 143.858 552.336 138.862 558.515 138.862C564.695 138.862 569.725 143.858 569.725 149.996H571.659C571.659 142.801 565.764 136.941 558.515 136.941Z" fill="#7F7365"/>
</g>
<g opacity="0.1">
<path d="M32.4846 168.34C19.9042 168.34 9.67041 178.505 9.67041 191H11.6045C11.6045 179.566 20.9733 170.261 32.4846 170.261C43.996 170.261 53.3647 179.566 53.3647 191H55.2988C55.2988 178.505 45.065 168.34 32.4846 168.34Z" fill="#7F7365"/>
<path d="M32.4846 177.941C25.2362 177.941 19.3408 183.796 19.3408 190.996H21.2749C21.2749 184.858 26.3053 179.862 32.4846 179.862C38.6684 179.862 43.6943 184.858 43.6943 190.996H45.6284C45.6284 183.801 39.733 177.941 32.4846 177.941Z" fill="#7F7365"/>
<path d="M95.5819 158.735C92.1086 144.358 78.9559 134 64.0022 134C51.7101 134 40.6069 140.781 35.022 151.694C33.8775 153.933 33.0169 156.299 32.427 158.735C14.5411 158.766 0 173.226 0 191H1.93408C1.93408 174.271 15.6412 160.656 32.4846 160.656C49.328 160.656 63.0352 174.271 63.0352 191H64.9693C64.9693 174.271 78.6764 160.656 95.5198 160.656C112.363 160.656 126.07 174.271 126.07 191H128.004C128 173.231 113.463 158.77 95.5819 158.735ZM36.7432 152.567C41.9954 142.296 52.4421 135.921 64.0022 135.921C77.9312 135.921 90.2011 145.473 93.6123 158.797C90.9641 158.951 88.3956 159.418 85.9559 160.167C83.2277 150.518 74.1739 143.609 64.0067 143.609C56.1195 143.609 48.8933 147.584 44.6791 154.237C43.508 156.087 42.6386 158.079 42.053 160.167C39.6132 159.418 37.0537 158.955 34.4098 158.801C34.9555 156.642 35.7273 154.549 36.7432 152.567ZM50.9782 164.494C48.7913 162.982 46.4091 161.731 43.8806 160.788C44.4174 158.841 45.2203 156.977 46.3116 155.254C50.1664 149.161 56.7805 145.526 64.0022 145.526C73.3488 145.526 81.6618 151.901 84.1238 160.788C81.5864 161.736 79.2043 162.991 77.0129 164.503C76.1435 158.136 70.6473 153.206 64.0022 153.206C59.3622 153.206 55.1525 155.563 52.7482 159.511C51.8166 161.039 51.2177 162.736 50.9782 164.494ZM64.0022 183.193C62.2589 176.258 58.2532 170.204 52.8058 165.855C52.8768 163.965 53.418 162.123 54.4028 160.511C56.4522 157.14 60.0409 155.131 64.0022 155.131C70.044 155.131 74.9768 159.907 75.1942 165.86C69.7468 170.208 65.7411 176.258 64.0022 183.193Z" fill="#7F7365"/>
<path d="M95.5154 168.34C82.935 168.34 72.7012 178.505 72.7012 191H74.6353C74.6353 179.566 84.004 170.261 95.5154 170.261C107.027 170.261 116.396 179.566 116.396 191H118.33C118.33 178.505 108.096 168.34 95.5154 168.34Z" fill="#7F7365"/>
<path d="M95.5154 177.941C88.267 177.941 82.3716 183.796 82.3716 190.996H84.3057C84.3057 184.858 89.3361 179.862 95.5154 179.862C101.695 179.862 106.725 184.858 106.725 190.996H108.659C108.659 183.801 102.764 177.941 95.5154 177.941Z" fill="#7F7365"/>
</g>
<g opacity="0.1">
<path d="M164.485 361.34C151.904 361.34 141.67 371.505 141.67 384H143.604C143.604 372.566 152.973 363.261 164.485 363.261C175.996 363.261 185.365 372.566 185.365 384H187.299C187.299 371.505 177.065 361.34 164.485 361.34Z" fill="#7F7365"/>
<path d="M164.485 370.941C157.236 370.941 151.341 376.796 151.341 383.996H153.275C153.275 377.858 158.305 372.862 164.485 372.862C170.668 372.862 175.694 377.858 175.694 383.996H177.628C177.628 376.801 171.733 370.941 164.485 370.941Z" fill="#7F7365"/>
<path d="M227.582 351.735C224.109 337.358 210.956 327 196.002 327C183.71 327 172.607 333.781 167.022 344.694C165.878 346.933 165.017 349.299 164.427 351.735C146.541 351.766 132 366.226 132 384H133.934C133.934 367.271 147.641 353.656 164.485 353.656C181.328 353.656 195.035 367.271 195.035 384H196.969C196.969 367.271 210.676 353.656 227.52 353.656C244.363 353.656 258.07 367.271 258.07 384H260.004C260 366.231 245.463 351.77 227.582 351.735ZM168.743 345.567C173.995 335.296 184.442 328.921 196.002 328.921C209.931 328.921 222.201 338.473 225.612 351.797C222.964 351.951 220.396 352.418 217.956 353.167C215.228 343.518 206.174 336.609 196.007 336.609C188.119 336.609 180.893 340.584 176.679 347.237C175.508 349.087 174.639 351.079 174.053 353.167C171.613 352.418 169.054 351.955 166.41 351.801C166.955 349.642 167.727 347.549 168.743 345.567ZM182.978 357.494C180.791 355.982 178.409 354.731 175.881 353.788C176.417 351.841 177.22 349.977 178.312 348.254C182.166 342.161 188.78 338.526 196.002 338.526C205.349 338.526 213.662 344.901 216.124 353.788C213.586 354.736 211.204 355.991 209.013 357.503C208.143 351.136 202.647 346.206 196.002 346.206C191.362 346.206 187.152 348.563 184.748 352.511C183.817 354.039 183.218 355.736 182.978 357.494ZM196.002 376.193C194.259 369.258 190.253 363.204 184.806 358.855C184.877 356.965 185.418 355.123 186.403 353.511C188.452 350.14 192.041 348.131 196.002 348.131C202.044 348.131 206.977 352.907 207.194 358.86C201.747 363.208 197.741 369.258 196.002 376.193Z" fill="#7F7365"/>
<path d="M227.515 361.34C214.935 361.34 204.701 371.505 204.701 384H206.635C206.635 372.566 216.004 363.261 227.515 363.261C239.027 363.261 248.396 372.566 248.396 384H250.33C250.33 371.505 240.096 361.34 227.515 361.34Z" fill="#7F7365"/>
<path d="M227.515 370.941C220.267 370.941 214.372 376.796 214.372 383.996H216.306C216.306 377.858 221.336 372.862 227.515 372.862C233.695 372.862 238.725 377.858 238.725 383.996H240.659C240.659 376.801 234.764 370.941 227.515 370.941Z" fill="#7F7365"/>
</g>
<g opacity="0.1">
<path d="M266.485 34.3401C253.904 34.3401 243.67 44.5047 243.67 57H245.604C245.604 45.5665 254.973 36.2611 266.485 36.2611C277.996 36.2611 287.365 45.5665 287.365 57H289.299C289.299 44.5047 279.065 34.3401 266.485 34.3401Z" fill="#7F7365"/>
<path d="M266.485 43.9407C259.236 43.9407 253.341 49.7962 253.341 56.9956H255.275C255.275 50.858 260.305 45.8617 266.485 45.8617C272.668 45.8617 277.694 50.858 277.694 56.9956H279.628C279.628 49.8006 273.733 43.9407 266.485 43.9407Z" fill="#7F7365"/>
<path d="M329.582 24.7351C326.109 10.3584 312.956 0 298.002 0C285.71 0 274.607 6.78078 269.022 17.6944C267.878 19.9326 267.017 22.2986 266.427 24.7351C248.541 24.7659 234 39.2263 234 57H235.934C235.934 40.2705 249.641 26.6561 266.485 26.6561C283.328 26.6561 297.035 40.2705 297.035 57H298.969C298.969 40.2705 312.676 26.6561 329.52 26.6561C346.363 26.6561 360.07 40.2705 360.07 57H362.004C362 39.2307 347.463 24.7703 329.582 24.7351ZM270.743 18.5667C275.995 8.29644 286.442 1.921 298.002 1.921C311.931 1.921 324.201 11.4731 327.612 24.7968C324.964 24.951 322.396 25.418 319.956 26.167C317.228 16.518 308.174 9.60942 298.007 9.60942C290.119 9.60942 282.893 13.5836 278.679 20.2366C277.508 22.0871 276.639 24.0786 276.053 26.167C273.613 25.418 271.054 24.9554 268.41 24.8012C268.955 22.6423 269.727 20.5494 270.743 18.5667ZM284.978 30.4937C282.791 28.9825 280.409 27.7312 277.881 26.7883C278.417 24.8408 279.22 22.9771 280.312 21.2544C284.166 15.1609 290.78 11.526 298.002 11.526C307.349 11.526 315.662 17.9014 318.124 26.7883C315.586 27.7356 313.204 28.9913 311.013 30.5025C310.143 24.1359 304.647 19.2056 298.002 19.2056C293.362 19.2056 289.152 21.5628 286.748 25.5106C285.817 27.0394 285.218 28.7357 284.978 30.4937ZM298.002 49.1926C296.259 42.2576 292.253 36.2038 286.806 31.8551C286.877 29.965 287.418 28.1233 288.403 26.5107C290.452 23.1401 294.041 21.131 298.002 21.131C304.044 21.131 308.977 25.9071 309.194 31.8596C303.747 36.2082 299.741 42.2576 298.002 49.1926Z" fill="#7F7365"/>
<path d="M329.515 34.3401C316.935 34.3401 306.701 44.5047 306.701 57H308.635C308.635 45.5665 318.004 36.2611 329.515 36.2611C341.027 36.2611 350.396 45.5665 350.396 57H352.33C352.33 44.5047 342.096 34.3401 329.515 34.3401Z" fill="#7F7365"/>
<path d="M329.515 43.9407C322.267 43.9407 316.372 49.7962 316.372 56.9956H318.306C318.306 50.858 323.336 45.8617 329.515 45.8617C335.695 45.8617 340.725 50.858 340.725 56.9956H342.659C342.659 49.8006 336.764 43.9407 329.515 43.9407Z" fill="#7F7365"/>
</g>
<g opacity="0.1">
<path d="M357.485 617.34C344.904 617.34 334.67 627.505 334.67 640H336.604C336.604 628.566 345.973 619.261 357.485 619.261C368.996 619.261 378.365 628.566 378.365 640H380.299C380.299 627.505 370.065 617.34 357.485 617.34Z" fill="#7F7365"/>
<path d="M357.485 626.941C350.236 626.941 344.341 632.796 344.341 639.996H346.275C346.275 633.858 351.305 628.862 357.485 628.862C363.668 628.862 368.694 633.858 368.694 639.996H370.628C370.628 632.801 364.733 626.941 357.485 626.941Z" fill="#7F7365"/>
<path d="M420.582 607.735C417.109 593.358 403.956 583 389.002 583C376.71 583 365.607 589.781 360.022 600.694C358.878 602.933 358.017 605.299 357.427 607.735C339.541 607.766 325 622.226 325 640H326.934C326.934 623.271 340.641 609.656 357.485 609.656C374.328 609.656 388.035 623.271 388.035 640H389.969C389.969 623.271 403.676 609.656 420.52 609.656C437.363 609.656 451.07 623.271 451.07 640H453.004C453 622.231 438.463 607.77 420.582 607.735ZM361.743 601.567C366.995 591.296 377.442 584.921 389.002 584.921C402.931 584.921 415.201 594.473 418.612 607.797C415.964 607.951 413.396 608.418 410.956 609.167C408.228 599.518 399.174 592.609 389.007 592.609C381.119 592.609 373.893 596.584 369.679 603.237C368.508 605.087 367.639 607.079 367.053 609.167C364.613 608.418 362.054 607.955 359.41 607.801C359.955 605.642 360.727 603.549 361.743 601.567ZM375.978 613.494C373.791 611.982 371.409 610.731 368.881 609.788C369.417 607.841 370.22 605.977 371.312 604.254C375.166 598.161 381.78 594.526 389.002 594.526C398.349 594.526 406.662 600.901 409.124 609.788C406.586 610.736 404.204 611.991 402.013 613.503C401.143 607.136 395.647 602.206 389.002 602.206C384.362 602.206 380.152 604.563 377.748 608.511C376.817 610.039 376.218 611.736 375.978 613.494ZM389.002 632.193C387.259 625.258 383.253 619.204 377.806 614.855C377.877 612.965 378.418 611.123 379.403 609.511C381.452 606.14 385.041 604.131 389.002 604.131C395.044 604.131 399.977 608.907 400.194 614.86C394.747 619.208 390.741 625.258 389.002 632.193Z" fill="#7F7365"/>
<path d="M420.515 617.34C407.935 617.34 397.701 627.505 397.701 640H399.635C399.635 628.566 409.004 619.261 420.515 619.261C432.027 619.261 441.396 628.566 441.396 640H443.33C443.33 627.505 433.096 617.34 420.515 617.34Z" fill="#7F7365"/>
<path d="M420.515 626.941C413.267 626.941 407.372 632.796 407.372 639.996H409.306C409.306 633.858 414.336 628.862 420.515 628.862C426.695 628.862 431.725 633.858 431.725 639.996H433.659C433.659 632.801 427.764 626.941 420.515 626.941Z" fill="#7F7365"/>
</g>
<g opacity="0.1">
<path d="M74.4846 527.34C61.9042 527.34 51.6704 537.505 51.6704 550H53.6045C53.6045 538.566 62.9733 529.261 74.4846 529.261C85.996 529.261 95.3647 538.566 95.3647 550H97.2988C97.2988 537.505 87.065 527.34 74.4846 527.34Z" fill="#7F7365"/>
<path d="M74.4846 536.941C67.2362 536.941 61.3408 542.796 61.3408 549.996H63.2749C63.2749 543.858 68.3053 538.862 74.4846 538.862C80.6684 538.862 85.6943 543.858 85.6943 549.996H87.6284C87.6284 542.801 81.733 536.941 74.4846 536.941Z" fill="#7F7365"/>
<path d="M137.582 517.735C134.109 503.358 120.956 493 106.002 493C93.7101 493 82.6069 499.781 77.022 510.694C75.8775 512.933 75.0169 515.299 74.427 517.735C56.5411 517.766 42 532.226 42 550H43.9341C43.9341 533.271 57.6412 519.656 74.4846 519.656C91.328 519.656 105.035 533.271 105.035 550H106.969C106.969 533.271 120.676 519.656 137.52 519.656C154.363 519.656 168.07 533.271 168.07 550H170.004C170 532.231 155.463 517.77 137.582 517.735ZM78.7432 511.567C83.9954 501.296 94.4421 494.921 106.002 494.921C119.931 494.921 132.201 504.473 135.612 517.797C132.964 517.951 130.396 518.418 127.956 519.167C125.228 509.518 116.174 502.609 106.007 502.609C98.1195 502.609 90.8933 506.584 86.6791 513.237C85.508 515.087 84.6386 517.079 84.053 519.167C81.6132 518.418 79.0537 517.955 76.4098 517.801C76.9555 515.642 77.7273 513.549 78.7432 511.567ZM92.9782 523.494C90.7913 521.982 88.4091 520.731 85.8806 519.788C86.4174 517.841 87.2203 515.977 88.3116 514.254C92.1664 508.161 98.7805 504.526 106.002 504.526C115.349 504.526 123.662 510.901 126.124 519.788C123.586 520.736 121.204 521.991 119.013 523.503C118.143 517.136 112.647 512.206 106.002 512.206C101.362 512.206 97.1525 514.563 94.7482 518.511C93.8166 520.039 93.2177 521.736 92.9782 523.494ZM106.002 542.193C104.259 535.258 100.253 529.204 94.8058 524.855C94.8768 522.965 95.418 521.123 96.4028 519.511C98.4522 516.14 102.041 514.131 106.002 514.131C112.044 514.131 116.977 518.907 117.194 524.86C111.747 529.208 107.741 535.258 106.002 542.193Z" fill="#7F7365"/>
<path d="M137.515 527.34C124.935 527.34 114.701 537.505 114.701 550H116.635C116.635 538.566 126.004 529.261 137.515 529.261C149.027 529.261 158.396 538.566 158.396 550H160.33C160.33 537.505 150.096 527.34 137.515 527.34Z" fill="#7F7365"/>
<path d="M137.515 536.941C130.267 536.941 124.372 542.796 124.372 549.996H126.306C126.306 543.858 131.336 538.862 137.515 538.862C143.695 538.862 148.725 543.858 148.725 549.996H150.659C150.659 542.801 144.764 536.941 137.515 536.941Z" fill="#7F7365"/>
</g>
</svg>
