<svg width="225" height="240" viewBox="0 0 225 240" fill="none" xmlns="http://www.w3.org/2000/svg">
<rect width="225" height="240" fill="white"/>
<path d="M180 232.5H135V240H180V232.5Z" fill="#AF83BA"/>
<path d="M225 232.5H180V240H225V232.5Z" fill="#F39BBE"/>
<path d="M135 232.5H90V240H135V232.5Z" fill="#6361AA"/>
<path d="M90 232.5H45V240H90V232.5Z" fill="#A1CC7A"/>
<path d="M45 232.5H0V240H45V232.5Z" fill="#EDE278"/>
<path d="M45 0H90V7.5H45V0Z" fill="#AF83BA"/>
<path d="M7.62939e-06 0H45V7.5H7.62939e-06V0Z" fill="#F39BBE"/>
<path d="M90 0H135V7.5H90V0Z" fill="#6361AA"/>
<path d="M135 0H180V7.5H135V0Z" fill="#A1CC7A"/>
<path d="M180 0H225V7.5H180V0Z" fill="#EDE278"/>
<path d="M7.50049 192L7.50049 144L0.000488758 144L0.00048666 192L7.50049 192Z" fill="#AF83BA"/>
<path d="M7.50049 240L7.50049 192L0.000488758 192L0.00048666 240L7.50049 240Z" fill="#F39BBE"/>
<path d="M7.50049 144L7.50049 95.9999L0.000488758 95.9999L0.00048666 144L7.50049 144Z" fill="#6361AA"/>
<path d="M7.50049 96L7.50049 48L0.000488758 48L0.00048666 96L7.50049 96Z" fill="#A1CC7A"/>
<path d="M7.50049 48L7.50049 0L0.000488758 -3.27835e-07L0.00048666 48L7.50049 48Z" fill="#EDE278"/>
<path d="M217.5 48L217.5 95.9999L225 95.9999L225 48L217.5 48Z" fill="#AF83BA"/>
<path d="M217.5 -4.95911e-05L217.5 47.9999L225 47.9999L225 -4.92632e-05L217.5 -4.95911e-05Z" fill="#F39BBE"/>
<path d="M217.5 96L217.5 144L225 144L225 96L217.5 96Z" fill="#6361AA"/>
<path d="M217.5 144L217.5 192L225 192L225 144L217.5 144Z" fill="#A1CC7A"/>
<path d="M217.5 192L217.5 240L225 240L225 192L217.5 192Z" fill="#EDE278"/>
</svg>
