<svg width="569" height="248" viewBox="0 0 569 248" fill="none" xmlns="http://www.w3.org/2000/svg">
<path opacity="0.75" d="M283.5 248C335.691 248 378 207.929 378 158.5C378 109.071 335.691 69 283.5 69C231.309 69 189 109.071 189 158.5C189 207.929 231.309 248 283.5 248Z" fill="url(#paint0_linear_301_3)"/>
<path d="M545.81 226.9C533.85 226.9 524.15 217.2 524.15 205.24V121.81C524.15 109.85 533.85 100.15 545.81 100.15C557.77 100.15 567.47 109.85 567.47 121.81V205.24C567.47 217.2 557.77 226.9 545.81 226.9Z" stroke="#F0D2AE" stroke-width="1.8" stroke-miterlimit="10"/>
<path d="M545.81 217.33C537.05 217.33 529.95 210.23 529.95 201.47V124.37C529.95 115.61 537.05 108.51 545.81 108.51C554.57 108.51 561.67 115.61 561.67 124.37V201.47C561.67 210.24 554.57 217.33 545.81 217.33Z" stroke="#E5BD91" stroke-width="1.8" stroke-miterlimit="10"/>
<path d="M545.811 216.14C540.261 216.14 535.761 211.64 535.761 206.09V126.94C535.761 121.39 540.261 116.89 545.811 116.89C551.361 116.89 555.861 121.39 555.861 126.94V206.09C555.861 211.64 551.361 216.14 545.811 216.14Z" stroke="#F0D2AE" stroke-width="1.8" stroke-miterlimit="10"/>
<path d="M545.81 214.94C543.84 214.94 542.24 213.34 542.24 211.37V128.84C542.24 126.87 543.84 125.27 545.81 125.27C547.78 125.27 549.38 126.87 549.38 128.84V211.37C549.38 213.34 547.78 214.94 545.81 214.94Z" stroke="#E5BD91" stroke-width="1.8" stroke-miterlimit="10"/>
<path d="M501.57 181.81C492.81 181.81 485.71 174.71 485.71 165.95V88.85C485.71 80.1 492.81 73 501.57 73C510.33 73 517.43 80.1 517.43 88.86V165.96C517.42 174.71 510.32 181.81 501.57 181.81Z" stroke="#E5BD91" stroke-width="1.8" stroke-miterlimit="10"/>
<path d="M501.57 180.62C496.02 180.62 491.52 176.12 491.52 170.57V91.42C491.52 85.87 496.02 81.37 501.57 81.37C507.12 81.37 511.62 85.87 511.62 91.42V170.57C511.61 176.12 507.12 180.62 501.57 180.62Z" stroke="#F0D2AE" stroke-width="1.8" stroke-miterlimit="10"/>
<path d="M501.57 179.42C499.6 179.42 498 177.82 498 175.85V93.31C498 91.34 499.6 89.74 501.57 89.74C503.54 89.74 505.14 91.34 505.14 93.31V175.84C505.14 177.82 503.54 179.42 501.57 179.42Z" stroke="#E5BD91" stroke-width="1.8" stroke-miterlimit="10"/>
<path d="M469.86 201.87C461.1 201.87 454 194.77 454 186.01V108.91C454 100.15 461.1 93.05 469.86 93.05C478.62 93.05 485.72 100.15 485.72 108.91V186.01C485.71 194.77 478.61 201.87 469.86 201.87Z" stroke="#E5BD91" stroke-width="1.8" stroke-miterlimit="10"/>
<path d="M469.86 200.67C464.31 200.67 459.81 196.17 459.81 190.62V111.47C459.81 105.92 464.31 101.42 469.86 101.42C475.41 101.42 479.91 105.92 479.91 111.47V190.62C479.9 196.17 475.41 200.67 469.86 200.67Z" stroke="#F0D2AE" stroke-width="1.8" stroke-miterlimit="10"/>
<path d="M469.86 199.48C467.89 199.48 466.29 197.88 466.29 195.91V113.37C466.29 111.4 467.89 109.8 469.86 109.8C471.83 109.8 473.43 111.4 473.43 113.37V195.9C473.43 197.88 471.83 199.48 469.86 199.48Z" stroke="#E5BD91" stroke-width="1.8" stroke-miterlimit="10"/>
<g opacity="0.5">
<path d="M30.3999 11.97H92.4199C95.5999 11.97 98.1899 9.39 98.1899 6.2V5.77C98.1799 2.58 95.5999 0 92.4199 0H30.3999C27.2199 0 24.6299 2.58 24.6299 5.77V6.21C24.6299 9.39 27.2199 11.97 30.3999 11.97Z" fill="#F0D2AE"/>
<path d="M5.77 33.25H123.02C126.2 33.25 128.79 30.67 128.79 27.48V27.04C128.79 23.86 126.21 21.27 123.02 21.27H5.77C2.58 21.28 0 23.86 0 27.04V27.48C0 30.67 2.58 33.25 5.77 33.25Z" fill="#F0D2AE"/>
<path d="M37.0903 54.52H107.7C110.88 54.52 113.47 51.94 113.47 48.75V48.31C113.47 45.13 110.89 42.54 107.7 42.54H37.0903C33.9103 42.54 31.3203 45.12 31.3203 48.31V48.75C31.3203 51.94 33.9003 54.52 37.0903 54.52Z" fill="#F0D2AE"/>
<path d="M48.9202 16.96C48.9202 14.2 45.7002 11.97 41.7402 11.97H68.1602C64.1902 11.97 60.9802 14.2 60.9802 16.96C60.9802 19.72 64.2002 21.95 68.1602 21.95H41.7402C45.7002 21.95 48.9202 19.72 48.9202 16.96Z" fill="#F0D2AE"/>
<path d="M64.6197 38.24C64.6197 35.48 61.3997 33.25 57.4397 33.25H83.8597C79.8897 33.25 76.6797 35.48 76.6797 38.24C76.6797 41 79.8997 43.23 83.8597 43.23H57.4297C61.3997 43.23 64.6197 40.99 64.6197 38.24Z" fill="#F0D2AE"/>
</g>
<defs>
<linearGradient id="paint0_linear_301_3" x1="283.5" y1="200.285" x2="283.5" y2="77.5985" gradientUnits="userSpaceOnUse">
<stop offset="0.2147" stop-color="#FAECD8"/>
<stop offset="0.3383" stop-color="#FAE8D2"/>
<stop offset="0.505" stop-color="#F9DDC1"/>
<stop offset="0.6962" stop-color="#F9CCA5"/>
<stop offset="0.9042" stop-color="#F8B37E"/>
<stop offset="1" stop-color="#F7A669"/>
</linearGradient>
</defs>
</svg>
