<svg width="164" height="105" viewBox="0 0 164 105" fill="none" xmlns="http://www.w3.org/2000/svg">
<g filter="url(#filter0_d_148_13383)">
<path d="M158 99H2V2.12836L80 42.9565L158 2.12836V99Z" fill="#465B4B"/>
<path d="M97.0051 99H62.9951V33.9804L80.0001 42.9565L97.0051 34.131V99Z" fill="#54725C"/>
<path d="M80.412 42.7664H79.5879V57.7202H80.412V42.7664Z" fill="#FFDBC0"/>
<path d="M79.6944 63.2344L74.1875 68.5291L74.7702 69.0894L80.2771 63.7947L79.6944 63.2344Z" fill="#FFDBC0"/>
<path d="M82.2006 64.3521L75.3511 70.9378L75.9338 71.4981L82.7833 64.9124L82.2006 64.3521Z" fill="#FFDBC0"/>
<path d="M84.036 66.1185L77.1865 72.7042L77.7693 73.2645L84.6188 66.6788L84.036 66.1185Z" fill="#FFDBC0"/>
<path d="M85.209 68.5265L79.7021 73.8221L80.285 74.3823L85.7918 69.0868L85.209 68.5265Z" fill="#FFDBC0"/>
<path d="M80.2761 63.2337L79.6934 63.794L85.2527 69.1392L85.8354 68.5789L80.2761 63.2337Z" fill="#FFDBC0"/>
<path d="M77.7688 64.3524L77.186 64.9127L84.0355 71.4984L84.6183 70.9381L77.7688 64.3524Z" fill="#FFDBC0"/>
<path d="M75.9343 66.117L75.3516 66.6773L82.2011 73.263L82.7838 72.7027L75.9343 66.117Z" fill="#FFDBC0"/>
<path d="M74.7707 68.5293L74.188 69.0896L79.6949 74.3843L80.2776 73.824L74.7707 68.5293Z" fill="#FFDBC0"/>
<path d="M89.0424 70.7137C87.9233 70.7137 86.631 70.3492 85.4525 69.4237C85.1987 69.2446 85.1394 69.0323 85.1328 68.8849C85.1212 68.5822 85.3322 68.3651 85.4163 68.2922C85.5399 68.167 86.3228 67.4047 87.5013 66.9657C88.6106 66.5521 90.1583 66.3239 91.1736 66.9293C91.7241 67.2573 92.0488 67.7977 92.1148 68.4903C92.184 69.224 91.7538 69.8849 90.9363 70.3001C90.4335 70.5584 89.7742 70.7137 89.0424 70.7137ZM86.0129 68.8405C87.6595 70.1115 89.5155 70.1289 90.5522 69.6012C90.8522 69.4491 91.3467 69.1115 91.2939 68.5616C91.2527 68.1147 91.0714 67.8009 90.7401 67.6028C90.0297 67.1797 88.7523 67.3493 87.8013 67.7042C86.7711 68.0893 86.0756 68.7787 86.0129 68.8405Z" fill="#FFDBC0"/>
<path d="M70.9573 70.7136C70.2255 70.7136 69.5679 70.5583 69.0635 70.3016C68.246 69.8864 67.8174 69.2255 67.8867 68.4918C67.9509 67.7993 68.2773 67.2604 68.8278 66.9308C69.8431 66.3254 71.3908 66.5521 72.5001 66.9673C73.6786 67.4078 74.4615 68.1685 74.5851 68.2937C74.6692 68.3666 74.8802 68.5837 74.8686 68.8864C74.8637 69.0338 74.8027 69.2461 74.5489 69.4252C73.3687 70.3491 72.0765 70.7136 70.9573 70.7136ZM70.3788 67.3539C69.9503 67.3539 69.5563 67.4268 69.2596 67.6043C68.9283 67.8024 68.747 68.1162 68.7058 68.5631C68.6547 69.1114 69.1492 69.449 69.4475 69.6027C70.4843 70.1304 72.3386 70.113 73.9868 68.842C73.9291 68.7834 73.2319 68.0909 72.1985 67.7058C71.6447 67.4982 70.9788 67.3539 70.3788 67.3539Z" fill="#FFDBC0"/>
<path d="M80.1797 80.4932C79.4792 80.4932 78.8578 80.0844 78.4556 79.3538C77.7798 78.1256 77.7765 75.9545 79.3671 74.0813C79.5533 73.8372 79.7742 73.7802 79.9275 73.7738C80.244 73.7628 80.4681 73.9656 80.5439 74.0464C80.6742 74.1653 81.467 74.918 81.9235 76.0511C82.3537 77.1177 82.5911 78.6058 81.9598 79.582C81.6186 80.1113 81.0565 80.4235 80.3363 80.4869C80.2852 80.4901 80.2324 80.4932 80.1797 80.4932ZM79.9736 74.6185C78.6518 76.2017 78.6336 77.9861 79.1825 78.983C79.3407 79.2714 79.6934 79.7452 80.2637 79.6961C80.7285 79.6565 81.0549 79.4822 81.2609 79.1636C81.701 78.4822 81.5246 77.2524 81.1554 76.338C80.7549 75.3475 80.0396 74.6787 79.9736 74.6185Z" fill="#FFDBC0"/>
<path d="M79.9141 63.8564C79.9059 63.8564 79.8976 63.8564 79.8894 63.8564C79.7361 63.8516 79.5153 63.793 79.329 63.549C77.7384 61.6758 77.7417 59.5046 78.4175 58.2764C78.8494 57.4904 79.5334 57.0768 80.2998 57.1449C81.0201 57.2067 81.5805 57.5205 81.9233 58.0498C82.553 59.026 82.3173 60.5125 81.8854 61.5807C81.4272 62.7138 80.6361 63.4665 80.5059 63.5854C80.4317 63.6615 80.2158 63.8564 79.9141 63.8564ZM80.1449 57.931C79.6224 57.931 79.296 58.3747 79.146 58.6489C78.5972 59.6457 78.6153 61.4285 79.9372 63.0133C79.9982 62.9578 80.7185 62.2875 81.119 61.2938C81.4882 60.3794 81.6646 59.1497 81.2245 58.4682C81.0185 58.1497 80.6938 57.9753 80.2273 57.9357C80.1976 57.931 80.1713 57.931 80.1449 57.931Z" fill="#FFDBC0"/>
<path d="M82.5515 65.0086C82.4691 65.0086 82.3768 64.9943 82.2862 64.9515C82.1889 64.9056 82.0159 64.7915 81.9532 64.53C81.4785 62.8913 82.123 61.4856 82.9257 60.8739C83.4531 60.4698 84.0663 60.3858 84.5657 60.6489C85.0354 60.8961 85.3189 61.2701 85.3882 61.7313C85.5118 62.5506 84.9217 63.4555 84.3267 64.0308C83.7086 64.6282 82.9867 64.9008 82.8532 64.9483C82.7971 64.9705 82.685 65.0086 82.5515 65.0086ZM83.946 61.2907C83.7432 61.2907 83.552 61.408 83.4383 61.4952C82.8515 61.9436 82.4296 62.9848 82.7032 64.1512C82.9207 64.0577 83.3608 63.8406 83.7432 63.4729C84.2097 63.0213 84.6481 62.343 84.5723 61.8454C84.541 61.6314 84.4124 61.473 84.1685 61.3446C84.0959 61.3066 84.0201 61.2907 83.946 61.2907Z" fill="#FFDBC0"/>
<path d="M84.7961 66.88C84.6824 66.88 84.6016 66.8753 84.5654 66.8721C84.4648 66.8705 84.2159 66.8451 84.0462 66.6502C83.9769 66.5694 83.8681 66.3967 83.9242 66.1352C84.1945 64.4537 85.3845 63.43 86.3784 63.1891C87.0328 63.0306 87.6278 63.197 87.969 63.636C88.2904 64.048 88.3893 64.5013 88.2541 64.9482C88.0151 65.7437 87.0888 66.3333 86.301 66.6217C85.6961 66.842 85.1159 66.88 84.7961 66.88ZM84.7714 66.0876C85.0137 66.0892 85.5032 66.067 86.0092 65.8816C86.6273 65.655 87.3179 65.2113 87.463 64.7279C87.5256 64.5203 87.4762 64.3254 87.3097 64.1114C87.1218 63.8705 86.7707 63.9118 86.5795 63.9577C85.8526 64.1352 85.0219 64.9149 84.7714 66.0876Z" fill="#FFDBC0"/>
<path d="M77.5359 65.0086C77.4024 65.0086 77.2903 64.9705 77.2343 64.9468C77.1007 64.8992 76.3788 64.6282 75.7607 64.0292C75.1674 63.4555 74.5773 62.5506 74.6993 61.7297C74.7685 61.2685 75.0536 60.8945 75.5217 60.6473C76.0211 60.3842 76.6343 60.4682 77.1617 60.8723C77.9644 61.4856 78.6089 62.8897 78.1342 64.5284C78.0716 64.7899 77.9001 64.904 77.8013 64.9499C77.709 64.9943 77.6183 65.0086 77.5359 65.0086ZM77.5705 64.2257C77.5721 64.2257 77.5721 64.2257 77.5705 64.2257V64.2257ZM76.1415 61.2907C76.0673 61.2907 75.9915 61.3066 75.9173 61.3462C75.6734 61.4745 75.5465 61.633 75.5135 61.847C75.4393 62.3446 75.8761 63.0229 76.3426 63.4745C76.7233 63.8438 77.1634 64.0593 77.3826 64.1528C77.6562 62.9864 77.2343 61.9452 76.6475 61.4967C76.5354 61.408 76.3442 61.2907 76.1415 61.2907Z" fill="#FFDBC0"/>
<path d="M75.2888 66.8801C74.969 66.8801 74.3889 66.8436 73.784 66.6218C72.9977 66.3349 72.0714 65.7438 71.8308 64.9483C71.6956 64.5014 71.7945 64.0481 72.1159 63.6361C72.4571 63.1987 73.0521 63.0323 73.7065 63.1892C74.7004 63.4301 75.8904 64.4538 76.1607 66.1353C76.2151 66.3983 76.108 66.5711 76.0388 66.6503C75.869 66.8452 75.6201 66.869 75.5196 66.8722C75.4833 66.8753 75.4025 66.8801 75.2888 66.8801ZM73.2269 63.9229C73.0653 63.9229 72.8906 63.9657 72.7752 64.1115C72.6088 64.3255 72.561 64.5204 72.6219 64.728C72.767 65.2113 73.4576 65.6551 74.0757 65.8817C74.5801 66.0655 75.0795 66.0893 75.3135 66.0877C75.063 64.9166 74.2306 64.1353 73.5038 63.9594C73.4296 63.9404 73.3307 63.9229 73.2269 63.9229Z" fill="#FFDBC0"/>
<path d="M83.8801 77.1098C83.5373 77.1098 83.1796 76.983 82.8549 76.7342C82.0522 76.1209 81.4077 74.7168 81.8824 73.0782C81.9451 72.8167 82.1165 72.7026 82.2154 72.6566C82.4527 72.5473 82.6917 72.6233 82.7824 72.6614C82.9159 72.7089 83.6378 72.9799 84.2559 73.5789C84.8493 74.1526 85.4393 75.0575 85.3174 75.8784C85.2481 76.3396 84.9646 76.7136 84.4949 76.9608C84.3037 77.0591 84.096 77.1098 83.8801 77.1098ZM82.634 73.4569C82.3604 74.6233 82.7824 75.6645 83.3691 76.113C83.5241 76.2318 83.8241 76.4077 84.101 76.2635C84.3433 76.1352 84.4718 75.9767 84.5048 75.7627C84.579 75.2651 84.1422 74.5868 83.6757 74.1352C83.2917 73.7675 82.8532 73.5504 82.634 73.4569Z" fill="#FFDBC0"/>
<path d="M86.7841 74.4759C86.6325 74.4759 86.4726 74.4568 86.3095 74.4172C85.3156 74.1763 84.1255 73.1526 83.8552 71.4712C83.8008 71.2081 83.908 71.0353 83.9772 70.9561C84.1469 70.7612 84.3958 70.7374 84.4964 70.7342C84.6381 70.7232 85.4128 70.6851 86.232 70.9846C87.0182 71.2715 87.9445 71.8626 88.1852 72.6581C88.3203 73.105 88.2214 73.5583 87.9 73.9703C87.6445 74.3 87.244 74.4759 86.7841 74.4759ZM84.7024 71.5219C84.9529 72.693 85.7853 73.4743 86.5122 73.6502C86.705 73.6962 87.0545 73.7389 87.2424 73.4965C87.4088 73.2825 87.4566 73.0876 87.3956 72.88C87.2506 72.3967 86.56 71.9529 85.9419 71.7263C85.4359 71.5425 84.9464 71.5187 84.7024 71.5219Z" fill="#FFDBC0"/>
<path d="M76.0671 77.1097C75.8528 77.1097 75.6435 77.0606 75.4523 76.9592C74.9825 76.7119 74.699 76.3379 74.6298 75.8768C74.5062 75.0575 75.0979 74.1526 75.6913 73.5773C76.3094 72.9798 77.0313 72.7073 77.1648 72.6597C77.2571 72.6217 77.4945 72.5456 77.7318 72.655C77.829 72.7009 78.0021 72.815 78.0647 73.0765C78.5394 74.7151 77.895 76.1208 77.0923 76.7325C76.7676 76.9814 76.4099 77.1097 76.0671 77.1097ZM77.3148 73.4568C77.0972 73.5503 76.6571 73.7675 76.2747 74.1351C75.8083 74.5868 75.3699 75.2651 75.4457 75.7627C75.477 75.9766 75.6056 76.1351 75.8495 76.2635C76.1248 76.4093 76.4264 76.2318 76.5813 76.1129C77.1664 75.6644 77.5884 74.6232 77.3148 73.4568Z" fill="#FFDBC0"/>
<path d="M73.163 74.4759C72.7031 74.4759 72.3026 74.3 72.0471 73.9703C71.7257 73.5583 71.6268 73.105 71.7619 72.6581C72.0009 71.8626 72.9273 71.2731 73.7151 70.9846C74.5343 70.6851 75.309 70.7232 75.4507 70.7342C75.5496 70.7358 75.8001 70.7612 75.9699 70.9561C76.0391 71.0369 76.1463 71.2097 76.0919 71.4712C75.8216 73.1526 74.6315 74.1763 73.6376 74.4172C73.4745 74.4568 73.3162 74.4759 73.163 74.4759ZM75.2216 71.5203C74.9744 71.5203 74.4964 71.5472 74.0069 71.7263C73.3888 71.9529 72.6981 72.3967 72.5531 72.88C72.4905 73.0876 72.5399 73.2825 72.7064 73.4965C72.8943 73.7374 73.2454 73.6962 73.4366 73.6502C74.1634 73.4743 74.9942 72.693 75.2463 71.5219C75.2381 71.5203 75.2299 71.5203 75.2216 71.5203Z" fill="#FFDBC0"/>
<path d="M79.9997 55.557C81.2441 55.557 82.2529 54.5871 82.2529 53.3906C82.2529 52.1942 81.2441 51.2242 79.9997 51.2242C78.7554 51.2242 77.7466 52.1942 77.7466 53.3906C77.7466 54.5871 78.7554 55.557 79.9997 55.557Z" fill="#928CE6"/>
<path d="M157.995 2V9.06645L79.9971 49.0737V2H157.995Z" fill="#5F8267"/>
<path d="M2 2V9.06645L79.9967 49.0737V2H2Z" fill="#5F8267"/>
</g>
<defs>
<filter id="filter0_d_148_13383" x="0" y="0" width="164" height="105" filterUnits="userSpaceOnUse" color-interpolation-filters="sRGB">
<feFlood flood-opacity="0" result="BackgroundImageFix"/>
<feColorMatrix in="SourceAlpha" type="matrix" values="0 0 0 0 0 0 0 0 0 0 0 0 0 0 0 0 0 0 127 0" result="hardAlpha"/>
<feOffset dx="2" dy="2"/>
<feGaussianBlur stdDeviation="2"/>
<feComposite in2="hardAlpha" operator="out"/>
<feColorMatrix type="matrix" values="0 0 0 0 0 0 0 0 0 0 0 0 0 0 0 0 0 0 0.15 0"/>
<feBlend mode="normal" in2="BackgroundImageFix" result="effect1_dropShadow_148_13383"/>
<feBlend mode="normal" in="SourceGraphic" in2="effect1_dropShadow_148_13383" result="shape"/>
</filter>
</defs>
</svg>
