<svg width="164" height="105" viewBox="0 0 164 105" fill="none" xmlns="http://www.w3.org/2000/svg">
<g filter="url(#filter0_d_143_4072)">
<path d="M158 99H2V3.33337L80 43.6546L158 3.33337V99Z" fill="#222D56"/>
<path d="M97.0051 99H62.9951V34.7888L80.0001 43.6546L97.0051 34.939V99Z" fill="#F76A52"/>
<path d="M80.412 43.4653H79.5879V58.2328H80.412V43.4653Z" fill="#FFDBC0"/>
<path d="M80.0001 56.4565C80.0001 56.4565 83.6015 58.0372 83.6015 62.8918C83.6015 67.7825 80.0001 69.6058 80.0001 69.6058C80.0001 69.6058 76.3987 67.7825 76.3987 62.8918C76.3987 58.0372 80.0001 56.4565 80.0001 56.4565Z" fill="#222D56"/>
<path d="M80 60.1593C80 60.1593 82.1922 61.1218 82.1922 64.075C82.1922 67.0517 80 68.1613 80 68.1613C80 68.1613 77.8079 67.0517 77.8079 64.075C77.8079 61.1218 80 60.1593 80 60.1593Z" fill="#F76A52"/>
<path d="M80.0001 82.7536C80.0001 82.7536 83.6015 81.1729 83.6015 76.3182C83.6015 71.4275 80.0001 69.6042 80.0001 69.6042C80.0001 69.6042 76.3987 71.4275 76.3987 76.3182C76.3987 81.1729 80.0001 82.7536 80.0001 82.7536Z" fill="#222D56"/>
<path d="M80 79.4044C80 79.4044 82.1922 78.4419 82.1922 75.4887C82.1922 72.5121 80 71.4025 80 71.4025C80 71.4025 77.8079 72.5121 77.8079 75.4887C77.8079 78.4419 80 79.4044 80 79.4044Z" fill="#F76A52"/>
<path d="M93.8486 69.6058C93.8486 69.6058 92.1838 73.0254 87.071 73.0254C81.9202 73.0254 80 69.6058 80 69.6058C80 69.6058 81.9202 66.1862 87.071 66.1862C92.1822 66.1862 93.8486 69.6058 93.8486 69.6058Z" fill="#222D56"/>
<path d="M90.135 69.7811C90.135 69.7811 89.1213 71.8625 86.0111 71.8625C82.8761 71.8625 81.7075 69.7811 81.7075 69.7811C81.7075 69.7811 82.8761 67.6996 86.0111 67.6996C89.1213 67.6996 90.135 69.7811 90.135 69.7811Z" fill="#F76A52"/>
<path d="M66.1531 69.6058C66.1531 69.6058 67.8178 73.0254 72.9307 73.0254C78.0814 73.0254 80.0016 69.6058 80.0016 69.6058C80.0016 69.6058 78.0814 66.1862 72.9307 66.1862C67.8178 66.1862 66.1531 69.6058 66.1531 69.6058Z" fill="#222D56"/>
<path d="M69.8665 69.7811C69.8665 69.7811 70.8801 71.8625 73.9904 71.8625C77.1253 71.8625 78.2939 69.7811 78.2939 69.7811C78.2939 69.7811 77.1253 67.6996 73.9904 67.6996C70.8785 67.6996 69.8665 69.7811 69.8665 69.7811Z" fill="#F76A52"/>
<path d="M89.7923 60.4833C89.7923 60.4833 91.162 64.0187 87.5474 67.4508C83.9047 70.9095 80.0017 69.7811 80.0017 69.7811C80.0017 69.7811 78.8133 66.0736 82.4559 62.6164C86.0689 59.1843 89.7923 60.4833 89.7923 60.4833Z" fill="#FFDBC0"/>
<path d="M87.1668 62.978C87.1668 62.978 87.9991 65.1299 85.8004 67.2192C83.5835 69.3241 81.2083 68.6371 81.2083 68.6371C81.2083 68.6371 80.4848 66.3803 82.7016 64.2769C84.9004 62.1861 87.1668 62.978 87.1668 62.978Z" fill="#F2C8AD"/>
<path d="M70.2078 79.0789C70.2078 79.0789 73.9312 80.3794 77.5458 76.9473C81.1884 73.4886 80 69.7827 80 69.7827C80 69.7827 76.0953 68.6543 72.4544 72.113C68.8397 75.5435 70.2078 79.0789 70.2078 79.0789Z" fill="#FFDBC0"/>
<path d="M72.8334 76.5858C72.8334 76.5858 75.0997 77.3762 77.3001 75.2884C79.517 73.1835 78.7934 70.9283 78.7934 70.9283C78.7934 70.9283 76.4167 70.2412 74.2014 72.3462C72.001 74.4339 72.8334 76.5858 72.8334 76.5858Z" fill="#F2C8AD"/>
<path d="M89.7922 79.0789C89.7922 79.0789 86.0688 80.3794 82.4542 76.9473C78.8116 73.4886 80 69.7827 80 69.7827C80 69.7827 83.9047 68.6543 87.5457 72.113C91.1603 75.5435 89.7922 79.0789 89.7922 79.0789Z" fill="#FFDBC0"/>
<path d="M87.1667 76.5858C87.1667 76.5858 84.9003 77.3762 82.6999 75.2884C80.483 73.1835 81.2066 70.9283 81.2066 70.9283C81.2066 70.9283 83.5834 70.2412 85.7986 72.3462C87.9991 74.4339 87.1667 76.5858 87.1667 76.5858Z" fill="#F2C8AD"/>
<path d="M70.2077 60.4833C70.2077 60.4833 68.838 64.0187 72.4526 67.4508C76.0953 70.9095 79.9983 69.7811 79.9983 69.7811C79.9983 69.7811 81.1867 66.0736 77.5441 62.6164C73.9327 59.1843 70.2077 60.4833 70.2077 60.4833Z" fill="#FFDBC0"/>
<path d="M72.8333 62.978C72.8333 62.978 72.0009 65.1299 74.1996 67.2192C76.4165 69.3241 78.7917 68.6371 78.7917 68.6371C78.7917 68.6371 79.5152 66.3803 77.2984 64.2769C75.0996 62.1861 72.8333 62.978 72.8333 62.978Z" fill="#F2C8AD"/>
<path d="M80.0001 74.2523C82.6008 74.2523 84.7091 72.2505 84.7091 69.7811C84.7091 67.3117 82.6008 65.3098 80.0001 65.3098C77.3993 65.3098 75.291 67.3117 75.291 69.7811C75.291 72.2505 77.3993 74.2523 80.0001 74.2523Z" fill="#B73123"/>
<path d="M82.5343 69.9864C82.6532 68.6558 81.6135 67.4857 80.2121 67.3728C78.8108 67.26 77.5784 68.2472 77.4596 69.5777C77.3407 70.9083 78.3804 72.0785 79.7818 72.1913C81.1831 72.3042 82.4155 71.317 82.5343 69.9864Z" fill="#E04C38"/>
<path d="M158 2V8.97843L80 48.4874V2H158Z" fill="#364577"/>
<path d="M2 2V8.97843L80 48.4874V2H2Z" fill="#364577"/>
</g>
<defs>
<filter id="filter0_d_143_4072" x="0" y="0" width="164" height="105" filterUnits="userSpaceOnUse" color-interpolation-filters="sRGB">
<feFlood flood-opacity="0" result="BackgroundImageFix"/>
<feColorMatrix in="SourceAlpha" type="matrix" values="0 0 0 0 0 0 0 0 0 0 0 0 0 0 0 0 0 0 127 0" result="hardAlpha"/>
<feOffset dx="2" dy="2"/>
<feGaussianBlur stdDeviation="2"/>
<feComposite in2="hardAlpha" operator="out"/>
<feColorMatrix type="matrix" values="0 0 0 0 0 0 0 0 0 0 0 0 0 0 0 0 0 0 0.15 0"/>
<feBlend mode="normal" in2="BackgroundImageFix" result="effect1_dropShadow_143_4072"/>
<feBlend mode="normal" in="SourceGraphic" in2="effect1_dropShadow_143_4072" result="shape"/>
</filter>
</defs>
</svg>
