<svg width="600" height="640" viewBox="0 0 600 640" fill="none" xmlns="http://www.w3.org/2000/svg">
<path d="M0 0H600V640H0V0Z" fill="white"/>
<path d="M25.134 26.8096H16.365V17.4561H25.134V26.8096ZM17.9593 25.109H23.5396V19.1567H17.9593V25.109Z" fill="#D1A299"/>
<path d="M32.3085 34.4625H23.5396V25.1089H32.3085V34.4625ZM25.1339 32.7618H30.7142V26.8095H25.1339V32.7618Z" fill="#D1A299"/>
<path d="M39.4809 34.4625H30.7119V25.1089H39.4809V34.4625ZM32.3086 32.7618H37.8888V26.8095H32.3086V32.7618Z" fill="#D1A299"/>
<path d="M17.9593 70.3509H16.365V32.7617H25.134V41.2625H23.5396V34.4624H17.9593V70.3509Z" fill="#D1A299"/>
<path d="M25.1339 78.0454H23.5396V48.0654H32.3085V56.5687H30.7142V49.7661H25.1339V78.0454Z" fill="#D1A299"/>
<path d="M53.2037 34.4625H45.2319V25.1089H73.3382V26.8095H46.8263V32.7618H53.2037V34.4625Z" fill="#D1A299"/>
<path d="M38.6837 26.8096H30.7142V17.4561H65.9541V19.1567H32.3086V25.109H38.6837V26.8096Z" fill="#D1A299"/>
<path d="M32.3085 42.1128H23.5396V32.7593H32.3085V42.1128ZM25.1339 40.4122H30.7142V34.4599H25.1339V40.4122Z" fill="#D1A299"/>
<path d="M39.4809 42.1128H30.7119V32.7593H39.4809V42.1128ZM32.3086 40.4122H37.8888V34.4599H32.3086V40.4122Z" fill="#D1A299"/>
<path d="M46.6556 42.1128H37.8866V32.7593H46.6556V42.1128ZM39.481 40.4122H45.0612V34.4599H39.481V40.4122Z" fill="#D1A299"/>
<path d="M39.4809 49.7662H30.7119V40.4126H39.4809V49.7662ZM32.3086 48.0655H37.8888V42.1132H32.3086V48.0655Z" fill="#D1A299"/>
<path d="M46.6556 49.7662H37.8866V40.4126H46.6556V49.7662ZM39.481 48.0655H45.0612V42.1132H39.481V48.0655Z" fill="#D1A299"/>
<path d="M53.8301 34.4625H45.0612V25.1089H53.8301V34.4625ZM46.6555 32.7618H52.2358V26.8095H46.6555V32.7618Z" fill="#D1A299"/>
<path d="M32.3085 57.419H23.5396V48.0654H32.3085V57.419ZM25.1339 55.7183H30.7142V49.7661H25.1339V55.7183Z" fill="#D1A299"/>
<path d="M583.637 26.8096H574.868V17.4561H583.637V26.8096ZM576.463 25.109H582.043V19.1567H576.463V25.109Z" fill="#D1A299"/>
<path d="M576.463 34.4625H567.694V25.1089H576.463V34.4625ZM569.288 32.7618H574.868V26.8095H569.288V32.7618Z" fill="#D1A299"/>
<path d="M569.288 34.4625H560.519V25.1089H569.288V34.4625ZM562.113 32.7618H567.694V26.8095H562.113V32.7618Z" fill="#D1A299"/>
<path d="M583.637 70.3509H582.043V34.4624H576.463V41.2625H574.868V32.7617H583.637V70.3509Z" fill="#D1A299"/>
<path d="M576.463 78.0454H574.868V49.7661H569.288V56.5687H567.694V48.0654H576.463V78.0454Z" fill="#D1A299"/>
<path d="M554.768 34.4625H546.798V32.7618H553.174V26.8095H526.664V25.1089H554.768V34.4625Z" fill="#D1A299"/>
<path d="M569.288 26.8096H561.316V25.109H567.694V19.1567H534.048V17.4561H569.288V26.8096Z" fill="#D1A299"/>
<path d="M576.463 42.1128H567.694V32.7593H576.463V42.1128ZM569.288 40.4122H574.868V34.4599H569.288V40.4122Z" fill="#D1A299"/>
<path d="M569.288 42.1128H560.519V32.7593H569.288V42.1128ZM562.113 40.4122H567.694V34.4599H562.113V40.4122Z" fill="#D1A299"/>
<path d="M562.113 42.1128H553.344V32.7593H562.113V42.1128ZM554.939 40.4122H560.519V34.4599H554.939V40.4122Z" fill="#D1A299"/>
<path d="M569.288 49.7662H560.519V40.4126H569.288V49.7662ZM562.113 48.0655H567.694V42.1132H562.113V48.0655Z" fill="#D1A299"/>
<path d="M562.113 49.7662H553.344V40.4126H562.113V49.7662ZM554.939 48.0655H560.519V42.1132H554.939V48.0655Z" fill="#D1A299"/>
<path d="M554.939 34.4625H546.17V25.1089H554.939V34.4625ZM547.767 32.7618H553.347V26.8095H547.767V32.7618Z" fill="#D1A299"/>
<path d="M576.463 57.419H567.694V48.0654H576.463V57.419ZM569.288 55.7183H574.868V49.7661H569.288V55.7183Z" fill="#D1A299"/>
<path d="M25.134 622.547H16.365V613.193H25.134V622.547ZM17.9593 620.846H23.5396V614.894H17.9593V620.846Z" fill="#D1A299"/>
<path d="M32.3085 614.894H23.5396V605.54H32.3085V614.894ZM25.1339 613.193H30.7142V607.241H25.1339V613.193Z" fill="#D1A299"/>
<path d="M39.4809 614.894H30.7119V605.54H39.4809V614.894ZM32.3086 613.193H37.8888V607.241H32.3086V613.193Z" fill="#D1A299"/>
<path d="M25.134 607.241H16.365V569.652H17.9593V605.54H23.5396V598.738H25.134V607.241Z" fill="#D1A299"/>
<path d="M32.3085 591.935H23.5396V561.958H25.1339V590.234H30.7142V583.434H32.3085V591.935Z" fill="#D1A299"/>
<path d="M73.3382 614.894H45.2319V605.54H53.2037V607.241H46.8263V613.193H73.3382V614.894Z" fill="#D1A299"/>
<path d="M65.9541 622.547H30.7142V613.193H38.6837V614.894H32.3086V620.846H65.9541V622.547Z" fill="#D1A299"/>
<path d="M32.3085 607.241H23.5396V597.887H32.3085V607.241ZM25.1339 605.54H30.7142V599.588H25.1339V605.54Z" fill="#D1A299"/>
<path d="M39.4809 607.241H30.7119V597.887H39.4809V607.241ZM32.3086 605.54H37.8888V599.588H32.3086V605.54Z" fill="#D1A299"/>
<path d="M46.6556 607.241H37.8866V597.887H46.6556V607.241ZM39.481 605.54H45.0612V599.588H39.481V605.54Z" fill="#D1A299"/>
<path d="M39.4809 599.588H30.7119V590.234H39.4809V599.588ZM32.3086 597.887H37.8888V591.935H32.3086V597.887Z" fill="#D1A299"/>
<path d="M46.6556 599.588H37.8866V590.234H46.6556V599.588ZM39.481 597.887H45.0612V591.935H39.481V597.887Z" fill="#D1A299"/>
<path d="M53.8301 614.894H45.0612V605.54H53.8301V614.894ZM46.6555 613.193H52.2358V607.241H46.6555V613.193Z" fill="#D1A299"/>
<path d="M32.3085 591.935H23.5396V582.582H32.3085V591.935ZM25.1339 590.234H30.7142V584.282H25.1339V590.234Z" fill="#D1A299"/>
<path d="M583.637 622.547H574.868V613.193H583.637V622.547ZM576.463 620.846H582.043V614.894H576.463V620.846Z" fill="#D1A299"/>
<path d="M576.463 614.894H567.694V605.54H576.463V614.894ZM569.288 613.193H574.868V607.241H569.288V613.193Z" fill="#D1A299"/>
<path d="M569.288 614.894H560.519V605.54H569.288V614.894ZM562.113 613.193H567.694V607.241H562.113V613.193Z" fill="#D1A299"/>
<path d="M583.637 607.241H574.868V598.738H576.463V605.54H582.043V569.652H583.637V607.241Z" fill="#D1A299"/>
<path d="M576.463 591.935H567.694V583.434H569.288V590.234H574.868V561.958H576.463V591.935Z" fill="#D1A299"/>
<path d="M554.768 614.894H526.664V613.193H553.174V607.241H546.798V605.54H554.768V614.894Z" fill="#D1A299"/>
<path d="M569.288 622.547H534.048V620.846H567.694V614.894H561.316V613.193H569.288V622.547Z" fill="#D1A299"/>
<path d="M576.463 607.241H567.694V597.887H576.463V607.241ZM569.288 605.54H574.868V599.588H569.288V605.54Z" fill="#D1A299"/>
<path d="M569.288 607.241H560.519V597.887H569.288V607.241ZM562.113 605.54H567.694V599.588H562.113V605.54Z" fill="#D1A299"/>
<path d="M562.113 607.241H553.344V597.887H562.113V607.241ZM554.939 605.54H560.519V599.588H554.939V605.54Z" fill="#D1A299"/>
<path d="M569.288 599.588H560.519V590.234H569.288V599.588ZM562.113 597.887H567.694V591.935H562.113V597.887Z" fill="#D1A299"/>
<path d="M562.113 599.588H553.344V590.234H562.113V599.588ZM554.939 597.887H560.519V591.935H554.939V597.887Z" fill="#D1A299"/>
<path d="M554.939 614.894H546.17V605.54H554.939V614.894ZM547.767 613.193H553.347V607.241H547.767V613.193Z" fill="#D1A299"/>
<path d="M576.463 591.935H567.694V582.582H576.463V591.935ZM569.288 590.234H574.868V584.282H569.288V590.234Z" fill="#D1A299"/>
<path d="M600 640H0V0H600V640ZM1.59436 638.299H598.406V1.70065H1.59436V638.299Z" fill="#D1A299"/>
<path d="M23.3383 96L23.3612 97.3092H23.1383V96H23.3383Z" fill="#D1A299"/>
<path d="M23.4098 99.9302L23.4555 102.551H23.1355V99.9302H23.4098Z" fill="#D1A299"/>
<path d="M23.504 105.172L23.5497 107.793H23.1326V105.172H23.504Z" fill="#D1A299"/>
<path d="M23.5983 110.414L23.6355 113.034H23.1298L23.1326 110.414H23.5983Z" fill="#D1A299"/>
<path d="M23.6698 115.655L23.7041 118.274H23.127L23.1298 115.655H23.6698Z" fill="#D1A299"/>
<path d="M23.7423 120.895L23.7766 123.515H23.127V120.895H23.7423Z" fill="#D1A299"/>
<path d="M23.8109 126.136L23.8481 128.757H23.124V126.136H23.8109Z" fill="#D1A299"/>
<path d="M23.8825 131.378L23.9168 133.999H23.1212V131.378H23.8825Z" fill="#D1A299"/>
<path d="M23.954 136.62L23.9883 139.24H23.1183L23.1211 136.62H23.954Z" fill="#D1A299"/>
<path d="M24.0227 141.861L24.0599 144.482H23.1155L23.1183 141.861H24.0227Z" fill="#D1A299"/>
<path d="M24.0943 147.103L24.1286 149.724H23.1155V147.103H24.0943Z" fill="#D1A299"/>
<path d="M24.1659 152.345L24.1973 154.966H23.1127V152.345H24.1659Z" fill="#D1A299"/>
<path d="M24.2173 157.586L24.2402 160.205H23.1097V157.586H24.2173Z" fill="#D1A299"/>
<path d="M24.2603 162.826L24.2832 165.447H23.1069L23.1098 162.826H24.2603Z" fill="#D1A299"/>
<path d="M24.3031 168.067L24.326 170.688H23.104L23.1069 168.067H24.3031Z" fill="#D1A299"/>
<path d="M24.3461 173.309L24.369 175.93H23.104V173.309H24.3461Z" fill="#D1A299"/>
<path d="M24.3891 178.551L24.412 181.172H23.1012V178.551H24.3891Z" fill="#D1A299"/>
<path d="M24.432 183.792L24.4549 186.413H23.0984V183.792H24.432Z" fill="#D1A299"/>
<path d="M24.4749 189.034L24.4978 191.655H23.0955L23.0983 189.034H24.4749Z" fill="#D1A299"/>
<path d="M24.5179 194.276L24.5408 196.897H23.0927L23.0955 194.276H24.5179Z" fill="#D1A299"/>
<path d="M24.5608 199.516L24.5837 202.136H23.0927V199.516H24.5608Z" fill="#D1A299"/>
<path d="M24.6065 204.757L24.6266 207.378H23.0897V204.757H24.6065Z" fill="#D1A299"/>
<path d="M24.6495 209.999L24.6696 212.62H23.0869V209.999H24.6495Z" fill="#D1A299"/>
<path d="M24.6924 215.241L24.7124 217.862H23.084L23.0868 215.241H24.6924Z" fill="#D1A299"/>
<path d="M24.7354 220.482L24.7554 223.103H23.0812L23.084 220.482H24.7354Z" fill="#D1A299"/>
<path d="M24.7754 225.724L24.7869 228.345H23.0812V225.724H24.7754Z" fill="#D1A299"/>
<path d="M24.7984 230.966L24.8098 233.587H23.0784V230.966H24.7984Z" fill="#D1A299"/>
<path d="M24.8212 236.208L24.8327 238.826H23.0754V236.208H24.8212Z" fill="#D1A299"/>
<path d="M24.8442 241.447L24.8527 244.068H23.0726L23.0755 241.447H24.8442Z" fill="#D1A299"/>
<path d="M24.8641 246.688L24.8756 249.309H23.0697L23.0726 246.688H24.8641Z" fill="#D1A299"/>
<path d="M24.8871 251.93L24.8985 254.551H23.0669L23.0698 251.93H24.8871Z" fill="#D1A299"/>
<path d="M24.91 257.172L24.9214 259.793H23.0669V257.172H24.91Z" fill="#D1A299"/>
<path d="M24.9329 262.414L24.9415 265.034H23.0641V262.414H24.9329Z" fill="#D1A299"/>
<path d="M24.9529 267.655L24.9643 270.276H23.0612L23.064 267.655H24.9529Z" fill="#D1A299"/>
<path d="M24.9701 272.897L24.9758 275.518H23.0583L23.0612 272.897H24.9701Z" fill="#D1A299"/>
<path d="M24.9786 278.139L24.9815 280.757H23.0554L23.0583 278.139H24.9786Z" fill="#D1A299"/>
<path d="M24.9843 283.378L24.9901 285.999H23.0554V283.378H24.9843Z" fill="#D1A299"/>
<path d="M24.993 288.62L24.9959 291.24H23.0526V288.62H24.993Z" fill="#D1A299"/>
<path d="M25.0016 293.861L25.0045 296.482H23.0498V293.861H25.0016Z" fill="#D1A299"/>
<path d="M25.0073 299.103L25.0101 301.724H23.0469L23.0497 299.103H25.0073Z" fill="#D1A299"/>
<path d="M25.0159 304.345L25.0188 306.966H23.0441L23.0469 304.345H25.0159Z" fill="#D1A299"/>
<path d="M25.0216 309.586L25.0245 312.207H23.0441V309.586H25.0216Z" fill="#D1A299"/>
<path d="M25.0302 314.828L25.033 317.449H23.0411V314.828H25.0302Z" fill="#D1A299"/>
<path d="M25.0359 320.067L25.0417 322.688H23.0383V320.067H25.0359Z" fill="#D1A299"/>
<path d="M25.0388 325.309L25.0359 327.93H23.0412L23.0383 325.309H25.0388Z" fill="#D1A299"/>
<path d="M25.0302 330.551L25.0273 333.172H23.0411V330.551H25.0302Z" fill="#D1A299"/>
<path d="M25.0245 335.792L25.0216 338.413H23.0441V335.792H25.0245Z" fill="#D1A299"/>
<path d="M25.0159 341.034L25.013 343.655H23.0469V341.034H25.0159Z" fill="#D1A299"/>
<path d="M25.0101 346.276L25.0044 348.897H23.0497L23.0469 346.276H25.0101Z" fill="#D1A299"/>
<path d="M25.0016 351.518L24.9988 354.138H23.0527L23.0498 351.518H25.0016Z" fill="#D1A299"/>
<path d="M24.9959 356.759L24.9901 359.38H23.0526V356.759H24.9959Z" fill="#D1A299"/>
<path d="M24.9872 361.999L24.9843 364.62H23.0554V361.999H24.9872Z" fill="#D1A299"/>
<path d="M24.9816 367.241L24.9758 369.862H23.0583V367.241H24.9816Z" fill="#D1A299"/>
<path d="M24.973 372.482L24.9701 375.103H23.0612L23.0583 372.482H24.973Z" fill="#D1A299"/>
<path d="M24.9586 377.724L24.95 380.345H23.064L23.0612 377.724H24.9586Z" fill="#D1A299"/>
<path d="M24.9386 382.966L24.9272 385.587H23.0641V382.966H24.9386Z" fill="#D1A299"/>
<path d="M24.9157 388.208L24.9042 390.828H23.0669V388.208H24.9157Z" fill="#D1A299"/>
<path d="M24.8927 393.449L24.8842 396.07H23.0697V393.449H24.8927Z" fill="#D1A299"/>
<path d="M24.8727 398.691L24.8613 401.309H23.0726L23.0697 398.691H24.8727Z" fill="#D1A299"/>
<path d="M24.8499 403.93L24.8384 406.551H23.0755L23.0726 403.93H24.8499Z" fill="#D1A299"/>
<path d="M24.8269 409.172L24.8183 411.793H23.0754V409.172H24.8269Z" fill="#D1A299"/>
<path d="M24.807 414.414L24.7955 417.034H23.0784V414.414H24.807Z" fill="#D1A299"/>
<path d="M24.784 419.655L24.7697 422.276H23.0812V419.655H24.784Z" fill="#D1A299"/>
<path d="M24.7497 424.897L24.7268 427.518H23.084L23.0812 424.897H24.7497Z" fill="#D1A299"/>
<path d="M24.7067 430.139L24.6838 432.76H23.0868L23.084 430.139H24.7067Z" fill="#D1A299"/>
<path d="M24.6638 435.38L24.6438 438.001H23.0869V435.38H24.6638Z" fill="#D1A299"/>
<path d="M24.6208 440.622L24.6008 443.241H23.0897V440.622H24.6208Z" fill="#D1A299"/>
<path d="M24.578 445.861L24.558 448.482H23.0927V445.861H24.578Z" fill="#D1A299"/>
<path d="M24.5351 451.103L24.515 453.724H23.0955L23.0927 451.103H24.5351Z" fill="#D1A299"/>
<path d="M24.4921 456.345L24.472 458.966H23.0983L23.0955 456.345H24.4921Z" fill="#D1A299"/>
<path d="M24.4492 461.586L24.4292 464.207H23.0984V461.586H24.4492Z" fill="#D1A299"/>
<path d="M24.4062 466.828L24.3862 469.449H23.1012V466.828H24.4062Z" fill="#D1A299"/>
<path d="M24.3632 472.07L24.3432 474.691H23.104V472.07H24.3632Z" fill="#D1A299"/>
<path d="M24.3203 477.312L24.3003 479.932H23.1069L23.104 477.312H24.3203Z" fill="#D1A299"/>
<path d="M24.2775 482.553L24.2574 485.172H23.1098L23.1069 482.553H24.2775Z" fill="#D1A299"/>
<path d="M24.2345 487.792L24.2144 490.413H23.1097V487.792H24.2345Z" fill="#D1A299"/>
<path d="M24.1916 493.034L24.1601 495.655H23.1127V493.034H24.1916Z" fill="#D1A299"/>
<path d="M24.1257 498.276L24.0885 500.897H23.1155V498.276H24.1257Z" fill="#D1A299"/>
<path d="M24.0542 503.518L24.0198 506.138H23.1183L23.1155 503.518H24.0542Z" fill="#D1A299"/>
<path d="M23.9854 508.76L23.9482 511.381H23.1211L23.1183 508.76H23.9854Z" fill="#D1A299"/>
<path d="M23.914 514.001L23.8796 516.622H23.1212V514.001H23.914Z" fill="#D1A299"/>
<path d="M23.8452 519.243L23.808 521.864H23.124V519.243H23.8452Z" fill="#D1A299"/>
<path d="M23.7737 524.482L23.7394 527.103H23.127V524.482H23.7737Z" fill="#D1A299"/>
<path d="M23.7041 529.724L23.667 532.345H23.1298L23.127 529.724H23.7041Z" fill="#D1A299"/>
<path d="M23.6326 534.966L23.5955 537.587H23.1326L23.1298 534.966H23.6326Z" fill="#D1A299"/>
<path d="M23.5497 540.208L23.5011 542.828H23.1326V540.208H23.5497Z" fill="#D1A299"/>
<path d="M23.4555 545.449L23.4098 548.07H23.1355V545.449H23.4555Z" fill="#D1A299"/>
<path d="M23.3612 550.691L23.3383 552H23.1383V550.691H23.3612Z" fill="#D1A299"/>
<path d="M576.703 96L576.681 97.3092H576.903V96H576.703Z" fill="#D1A299"/>
<path d="M576.632 99.9302L576.586 102.551H576.906V99.9302H576.632Z" fill="#D1A299"/>
<path d="M576.538 105.172L576.492 107.793H576.909V105.172H576.538Z" fill="#D1A299"/>
<path d="M576.443 110.414L576.406 113.034H576.912L576.909 110.414H576.443Z" fill="#D1A299"/>
<path d="M576.372 115.655L576.338 118.274H576.915L576.912 115.655H576.372Z" fill="#D1A299"/>
<path d="M576.299 120.895L576.265 123.515H576.915V120.895H576.299Z" fill="#D1A299"/>
<path d="M576.231 126.136L576.194 128.757H576.918V126.136H576.231Z" fill="#D1A299"/>
<path d="M576.159 131.378L576.125 133.999H576.921V131.378H576.159Z" fill="#D1A299"/>
<path d="M576.088 136.62L576.053 139.24H576.923L576.921 136.62H576.088Z" fill="#D1A299"/>
<path d="M576.019 141.861L575.982 144.482H576.926L576.923 141.861H576.019Z" fill="#D1A299"/>
<path d="M575.947 147.103L575.913 149.724H576.926V147.103H575.947Z" fill="#D1A299"/>
<path d="M575.876 152.345L575.844 154.966H576.929V152.345H575.876Z" fill="#D1A299"/>
<path d="M575.824 157.586L575.802 160.205H576.932V157.586H575.824Z" fill="#D1A299"/>
<path d="M575.781 162.826L575.759 165.447H576.935L576.932 162.826H575.781Z" fill="#D1A299"/>
<path d="M575.739 168.067L575.716 170.688H576.938L576.935 168.067H575.739Z" fill="#D1A299"/>
<path d="M575.696 173.309L575.673 175.93H576.938V173.309H575.696Z" fill="#D1A299"/>
<path d="M575.653 178.551L575.63 181.172H576.941V178.551H575.653Z" fill="#D1A299"/>
<path d="M575.61 183.792L575.587 186.413H576.943V183.792H575.61Z" fill="#D1A299"/>
<path d="M575.567 189.034L575.544 191.655H576.946L576.943 189.034H575.567Z" fill="#D1A299"/>
<path d="M575.524 194.276L575.501 196.897H576.949L576.946 194.276H575.524Z" fill="#D1A299"/>
<path d="M575.481 199.516L575.458 202.136H576.949V199.516H575.481Z" fill="#D1A299"/>
<path d="M575.435 204.757L575.415 207.378H576.952V204.757H575.435Z" fill="#D1A299"/>
<path d="M575.392 209.999L575.372 212.62H576.955V209.999H575.392Z" fill="#D1A299"/>
<path d="M575.349 215.241L575.329 217.862H576.958L576.955 215.241H575.349Z" fill="#D1A299"/>
<path d="M575.306 220.482L575.286 223.103H576.961L576.958 220.482H575.306Z" fill="#D1A299"/>
<path d="M575.266 225.724L575.255 228.345H576.961V225.724H575.266Z" fill="#D1A299"/>
<path d="M575.243 230.966L575.232 233.587H576.963V230.966H575.243Z" fill="#D1A299"/>
<path d="M575.221 236.208L575.209 238.826H576.966V236.208H575.221Z" fill="#D1A299"/>
<path d="M575.198 241.447L575.189 244.068H576.969L576.966 241.447H575.198Z" fill="#D1A299"/>
<path d="M575.178 246.688L575.166 249.309H576.972L576.969 246.688H575.178Z" fill="#D1A299"/>
<path d="M575.155 251.93L575.143 254.551H576.975L576.972 251.93H575.155Z" fill="#D1A299"/>
<path d="M575.132 257.172L575.12 259.793H576.975V257.172H575.132Z" fill="#D1A299"/>
<path d="M575.109 262.414L575.1 265.034H576.978V262.414H575.109Z" fill="#D1A299"/>
<path d="M575.089 267.655L575.077 270.276H576.981L576.978 267.655H575.089Z" fill="#D1A299"/>
<path d="M575.072 272.897L575.066 275.518H576.983L576.981 272.897H575.072Z" fill="#D1A299"/>
<path d="M575.063 278.139L575.06 280.757H576.986L576.983 278.139H575.063Z" fill="#D1A299"/>
<path d="M575.057 283.378L575.052 285.999H576.986V283.378H575.057Z" fill="#D1A299"/>
<path d="M575.049 288.62L575.046 291.24H576.989V288.62H575.049Z" fill="#D1A299"/>
<path d="M575.04 293.861L575.037 296.482H576.992V293.861H575.04Z" fill="#D1A299"/>
<path d="M575.034 299.103L575.032 301.724H576.995L576.992 299.103H575.034Z" fill="#D1A299"/>
<path d="M575.026 304.345L575.023 306.966H576.998L576.995 304.345H575.026Z" fill="#D1A299"/>
<path d="M575.02 309.586L575.017 312.207H576.998V309.586H575.02Z" fill="#D1A299"/>
<path d="M575.012 314.828L575.009 317.449H577.001V314.828H575.012Z" fill="#D1A299"/>
<path d="M575.006 320.067L575 322.688H577.003V320.067H575.006Z" fill="#D1A299"/>
<path d="M575.003 325.309L575.006 327.93H577.001L577.003 325.309H575.003Z" fill="#D1A299"/>
<path d="M575.012 330.551L575.014 333.172H577.001V330.551H575.012Z" fill="#D1A299"/>
<path d="M575.017 335.792L575.02 338.413H576.998V335.792H575.017Z" fill="#D1A299"/>
<path d="M575.026 341.034L575.029 343.655H576.995V341.034H575.026Z" fill="#D1A299"/>
<path d="M575.032 346.276L575.037 348.897H576.992L576.995 346.276H575.032Z" fill="#D1A299"/>
<path d="M575.04 351.518L575.043 354.138H576.989L576.992 351.518H575.04Z" fill="#D1A299"/>
<path d="M575.046 356.759L575.052 359.38H576.989V356.759H575.046Z" fill="#D1A299"/>
<path d="M575.055 361.999L575.057 364.62H576.986V361.999H575.055Z" fill="#D1A299"/>
<path d="M575.06 367.241L575.066 369.862H576.983V367.241H575.06Z" fill="#D1A299"/>
<path d="M575.069 372.482L575.072 375.103H576.981L576.983 372.482H575.069Z" fill="#D1A299"/>
<path d="M575.083 377.724L575.092 380.345H576.978L576.981 377.724H575.083Z" fill="#D1A299"/>
<path d="M575.103 382.966L575.115 385.587H576.978V382.966H575.103Z" fill="#D1A299"/>
<path d="M575.126 388.208L575.138 390.828H576.975V388.208H575.126Z" fill="#D1A299"/>
<path d="M575.149 393.449L575.158 396.07H576.972V393.449H575.149Z" fill="#D1A299"/>
<path d="M575.169 398.691L575.18 401.309H576.969L576.972 398.691H575.169Z" fill="#D1A299"/>
<path d="M575.192 403.93L575.203 406.551H576.966L576.969 403.93H575.192Z" fill="#D1A299"/>
<path d="M575.215 409.172L575.223 411.793H576.966V409.172H575.215Z" fill="#D1A299"/>
<path d="M575.235 414.414L575.246 417.034H576.963V414.414H575.235Z" fill="#D1A299"/>
<path d="M575.258 419.655L575.272 422.276H576.961V419.655H575.258Z" fill="#D1A299"/>
<path d="M575.292 424.897L575.315 427.518H576.958L576.961 424.897H575.292Z" fill="#D1A299"/>
<path d="M575.335 430.139L575.358 432.76H576.955L576.958 430.139H575.335Z" fill="#D1A299"/>
<path d="M575.378 435.38L575.398 438.001H576.955V435.38H575.378Z" fill="#D1A299"/>
<path d="M575.421 440.622L575.441 443.241H576.952V440.622H575.421Z" fill="#D1A299"/>
<path d="M575.464 445.861L575.484 448.482H576.949V445.861H575.464Z" fill="#D1A299"/>
<path d="M575.507 451.103L575.527 453.724H576.946L576.949 451.103H575.507Z" fill="#D1A299"/>
<path d="M575.55 456.345L575.57 458.966H576.943L576.946 456.345H575.55Z" fill="#D1A299"/>
<path d="M575.593 461.586L575.613 464.207H576.943V461.586H575.593Z" fill="#D1A299"/>
<path d="M575.636 466.828L575.656 469.449H576.941V466.828H575.636Z" fill="#D1A299"/>
<path d="M575.679 472.07L575.699 474.691H576.938V472.07H575.679Z" fill="#D1A299"/>
<path d="M575.721 477.312L575.741 479.932H576.935L576.938 477.312H575.721Z" fill="#D1A299"/>
<path d="M575.764 482.553L575.784 485.172H576.932L576.935 482.553H575.764Z" fill="#D1A299"/>
<path d="M575.807 487.792L575.827 490.413H576.932V487.792H575.807Z" fill="#D1A299"/>
<path d="M575.85 493.034L575.882 495.655H576.929V493.034H575.85Z" fill="#D1A299"/>
<path d="M575.916 498.276L575.953 500.897H576.926V498.276H575.916Z" fill="#D1A299"/>
<path d="M575.988 503.518L576.022 506.138H576.923L576.926 503.518H575.988Z" fill="#D1A299"/>
<path d="M576.056 508.76L576.094 511.381H576.921L576.923 508.76H576.056Z" fill="#D1A299"/>
<path d="M576.128 514.001L576.162 516.622H576.921V514.001H576.128Z" fill="#D1A299"/>
<path d="M576.197 519.243L576.234 521.864H576.918V519.243H576.197Z" fill="#D1A299"/>
<path d="M576.268 524.482L576.302 527.103H576.915V524.482H576.268Z" fill="#D1A299"/>
<path d="M576.338 529.724L576.375 532.345H576.912L576.915 529.724H576.338Z" fill="#D1A299"/>
<path d="M576.409 534.966L576.446 537.587H576.909L576.912 534.966H576.409Z" fill="#D1A299"/>
<path d="M576.492 540.208L576.541 542.828H576.909V540.208H576.492Z" fill="#D1A299"/>
<path d="M576.586 545.449L576.632 548.07H576.906V545.449H576.586Z" fill="#D1A299"/>
<path d="M576.681 550.691L576.703 552H576.903V550.691H576.681Z" fill="#D1A299"/>
</svg>
