<svg width="226" height="242" viewBox="0 0 226 242" fill="none" xmlns="http://www.w3.org/2000/svg">
<rect x="1" y="1" width="225" height="240" fill="white"/>
<path d="M10.3963 11.0384H7.10791V7.53082H10.3963V11.0384ZM7.70579 10.4007H9.79839V8.16857H7.70579V10.4007Z" fill="#D1A299"/>
<path d="M13.0872 13.9086H9.79883V10.401H13.0872V13.9086ZM10.3967 13.2708H12.4893V11.0387H10.3967V13.2708Z" fill="#D1A299"/>
<path d="M15.7771 13.9086H12.4888V10.401H15.7771V13.9086ZM13.0875 13.2708H15.1801V11.0387H13.0875V13.2708Z" fill="#D1A299"/>
<path d="M7.70587 27.3691H7.10791V13.2712H10.3967V16.4595H9.79875V13.9091H7.70587V27.3691Z" fill="#D1A299"/>
<path d="M10.3968 30.2548H9.79883V19.0107H13.0876V22.1999H12.4897V19.6486H10.3968V30.2548Z" fill="#D1A299"/>
<path d="M20.9239 13.9091H17.9341V10.401H28.4753V11.0388H18.532V13.2712H20.9239V13.9091Z" fill="#D1A299"/>
<path d="M15.4782 11.0389H12.4893V7.53082H25.706V8.16865H13.0872V10.4011H15.4782V11.0389Z" fill="#D1A299"/>
<path d="M13.0872 16.778H9.79883V13.2704H13.0872V16.778ZM10.3967 16.1402H12.4893V13.9081H10.3967V16.1402Z" fill="#D1A299"/>
<path d="M15.7771 16.778H12.4888V13.2704H15.7771V16.778ZM13.0875 16.1402H15.1801V13.9081H13.0875V16.1402Z" fill="#D1A299"/>
<path d="M18.4676 16.778H15.1792V13.2704H18.4676V16.778ZM15.7771 16.1402H17.8697V13.9081H15.7771V16.1402Z" fill="#D1A299"/>
<path d="M15.7771 19.6482H12.4888V16.1406H15.7771V19.6482ZM13.0875 19.0104H15.1801V16.7783H13.0875V19.0104Z" fill="#D1A299"/>
<path d="M18.4676 19.6482H15.1792V16.1406H18.4676V19.6482ZM15.7771 19.0104H17.8697V16.7783H15.7771V19.0104Z" fill="#D1A299"/>
<path d="M21.158 13.9086H17.8696V10.401H21.158V13.9086ZM18.4675 13.2708H20.5601V11.0387H18.4675V13.2708Z" fill="#D1A299"/>
<path d="M13.0872 22.5183H9.79883V19.0107H13.0872V22.5183ZM10.3967 21.8806H12.4893V19.6485H10.3967V21.8806Z" fill="#D1A299"/>
<path d="M219.863 11.0384H216.575V7.53082H219.863V11.0384ZM217.173 10.4007H219.265V8.16857H217.173V10.4007Z" fill="#D1A299"/>
<path d="M217.173 13.9086H213.884V10.401H217.173V13.9086ZM214.482 13.2708H216.575V11.0387H214.482V13.2708Z" fill="#D1A299"/>
<path d="M214.482 13.9086H211.193V10.401H214.482V13.9086ZM211.791 13.2708H213.884V11.0387H211.791V13.2708Z" fill="#D1A299"/>
<path d="M219.864 27.3691H219.266V13.9091H217.173V16.4595H216.575V13.2712H219.864V27.3691Z" fill="#D1A299"/>
<path d="M217.173 30.2548H216.575V19.6486H214.482V22.1999H213.884V19.0107H217.173V30.2548Z" fill="#D1A299"/>
<path d="M209.036 13.9091H206.047V13.2712H208.438V11.0388H198.495V10.401H209.036V13.9091Z" fill="#D1A299"/>
<path d="M214.482 11.0389H211.493V10.4011H213.884V8.16865H201.266V7.53082H214.482V11.0389Z" fill="#D1A299"/>
<path d="M217.173 16.778H213.884V13.2704H217.173V16.778ZM214.482 16.1402H216.575V13.9081H214.482V16.1402Z" fill="#D1A299"/>
<path d="M214.482 16.778H211.193V13.2704H214.482V16.778ZM211.791 16.1402H213.884V13.9081H211.791V16.1402Z" fill="#D1A299"/>
<path d="M211.79 16.778H208.502V13.2704H211.79V16.778ZM209.1 16.1402H211.192V13.9081H209.1V16.1402Z" fill="#D1A299"/>
<path d="M214.482 19.6482H211.193V16.1406H214.482V19.6482ZM211.791 19.0104H213.884V16.7783H211.791V19.0104Z" fill="#D1A299"/>
<path d="M211.79 19.6482H208.502V16.1406H211.79V19.6482ZM209.1 19.0104H211.192V16.7783H209.1V19.0104Z" fill="#D1A299"/>
<path d="M209.099 13.9086H205.811V10.401H209.099V13.9086ZM206.41 13.2708H208.502V11.0387H206.41V13.2708Z" fill="#D1A299"/>
<path d="M217.173 22.5183H213.884V19.0107H217.173V22.5183ZM214.482 21.8806H216.575V19.6485H214.482V21.8806Z" fill="#D1A299"/>
<path d="M10.3963 234.47H7.10791V230.962H10.3963V234.47ZM7.70579 233.832H9.79839V231.6H7.70579V233.832Z" fill="#D1A299"/>
<path d="M13.0872 231.6H9.79883V228.092H13.0872V231.6ZM10.3967 230.962H12.4893V228.73H10.3967V230.962Z" fill="#D1A299"/>
<path d="M15.7771 231.6H12.4888V228.092H15.7771V231.6ZM13.0875 230.962H15.1801V228.73H13.0875V230.962Z" fill="#D1A299"/>
<path d="M10.3967 228.73H7.10791V214.632H7.70587V228.092H9.79875V225.541H10.3967V228.73Z" fill="#D1A299"/>
<path d="M13.0871 222.989H9.79834V211.746H10.3963V222.351H12.4892V219.801H13.0871V222.989Z" fill="#D1A299"/>
<path d="M28.4753 231.6H17.9341V228.092H20.9239V228.73H18.532V230.962H28.4753V231.6Z" fill="#D1A299"/>
<path d="M25.706 234.47H12.4893V230.962H15.4782V231.6H13.0872V233.832H25.706V234.47Z" fill="#D1A299"/>
<path d="M13.0872 228.729H9.79883V225.222H13.0872V228.729ZM10.3967 228.092H12.4893V225.859H10.3967V228.092Z" fill="#D1A299"/>
<path d="M15.7771 228.729H12.4888V225.222H15.7771V228.729ZM13.0875 228.092H15.1801V225.859H13.0875V228.092Z" fill="#D1A299"/>
<path d="M18.4676 228.729H15.1792V225.222H18.4676V228.729ZM15.7771 228.092H17.8697V225.859H15.7771V228.092Z" fill="#D1A299"/>
<path d="M15.7771 225.859H12.4888V222.352H15.7771V225.859ZM13.0875 225.221H15.1801V222.989H13.0875V225.221Z" fill="#D1A299"/>
<path d="M18.4676 225.859H15.1792V222.352H18.4676V225.859ZM15.7771 225.221H17.8697V222.989H15.7771V225.221Z" fill="#D1A299"/>
<path d="M21.158 231.6H17.8696V228.092H21.158V231.6ZM18.4675 230.962H20.5601V228.73H18.4675V230.962Z" fill="#D1A299"/>
<path d="M13.0872 222.989H9.79883V219.481H13.0872V222.989ZM10.3967 222.351H12.4893V220.119H10.3967V222.351Z" fill="#D1A299"/>
<path d="M219.863 234.47H216.575V230.962H219.863V234.47ZM217.173 233.832H219.265V231.6H217.173V233.832Z" fill="#D1A299"/>
<path d="M217.173 231.6H213.884V228.092H217.173V231.6ZM214.482 230.962H216.575V228.73H214.482V230.962Z" fill="#D1A299"/>
<path d="M214.482 231.6H211.193V228.092H214.482V231.6ZM211.791 230.962H213.884V228.73H211.791V230.962Z" fill="#D1A299"/>
<path d="M219.864 228.73H216.575V225.541H217.173V228.092H219.266V214.632H219.864V228.73Z" fill="#D1A299"/>
<path d="M217.173 222.989H213.884V219.801H214.482V222.351H216.575V211.746H217.173V222.989Z" fill="#D1A299"/>
<path d="M209.036 231.6H198.495V230.962H208.438V228.73H206.047V228.092H209.036V231.6Z" fill="#D1A299"/>
<path d="M214.482 234.47H201.266V233.832H213.884V231.6H211.493V230.962H214.482V234.47Z" fill="#D1A299"/>
<path d="M217.173 228.729H213.884V225.222H217.173V228.729ZM214.482 228.092H216.575V225.859H214.482V228.092Z" fill="#D1A299"/>
<path d="M214.482 228.729H211.193V225.222H214.482V228.729ZM211.791 228.092H213.884V225.859H211.791V228.092Z" fill="#D1A299"/>
<path d="M211.79 228.729H208.502V225.222H211.79V228.729ZM209.1 228.092H211.192V225.859H209.1V228.092Z" fill="#D1A299"/>
<path d="M214.482 225.859H211.193V222.352H214.482V225.859ZM211.791 225.221H213.884V222.989H211.791V225.221Z" fill="#D1A299"/>
<path d="M211.79 225.859H208.502V222.352H211.79V225.859ZM209.1 225.221H211.192V222.989H209.1V225.221Z" fill="#D1A299"/>
<path d="M209.099 231.6H205.811V228.092H209.099V231.6ZM206.41 230.962H208.502V228.73H206.41V230.962Z" fill="#D1A299"/>
<path d="M217.173 222.989H213.884V219.481H217.173V222.989ZM214.482 222.351H216.575V220.119H214.482V222.351Z" fill="#D1A299"/>
<path d="M226 241.016H0.969727V0.983826H226V241.016ZM1.56769 240.378H225.402V1.62165H1.56769V240.378Z" fill="#D1A299"/>
<path d="M9.72197 36.9886L9.73054 37.4796H9.64697V36.9886H9.72197Z" fill="#D1A299"/>
<path d="M9.74934 38.4625L9.76648 39.4453H9.64648V38.4625H9.74934Z" fill="#D1A299"/>
<path d="M9.78479 40.4286L9.80194 41.4114H9.64551V40.4286H9.78479Z" fill="#D1A299"/>
<path d="M9.82025 42.3945L9.83417 43.3774H9.64453L9.6456 42.3945H9.82025Z" fill="#D1A299"/>
<path d="M9.84713 44.3604L9.85998 45.3423H9.64355L9.64463 44.3604H9.84713Z" fill="#D1A299"/>
<path d="M9.8743 46.3253L9.88717 47.3081H9.64355V46.3253H9.8743Z" fill="#D1A299"/>
<path d="M9.90015 48.2913L9.9141 49.2741H9.64258V48.2913H9.90015Z" fill="#D1A299"/>
<path d="M9.92708 50.2573L9.93996 51.2401H9.6416V50.2573H9.92708Z" fill="#D1A299"/>
<path d="M9.954 52.2231L9.96688 53.206H9.64062L9.6417 52.2231H9.954Z" fill="#D1A299"/>
<path d="M9.97986 54.1891L9.99381 55.1719H9.63965L9.64072 54.1891H9.97986Z" fill="#D1A299"/>
<path d="M10.0067 56.155L10.0196 57.1378H9.63965V56.155H10.0067Z" fill="#D1A299"/>
<path d="M10.0336 58.1208L10.0454 59.1036H9.63867V58.1208H10.0336Z" fill="#D1A299"/>
<path d="M10.0521 60.0868L10.0606 61.0687H9.63672V60.0868H10.0521Z" fill="#D1A299"/>
<path d="M10.0682 62.0518L10.0768 63.0346H9.63574L9.63682 62.0518H10.0682Z" fill="#D1A299"/>
<path d="M10.0844 64.0177L10.093 65.0005H9.63477L9.63584 64.0177H10.0844Z" fill="#D1A299"/>
<path d="M10.1005 65.9836L10.1091 66.9664H9.63477V65.9836H10.1005Z" fill="#D1A299"/>
<path d="M10.1167 67.9495L10.1253 68.9323H9.63379V67.9495H10.1167Z" fill="#D1A299"/>
<path d="M10.1329 69.9154L10.1415 70.8982H9.63281V69.9154H10.1329Z" fill="#D1A299"/>
<path d="M10.1491 71.8813L10.1577 72.8641H9.63184L9.63291 71.8813H10.1491Z" fill="#D1A299"/>
<path d="M10.1653 73.8473L10.1739 74.8301H9.63086L9.63193 73.8473H10.1653Z" fill="#D1A299"/>
<path d="M10.1814 75.8122L10.19 76.795H9.63086V75.8122H10.1814Z" fill="#D1A299"/>
<path d="M10.1987 77.7781L10.2062 78.7609H9.62988V77.7781H10.1987Z" fill="#D1A299"/>
<path d="M10.2149 79.744L10.2224 80.7268H9.62891V79.744H10.2149Z" fill="#D1A299"/>
<path d="M10.2311 81.71L10.2386 82.6928H9.62793L9.629 81.71H10.2311Z" fill="#D1A299"/>
<path d="M10.2473 83.6758L10.2548 84.6587H9.62695L9.62803 83.6758H10.2473Z" fill="#D1A299"/>
<path d="M10.2623 85.6417L10.2666 86.6245H9.62695V85.6417H10.2623Z" fill="#D1A299"/>
<path d="M10.271 87.6077L10.2753 88.5905H9.62598V87.6077H10.271Z" fill="#D1A299"/>
<path d="M10.2787 89.5735L10.283 90.5555H9.62402V89.5735H10.2787Z" fill="#D1A299"/>
<path d="M10.2874 91.5386L10.2906 92.5215H9.62305L9.62412 91.5386H10.2874Z" fill="#D1A299"/>
<path d="M10.295 93.5045L10.2993 94.4873H9.62207L9.62314 93.5045H10.295Z" fill="#D1A299"/>
<path d="M10.3037 95.4703L10.308 96.4532H9.62109L9.62217 95.4703H10.3037Z" fill="#D1A299"/>
<path d="M10.3122 97.4362L10.3165 98.419H9.62109V97.4362H10.3122Z" fill="#D1A299"/>
<path d="M10.3209 99.4022L10.3241 100.385H9.62012V99.4022H10.3209Z" fill="#D1A299"/>
<path d="M10.3285 101.368L10.3328 102.351H9.61914L9.62021 101.368H10.3285Z" fill="#D1A299"/>
<path d="M10.3351 103.334L10.3372 104.317H9.61816L9.61924 103.334H10.3351Z" fill="#D1A299"/>
<path d="M10.3384 105.3L10.3395 106.282H9.61719L9.61826 105.3H10.3384Z" fill="#D1A299"/>
<path d="M10.3405 107.265L10.3427 108.248H9.61719V107.265H10.3405Z" fill="#D1A299"/>
<path d="M10.3434 109.231L10.3444 110.214H9.61572V109.231H10.3434Z" fill="#D1A299"/>
<path d="M10.3467 111.197L10.3478 112.179H9.61475V111.197H10.3467Z" fill="#D1A299"/>
<path d="M10.3494 113.163L10.3505 114.145H9.61426L9.61533 113.163H10.3494Z" fill="#D1A299"/>
<path d="M10.3527 115.129L10.3538 116.111H9.61328L9.61435 115.129H10.3527Z" fill="#D1A299"/>
<path d="M10.3549 117.094L10.3559 118.077H9.61328V117.094H10.3549Z" fill="#D1A299"/>
<path d="M10.3582 119.06L10.3593 120.043H9.6123V119.06H10.3582Z" fill="#D1A299"/>
<path d="M10.359 121.025L10.3611 122.008H9.60986V121.025H10.359Z" fill="#D1A299"/>
<path d="M10.36 122.991L10.359 123.974H9.61094L9.60986 122.991H10.36Z" fill="#D1A299"/>
<path d="M10.3582 124.957L10.3571 125.94H9.6123V124.957H10.3582Z" fill="#D1A299"/>
<path d="M10.3559 126.923L10.3549 127.906H9.61328V126.923H10.3559Z" fill="#D1A299"/>
<path d="M10.3526 128.889L10.3516 129.872H9.61426V128.889H10.3526Z" fill="#D1A299"/>
<path d="M10.3505 130.855L10.3483 131.838H9.61533L9.61426 130.855H10.3505Z" fill="#D1A299"/>
<path d="M10.3467 132.821L10.3456 133.804H9.61582L9.61475 132.821H10.3467Z" fill="#D1A299"/>
<path d="M10.3444 134.787L10.3423 135.769H9.61572V134.787H10.3444Z" fill="#D1A299"/>
<path d="M10.3416 136.752L10.3405 137.734H9.61719V136.752H10.3416Z" fill="#D1A299"/>
<path d="M10.3394 138.718L10.3372 139.7H9.61816V138.718H10.3394Z" fill="#D1A299"/>
<path d="M10.3361 140.684L10.3351 141.666H9.61924L9.61816 140.684H10.3361Z" fill="#D1A299"/>
<path d="M10.3307 142.649L10.3275 143.632H9.62021L9.61914 142.649H10.3307Z" fill="#D1A299"/>
<path d="M10.3231 144.615L10.3188 145.598H9.62012V144.615H10.3231Z" fill="#D1A299"/>
<path d="M10.3144 146.581L10.3101 147.564H9.62109V146.581H10.3144Z" fill="#D1A299"/>
<path d="M10.3057 148.547L10.3025 149.53H9.62207V148.547H10.3057Z" fill="#D1A299"/>
<path d="M10.2982 150.513L10.2939 151.495H9.62314L9.62207 150.513H10.2982Z" fill="#D1A299"/>
<path d="M10.2895 152.478L10.2852 153.461H9.62412L9.62305 152.478H10.2895Z" fill="#D1A299"/>
<path d="M10.2808 154.444L10.2776 155.427H9.62402V154.444H10.2808Z" fill="#D1A299"/>
<path d="M10.2742 156.41L10.2699 157.393H9.62598V156.41H10.2742Z" fill="#D1A299"/>
<path d="M10.2655 158.376L10.2602 159.359H9.62695V158.376H10.2655Z" fill="#D1A299"/>
<path d="M10.2526 160.342L10.2441 161.324H9.62803L9.62695 160.342H10.2526Z" fill="#D1A299"/>
<path d="M10.2364 162.308L10.2279 163.29H9.629L9.62793 162.308H10.2364Z" fill="#D1A299"/>
<path d="M10.2202 164.274L10.2127 165.256H9.62891V164.274H10.2202Z" fill="#D1A299"/>
<path d="M10.2041 166.239L10.1965 167.221H9.62988V166.239H10.2041Z" fill="#D1A299"/>
<path d="M10.1879 168.204L10.1803 169.187H9.63086V168.204H10.1879Z" fill="#D1A299"/>
<path d="M10.1718 170.17L10.1642 171.153H9.63193L9.63086 170.17H10.1718Z" fill="#D1A299"/>
<path d="M10.1556 172.136L10.1481 173.119H9.63291L9.63184 172.136H10.1556Z" fill="#D1A299"/>
<path d="M10.1394 174.102L10.1319 175.085H9.63281V174.102H10.1394Z" fill="#D1A299"/>
<path d="M10.1232 176.068L10.1157 177.051H9.63379V176.068H10.1232Z" fill="#D1A299"/>
<path d="M10.107 178.034L10.0995 179.017H9.63477V178.034H10.107Z" fill="#D1A299"/>
<path d="M10.0909 180L10.0834 180.983H9.63584L9.63477 180H10.0909Z" fill="#D1A299"/>
<path d="M10.0747 181.966L10.0672 182.948H9.63682L9.63574 181.966H10.0747Z" fill="#D1A299"/>
<path d="M10.0585 183.931L10.051 184.914H9.63672V183.931H10.0585Z" fill="#D1A299"/>
<path d="M10.0433 185.897L10.0315 186.879H9.63867V185.897H10.0433Z" fill="#D1A299"/>
<path d="M10.0185 187.863L10.0045 188.845H9.63965V187.863H10.0185Z" fill="#D1A299"/>
<path d="M9.99166 189.828L9.97879 190.811H9.64072L9.63965 189.828H9.99166Z" fill="#D1A299"/>
<path d="M9.96581 191.794L9.95186 192.777H9.6417L9.64062 191.794H9.96581Z" fill="#D1A299"/>
<path d="M9.93888 193.76L9.926 194.743H9.6416V193.76H9.93888Z" fill="#D1A299"/>
<path d="M9.91303 195.726L9.89908 196.709H9.64258V195.726H9.91303Z" fill="#D1A299"/>
<path d="M9.8861 197.691L9.87322 198.674H9.64355V197.691H9.8861Z" fill="#D1A299"/>
<path d="M9.85998 199.657L9.84605 200.64H9.64463L9.64355 199.657H9.85998Z" fill="#D1A299"/>
<path d="M9.8331 201.623L9.81917 202.606H9.6456L9.64453 201.623H9.8331Z" fill="#D1A299"/>
<path d="M9.80194 203.589L9.78372 204.572H9.64551V203.589H9.80194Z" fill="#D1A299"/>
<path d="M9.76648 205.555L9.74934 206.538H9.64648V205.555H9.76648Z" fill="#D1A299"/>
<path d="M9.73103 207.521L9.72246 208.012H9.64746V207.521H9.73103Z" fill="#D1A299"/>
<path d="M217.262 36.9886L217.254 37.4796H217.337V36.9886H217.262Z" fill="#D1A299"/>
<path d="M217.236 38.4626L217.218 39.4455H217.338V38.4626H217.236Z" fill="#D1A299"/>
<path d="M217.2 40.4286L217.183 41.4114H217.339V40.4286H217.2Z" fill="#D1A299"/>
<path d="M217.165 42.3945L217.151 43.3774H217.34L217.339 42.3945H217.165Z" fill="#D1A299"/>
<path d="M217.138 44.3604L217.125 45.3423H217.341L217.34 44.3604H217.138Z" fill="#D1A299"/>
<path d="M217.111 46.3253L217.098 47.3081H217.341V46.3253H217.111Z" fill="#D1A299"/>
<path d="M217.085 48.2913L217.071 49.2741H217.342V48.2913H217.085Z" fill="#D1A299"/>
<path d="M217.058 50.2573L217.045 51.2401H217.343V50.2573H217.058Z" fill="#D1A299"/>
<path d="M217.031 52.2231L217.018 53.206H217.344L217.343 52.2231H217.031Z" fill="#D1A299"/>
<path d="M217.006 54.1891L216.992 55.1719H217.346L217.345 54.1891H217.006Z" fill="#D1A299"/>
<path d="M216.979 56.155L216.966 57.1378H217.346V56.155H216.979Z" fill="#D1A299"/>
<path d="M216.952 58.1208L216.94 59.1036H217.347V58.1208H216.952Z" fill="#D1A299"/>
<path d="M216.933 60.0868L216.924 61.0687H217.348V60.0868H216.933Z" fill="#D1A299"/>
<path d="M216.917 62.0518L216.908 63.0346H217.349L217.348 62.0518H216.917Z" fill="#D1A299"/>
<path d="M216.9 64.0177L216.892 65.0005H217.35L217.349 64.0177H216.9Z" fill="#D1A299"/>
<path d="M216.884 65.9836L216.876 66.9664H217.35V65.9836H216.884Z" fill="#D1A299"/>
<path d="M216.868 67.9495L216.86 68.9323H217.351V67.9495H216.868Z" fill="#D1A299"/>
<path d="M216.852 69.9154L216.843 70.8982H217.352V69.9154H216.852Z" fill="#D1A299"/>
<path d="M216.836 71.8813L216.827 72.8641H217.353L217.352 71.8813H216.836Z" fill="#D1A299"/>
<path d="M216.82 73.8473L216.811 74.8301H217.354L217.353 73.8473H216.82Z" fill="#D1A299"/>
<path d="M216.803 75.8122L216.795 76.795H217.354V75.8122H216.803Z" fill="#D1A299"/>
<path d="M216.786 77.7781L216.779 78.7609H217.355V77.7781H216.786Z" fill="#D1A299"/>
<path d="M216.77 79.744L216.762 80.7268H217.356V79.744H216.77Z" fill="#D1A299"/>
<path d="M216.754 81.71L216.746 82.6928H217.357L217.356 81.71H216.754Z" fill="#D1A299"/>
<path d="M216.739 83.6758L216.731 84.6587H217.359L217.358 83.6758H216.739Z" fill="#D1A299"/>
<path d="M216.724 85.6417L216.719 86.6245H217.359V85.6417H216.724Z" fill="#D1A299"/>
<path d="M216.715 87.6077L216.711 88.5905H217.36V87.6077H216.715Z" fill="#D1A299"/>
<path d="M216.706 89.5735L216.702 90.5555H217.361V89.5735H216.706Z" fill="#D1A299"/>
<path d="M216.697 91.5386L216.694 92.5215H217.362L217.361 91.5386H216.697Z" fill="#D1A299"/>
<path d="M216.69 93.5045L216.686 94.4873H217.363L217.362 93.5045H216.69Z" fill="#D1A299"/>
<path d="M216.681 95.4703L216.677 96.4532H217.364L217.363 95.4703H216.681Z" fill="#D1A299"/>
<path d="M216.673 97.4362L216.668 98.419H217.364V97.4362H216.673Z" fill="#D1A299"/>
<path d="M216.664 99.4022L216.661 100.385H217.365V99.4022H216.664Z" fill="#D1A299"/>
<path d="M216.656 101.368L216.652 102.351H217.366L217.365 101.368H216.656Z" fill="#D1A299"/>
<path d="M216.65 103.334L216.648 104.317H217.367L217.366 103.334H216.65Z" fill="#D1A299"/>
<path d="M216.647 105.3L216.646 106.282H217.368L217.367 105.3H216.647Z" fill="#D1A299"/>
<path d="M216.645 107.265L216.643 108.248H217.368V107.265H216.645Z" fill="#D1A299"/>
<path d="M216.641 109.231L216.64 110.214H217.369V109.231H216.641Z" fill="#D1A299"/>
<path d="M216.638 111.197L216.637 112.179H217.37V111.197H216.638Z" fill="#D1A299"/>
<path d="M216.636 113.163L216.635 114.145H217.372L217.371 113.163H216.636Z" fill="#D1A299"/>
<path d="M216.634 115.129L216.633 116.111H217.373L217.372 115.129H216.634Z" fill="#D1A299"/>
<path d="M216.631 117.094L216.63 118.077H217.373V117.094H216.631Z" fill="#D1A299"/>
<path d="M216.628 119.06L216.627 120.043H217.374V119.06H216.628Z" fill="#D1A299"/>
<path d="M216.626 121.025L216.624 122.008H217.375V121.025H216.626Z" fill="#D1A299"/>
<path d="M216.625 122.991L216.626 123.974H217.374L217.375 122.991H216.625Z" fill="#D1A299"/>
<path d="M216.628 124.957L216.629 125.94H217.374V124.957H216.628Z" fill="#D1A299"/>
<path d="M216.63 126.923L216.631 127.906H217.373V126.923H216.63Z" fill="#D1A299"/>
<path d="M216.633 128.889L216.634 129.872H217.372V128.889H216.633Z" fill="#D1A299"/>
<path d="M216.635 130.855L216.638 131.838H217.371L217.372 130.855H216.635Z" fill="#D1A299"/>
<path d="M216.638 132.821L216.639 133.804H217.369L217.37 132.821H216.638Z" fill="#D1A299"/>
<path d="M216.64 134.787L216.643 135.769H217.369V134.787H216.64Z" fill="#D1A299"/>
<path d="M216.644 136.752L216.645 137.734H217.368V136.752H216.644Z" fill="#D1A299"/>
<path d="M216.645 138.718L216.648 139.7H217.367V138.718H216.645Z" fill="#D1A299"/>
<path d="M216.649 140.684L216.65 141.666H217.366L217.367 140.684H216.649Z" fill="#D1A299"/>
<path d="M216.654 142.649L216.657 143.632H217.365L217.366 142.649H216.654Z" fill="#D1A299"/>
<path d="M216.662 144.615L216.666 145.598H217.365V144.615H216.662Z" fill="#D1A299"/>
<path d="M216.67 146.581L216.675 147.564H217.364V146.581H216.67Z" fill="#D1A299"/>
<path d="M216.68 148.547L216.683 149.53H217.363V148.547H216.68Z" fill="#D1A299"/>
<path d="M216.687 150.513L216.691 151.495H217.362L217.363 150.513H216.687Z" fill="#D1A299"/>
<path d="M216.695 152.478L216.7 153.461H217.361L217.362 152.478H216.695Z" fill="#D1A299"/>
<path d="M216.704 154.444L216.707 155.427H217.361V154.444H216.704Z" fill="#D1A299"/>
<path d="M216.712 156.41L216.716 157.393H217.36V156.41H216.712Z" fill="#D1A299"/>
<path d="M216.72 158.376L216.726 159.359H217.359V158.376H216.72Z" fill="#D1A299"/>
<path d="M216.733 160.342L216.742 161.324H217.358L217.359 160.342H216.733Z" fill="#D1A299"/>
<path d="M216.748 162.308L216.757 163.29H217.356L217.357 162.308H216.748Z" fill="#D1A299"/>
<path d="M216.765 164.274L216.772 165.256H217.356V164.274H216.765Z" fill="#D1A299"/>
<path d="M216.781 166.239L216.788 167.221H217.355V166.239H216.781Z" fill="#D1A299"/>
<path d="M216.797 168.204L216.805 169.187H217.354V168.204H216.797Z" fill="#D1A299"/>
<path d="M216.813 170.17L216.821 171.153H217.353L217.354 170.17H216.813Z" fill="#D1A299"/>
<path d="M216.829 172.136L216.837 173.119H217.352L217.353 172.136H216.829Z" fill="#D1A299"/>
<path d="M216.845 174.102L216.853 175.085H217.352V174.102H216.845Z" fill="#D1A299"/>
<path d="M216.862 176.068L216.869 177.051H217.351V176.068H216.862Z" fill="#D1A299"/>
<path d="M216.878 178.034L216.885 179.017H217.35V178.034H216.878Z" fill="#D1A299"/>
<path d="M216.894 180L216.901 180.983H217.349L217.35 180H216.894Z" fill="#D1A299"/>
<path d="M216.91 181.966L216.918 182.948H217.348L217.349 181.966H216.91Z" fill="#D1A299"/>
<path d="M216.926 183.931L216.934 184.914H217.348V183.931H216.926Z" fill="#D1A299"/>
<path d="M216.943 185.897L216.954 186.879H217.347V185.897H216.943Z" fill="#D1A299"/>
<path d="M216.967 187.863L216.981 188.845H217.346V187.863H216.967Z" fill="#D1A299"/>
<path d="M216.994 189.828L217.007 190.811H217.345L217.346 189.828H216.994Z" fill="#D1A299"/>
<path d="M217.019 191.794L217.033 192.777H217.343L217.344 191.794H217.019Z" fill="#D1A299"/>
<path d="M217.046 193.76L217.059 194.743H217.343V193.76H217.046Z" fill="#D1A299"/>
<path d="M217.072 195.726L217.086 196.709H217.342V195.726H217.072Z" fill="#D1A299"/>
<path d="M217.099 197.691L217.112 198.674H217.341V197.691H217.099Z" fill="#D1A299"/>
<path d="M217.125 199.657L217.139 200.64H217.34L217.341 199.657H217.125Z" fill="#D1A299"/>
<path d="M217.152 201.623L217.166 202.606H217.339L217.34 201.623H217.152Z" fill="#D1A299"/>
<path d="M217.183 203.589L217.201 204.572H217.339V203.589H217.183Z" fill="#D1A299"/>
<path d="M217.218 205.555L217.236 206.538H217.338V205.555H217.218Z" fill="#D1A299"/>
<path d="M217.254 207.521L217.262 208.012H217.337V207.521H217.254Z" fill="#D1A299"/>
</svg>
