<svg width="164" height="105" viewBox="0 0 164 105" fill="none" xmlns="http://www.w3.org/2000/svg">
<g filter="url(#filter0_d_148_14925)">
<path d="M158 99H2V3.00348L80 43.4622L158 3.00348V99Z" fill="#EDB2BF"/>
<path d="M80.412 42.3975H79.5879V57.2159H80.412V42.3975Z" fill="#FFDBC0"/>
<path d="M79.6944 62.6802L74.1875 67.927L74.7702 68.4822L80.2771 63.2354L79.6944 62.6802Z" fill="#FFDBC0"/>
<path d="M82.2006 63.7877L75.3511 70.3138L75.9338 70.869L82.7833 64.3429L82.2006 63.7877Z" fill="#FFDBC0"/>
<path d="M84.036 65.5382L77.1865 72.0642L77.7693 72.6195L84.6188 66.0934L84.036 65.5382Z" fill="#FFDBC0"/>
<path d="M85.209 67.9245L79.7021 73.1721L80.285 73.7273L85.7918 68.4797L85.209 67.9245Z" fill="#FFDBC0"/>
<path d="M80.2761 62.6795L79.6934 63.2347L85.2527 68.5315L85.8354 67.9763L80.2761 62.6795Z" fill="#FFDBC0"/>
<path d="M77.7683 63.788L77.1855 64.3432L84.035 70.8693L84.6178 70.3141L77.7683 63.788Z" fill="#FFDBC0"/>
<path d="M75.9343 65.5366L75.3516 66.0919L82.2011 72.6179L82.7838 72.0627L75.9343 65.5366Z" fill="#FFDBC0"/>
<path d="M74.7702 67.9271L74.1875 68.4823L79.6944 73.7292L80.2771 73.1739L74.7702 67.9271Z" fill="#FFDBC0"/>
<path d="M89.0424 70.0917C87.9233 70.0917 86.631 69.7305 85.4525 68.8134C85.1987 68.6359 85.1394 68.4255 85.1328 68.2795C85.1212 67.9795 85.3322 67.7644 85.4163 67.6921C85.5399 67.5681 86.3228 66.8127 87.5013 66.3777C88.6106 65.9678 90.1583 65.7417 91.1736 66.3416C91.7241 66.6666 92.0488 67.2021 92.1148 67.8884C92.184 68.6155 91.7538 69.2704 90.9363 69.6818C90.4319 69.9378 89.7742 70.0917 89.0424 70.0917ZM86.0129 68.2355C87.6595 69.495 89.5155 69.5122 90.5522 68.9893C90.8522 68.8385 91.3467 68.504 91.2939 67.9591C91.2527 67.5162 91.0714 67.2053 90.7401 67.009C90.0297 66.5897 88.7523 66.7577 87.8013 67.1095C86.7711 67.4911 86.0756 68.1742 86.0129 68.2355Z" fill="#FFDBC0"/>
<path d="M70.9578 70.0917C70.226 70.0917 69.5684 69.9378 69.064 69.6834C68.2465 69.272 67.8179 68.6171 67.8871 67.89C67.9514 67.2037 68.2778 66.6698 68.8283 66.3431C69.8436 65.7432 71.3913 65.9678 72.5006 66.3793C73.6791 66.8158 74.462 67.5696 74.5856 67.6937C74.6697 67.7659 74.8807 67.9811 74.8691 68.281C74.8642 68.4271 74.8032 68.6375 74.5494 68.815C73.3692 69.7305 72.077 70.0917 70.9578 70.0917ZM70.3793 66.7624C69.9507 66.7624 69.5568 66.8347 69.2601 67.0106C68.9288 67.2069 68.7475 67.5178 68.7063 67.9607C68.6552 68.504 69.1497 68.8385 69.448 68.9909C70.4848 69.5138 72.3391 69.4965 73.9873 68.2371C73.9296 68.179 73.2324 67.4927 72.199 67.1111C71.6451 66.9053 70.9793 66.7624 70.3793 66.7624Z" fill="#FFDBC0"/>
<path d="M80.1797 79.7828C79.4792 79.7828 78.8578 79.3776 78.4556 78.6537C77.7798 77.4366 77.7765 75.2851 79.3671 73.4289C79.5533 73.187 79.7742 73.1305 79.9275 73.1242C80.244 73.1132 80.4681 73.3142 80.5439 73.3943C80.6742 73.5121 81.467 74.2581 81.9235 75.3809C82.3537 76.4378 82.5911 77.9124 81.9598 78.8798C81.6186 79.4043 81.0565 79.7137 80.3363 79.7765C80.2852 79.7796 80.2324 79.7828 80.1797 79.7828ZM79.9736 73.9612C78.6518 75.5301 78.6336 77.2984 79.1825 78.2862C79.3407 78.572 79.6934 79.0415 80.2637 78.9929C80.7285 78.9536 81.0549 78.7809 81.2609 78.4652C81.701 77.7899 81.5246 76.5713 81.1554 75.6651C80.7549 74.6836 80.0396 74.0209 79.9736 73.9612Z" fill="#FFDBC0"/>
<path d="M79.9127 63.2966C79.9044 63.2966 79.8962 63.2966 79.8879 63.2966C79.7347 63.2919 79.5138 63.2337 79.3275 62.9919C77.737 61.1357 77.7403 58.9842 78.4161 57.7671C78.8479 56.9882 79.5319 56.5783 80.2984 56.6458C81.0186 56.7071 81.5791 57.018 81.9219 57.5426C82.5515 58.5099 82.3158 59.983 81.884 61.0414C81.4258 62.1643 80.6346 62.9102 80.5044 63.028C80.4319 63.1034 80.2159 63.2966 79.9127 63.2966ZM80.1434 57.4248C79.6209 57.4248 79.2946 57.8645 79.1446 58.1362C78.5957 59.124 78.6139 60.8907 79.9357 62.4611C79.9967 62.4061 80.717 61.7418 81.1175 60.7572C81.4867 59.8511 81.6631 58.6324 81.223 57.9571C81.017 57.6415 80.6923 57.4687 80.2258 57.4295C80.1978 57.4248 80.1714 57.4248 80.1434 57.4248Z" fill="#FFDBC0"/>
<path d="M82.5515 64.4382C82.4691 64.4382 82.3768 64.4241 82.2862 64.3817C82.1889 64.3362 82.0159 64.2231 81.9532 63.964C81.4785 62.3402 82.123 60.9472 82.9257 60.341C83.4531 59.9406 84.0663 59.8573 84.5657 60.118C85.0354 60.363 85.3189 60.7336 85.3882 61.1906C85.5118 62.0025 84.9201 62.8992 84.3267 63.4693C83.7086 64.0613 82.9867 64.3314 82.8532 64.3786C82.7971 64.4005 82.685 64.4382 82.5515 64.4382ZM83.946 60.754C83.7432 60.754 83.552 60.8702 83.4383 60.9566C82.8515 61.401 82.4296 62.4328 82.7032 63.5886C82.9207 63.496 83.3608 63.2808 83.7432 62.9165C84.2097 62.4689 84.6481 61.7968 84.5723 61.3037C84.541 61.0917 84.4124 60.9346 84.1685 60.8074C84.0959 60.7697 84.0201 60.754 83.946 60.754Z" fill="#FFDBC0"/>
<path d="M84.7966 66.2929C84.6829 66.2929 84.6021 66.2882 84.5658 66.2851C84.4653 66.2835 84.2164 66.2584 84.0466 66.0652C83.9774 65.9851 83.8686 65.8139 83.9247 65.5548C84.195 63.8886 85.385 62.8741 86.3789 62.6354C87.0333 62.4784 87.6283 62.6433 87.9695 63.0783C88.2909 63.4866 88.3898 63.9357 88.2546 64.3786C88.0156 65.1669 87.0893 65.7511 86.3014 66.0369C85.6965 66.2552 85.1164 66.2929 84.7966 66.2929ZM84.7719 65.5077C85.0142 65.5093 85.5037 65.4873 86.0097 65.3036C86.6278 65.079 87.3184 64.6393 87.4635 64.1603C87.5261 63.9546 87.4767 63.7614 87.3102 63.5494C87.1223 63.3107 86.7712 63.3515 86.58 63.3971C85.8531 63.5729 85.0224 64.3456 84.7719 65.5077Z" fill="#FFDBC0"/>
<path d="M77.5344 64.4382C77.4009 64.4382 77.2888 64.4006 77.2328 64.377C77.0993 64.3299 76.3774 64.0613 75.7593 63.4677C75.1659 62.8992 74.5758 62.0025 74.6978 61.189C74.767 60.7321 75.0522 60.3614 75.5203 60.1165C76.0197 59.8558 76.6328 59.939 77.1603 60.3395C77.963 60.9472 78.6074 62.3386 78.1327 63.9624C78.0701 64.2215 77.8987 64.3346 77.7998 64.3801C77.7091 64.4241 77.6185 64.4382 77.5344 64.4382ZM77.5707 63.6625C77.5723 63.6625 77.5723 63.6625 77.5707 63.6625V63.6625ZM76.1417 60.754C76.0675 60.754 75.9917 60.7697 75.9175 60.809C75.6735 60.9362 75.5466 61.0933 75.5137 61.3053C75.4395 61.7984 75.8763 62.4705 76.3427 62.9181C76.7235 63.284 77.1636 63.4976 77.3828 63.5902C77.6564 62.4344 77.2344 61.4026 76.6477 60.9582C76.5356 60.8703 76.3444 60.754 76.1417 60.754Z" fill="#FFDBC0"/>
<path d="M75.2893 66.2929C74.9695 66.2929 74.3894 66.2568 73.7844 66.0369C72.9982 65.7527 72.0719 65.1669 71.8313 64.3785C71.6961 63.9357 71.795 63.4866 72.1164 63.0782C72.4576 62.6448 73.0526 62.4799 73.707 62.6354C74.7009 62.8741 75.8909 63.8886 76.1612 65.5548C76.2156 65.8155 76.1085 65.9867 76.0393 66.0652C75.8695 66.2583 75.6206 66.2819 75.5201 66.285C75.4838 66.2882 75.403 66.2929 75.2893 66.2929ZM73.2273 63.3625C73.0658 63.3625 72.8911 63.4049 72.7757 63.5494C72.6092 63.7614 72.5614 63.9545 72.6224 64.1603C72.7675 64.6392 73.4581 65.079 74.0762 65.3035C74.5806 65.4857 75.08 65.5092 75.314 65.5077C75.0635 64.3471 74.2311 63.5729 73.5042 63.3986C73.4301 63.3798 73.3312 63.3625 73.2273 63.3625Z" fill="#FFDBC0"/>
<path d="M83.8801 76.43C83.5373 76.43 83.1796 76.3044 82.8549 76.0578C82.0522 75.45 81.4077 74.0587 81.8824 72.4348C81.9451 72.1757 82.1165 72.0627 82.2154 72.0171C82.4527 71.9088 82.6917 71.9841 82.7824 72.0218C82.9159 72.0689 83.6378 72.3375 84.2559 72.9311C84.8493 73.4996 85.4393 74.3963 85.3174 75.2098C85.2481 75.6668 84.9646 76.0374 84.4949 76.2824C84.3037 76.3797 84.0944 76.43 83.8801 76.43ZM82.634 72.8102C82.3604 73.966 82.7824 74.9978 83.3691 75.4422C83.5241 75.56 83.8241 75.7343 84.101 75.5914C84.3433 75.4642 84.4718 75.3071 84.5048 75.0951C84.579 74.602 84.1422 73.9299 83.6757 73.4823C83.2917 73.118 82.8532 72.9028 82.634 72.8102Z" fill="#FFDBC0"/>
<path d="M86.7841 73.8199C86.6325 73.8199 86.4726 73.801 86.3095 73.7618C85.3156 73.5231 84.1255 72.5086 83.8552 70.8424C83.8008 70.5817 83.908 70.4105 83.9772 70.332C84.1469 70.1388 84.3958 70.1153 84.4964 70.1121C84.6381 70.1011 85.4128 70.0635 86.232 70.3603C87.0182 70.6445 87.9445 71.2303 88.1852 72.0186C88.3203 72.4615 88.2214 72.9106 87.9 73.3189C87.6445 73.6456 87.244 73.8199 86.7841 73.8199ZM84.7024 70.8926C84.9529 72.0532 85.7853 72.8274 86.5122 73.0017C86.7034 73.0472 87.0545 73.0896 87.2424 72.8494C87.4088 72.6374 87.4566 72.4442 87.3956 72.2385C87.2506 71.7595 86.56 71.3198 85.9419 71.0952C85.4359 70.913 84.9464 70.8895 84.7024 70.8926Z" fill="#FFDBC0"/>
<path d="M76.0671 76.4299C75.8528 76.4299 75.6435 76.3813 75.4523 76.2808C74.9825 76.0358 74.699 75.6652 74.6298 75.2082C74.5062 74.3963 75.0979 73.4995 75.6913 72.9295C76.3094 72.3374 77.0313 72.0673 77.1648 72.0202C77.2571 71.9825 77.4945 71.9071 77.7318 72.0155C77.829 72.061 78.0021 72.1741 78.0647 72.4332C78.5394 74.057 77.895 75.45 77.0923 76.0562C76.7676 76.3027 76.4099 76.4299 76.0671 76.4299ZM77.3131 72.8101C77.0956 72.9028 76.6555 73.1179 76.2731 73.4823C75.8066 73.9298 75.3682 74.602 75.444 75.0951C75.4753 75.3071 75.6039 75.4641 75.8479 75.5913C76.1231 75.7358 76.4247 75.5599 76.5797 75.4422C77.1665 74.9977 77.5884 73.966 77.3131 72.8101Z" fill="#FFDBC0"/>
<path d="M73.163 73.8199C72.7031 73.8199 72.3026 73.6456 72.0471 73.3189C71.7257 72.9106 71.6268 72.4615 71.7619 72.0186C72.0009 71.2303 72.9273 70.6461 73.7151 70.3603C74.5343 70.0635 75.309 70.1011 75.4507 70.1121C75.5496 70.1137 75.8001 70.1388 75.9699 70.332C76.0391 70.4121 76.1463 70.5833 76.0919 70.8424C75.8216 72.5086 74.6315 73.5231 73.6376 73.7618C73.4745 73.801 73.3162 73.8199 73.163 73.8199ZM75.2216 70.8911C74.9744 70.8911 74.4964 70.9178 74.0069 71.0952C73.3888 71.3198 72.6981 71.7595 72.5531 72.2385C72.4905 72.4442 72.5399 72.6374 72.7064 72.8494C72.8943 73.0881 73.2454 73.0472 73.4366 73.0017C74.1634 72.8274 74.9942 72.0532 75.2463 70.8926C75.2381 70.8911 75.2299 70.8911 75.2216 70.8911Z" fill="#FFDBC0"/>
<path d="M80.0002 55.0722C81.2446 55.0722 82.2534 54.1111 82.2534 52.9254C82.2534 51.7398 81.2446 50.7787 80.0002 50.7787C78.7558 50.7787 77.7471 51.7398 77.7471 52.9254C77.7471 54.1111 78.7558 55.0722 80.0002 55.0722Z" fill="#928CE6"/>
<path d="M158 2V9.00249L80 48.6477V2H158Z" fill="#E0A2B2"/>
<path d="M2 2V9.00249L80 48.6477V2H2Z" fill="#E0A2B2"/>
</g>
<defs>
<filter id="filter0_d_148_14925" x="0" y="0" width="164" height="105" filterUnits="userSpaceOnUse" color-interpolation-filters="sRGB">
<feFlood flood-opacity="0" result="BackgroundImageFix"/>
<feColorMatrix in="SourceAlpha" type="matrix" values="0 0 0 0 0 0 0 0 0 0 0 0 0 0 0 0 0 0 127 0" result="hardAlpha"/>
<feOffset dx="2" dy="2"/>
<feGaussianBlur stdDeviation="2"/>
<feComposite in2="hardAlpha" operator="out"/>
<feColorMatrix type="matrix" values="0 0 0 0 0 0 0 0 0 0 0 0 0 0 0 0 0 0 0.15 0"/>
<feBlend mode="normal" in2="BackgroundImageFix" result="effect1_dropShadow_148_14925"/>
<feBlend mode="normal" in="SourceGraphic" in2="effect1_dropShadow_148_14925" result="shape"/>
</filter>
</defs>
</svg>
