<svg width="302" height="186" viewBox="0 0 302 186" fill="none" xmlns="http://www.w3.org/2000/svg">
<path d="M135.223 121.546H114.591H93.655C93.655 121.546 71.4803 133.001 73.8444 161.287C75.1734 177.188 83.8389 181.562 94.4238 184.295C102.433 186.364 114.591 185.97 114.591 185.97C114.591 185.97 126.747 186.364 134.759 184.295C145.344 181.562 154.009 177.185 155.338 161.287C157.7 133.001 135.223 121.546 135.223 121.546Z" fill="#EF5553"/>
<path d="M137.719 107.29C137.644 107.304 137.57 107.32 137.496 107.34C130.404 109.236 131.596 107.023 125.332 107.351C122.309 107.509 121.444 108.821 119.569 109.034C119.385 109.056 119.201 109.05 119.02 109.026C113.056 108.23 109.561 104.219 102.562 107.124C100.599 108.047 98.5202 109.039 96.4087 108.173C96.2879 108.124 96.1616 108.083 96.0353 108.056C94.5389 107.73 93.188 106.87 91.7272 106.43C89.6459 105.736 87.183 107.558 87.1885 109.897C87.1885 110.452 87.3477 110.99 87.6086 111.46C89.5965 115.018 91.7794 118.48 94.0062 121.869C94.5251 122.659 95.3516 123.126 96.2275 123.126L134.363 123.123C134.479 123.123 143.413 111.25 140.711 107.815C139.921 106.807 138.688 107.121 137.719 107.29Z" fill="#EF5553"/>
<path d="M105.66 113.901C105.509 113.253 105.41 112.597 105.38 111.922C105.366 111.616 105.366 111.299 105.235 111.023C105.034 110.602 104.559 110.384 104.109 110.381C103.658 110.376 103.227 110.545 102.81 110.723C101.643 111.22 100.504 111.794 99.4053 112.439C99.8803 113.554 100.63 114.354 101.275 115.335C101.923 116.319 102.481 117.39 103.17 118.36C104.18 119.784 105.515 120.986 106.703 122.246C106.959 122.516 107.225 122.795 107.557 122.948C107.89 123.101 108.312 123.104 108.587 122.853C109.037 122.44 108.845 121.672 108.601 121.098C107.585 118.718 106.242 116.398 105.66 113.901Z" fill="#E34D4A"/>
<path d="M125.779 112.056C125.411 112.338 125.178 112.726 124.977 113.116C123.827 115.346 119.129 121.566 118.805 124.205C122.025 123.443 124.692 121.743 126.825 119.707C128.958 117.672 130.606 115.3 132.242 112.939C132.698 112.283 129.524 111.734 129.23 111.693C127.997 111.518 126.68 111.365 125.779 112.056Z" fill="#E34D4A"/>
<path d="M112.632 120.945C112.248 118.888 111.861 116.827 111.476 114.769C111.35 114.097 111.218 113.411 110.889 112.821C110.557 112.231 109.98 111.747 109.329 111.734C109.041 111.728 108.739 111.824 108.541 112.045C108.363 112.245 108.289 112.526 108.269 112.799C108.215 113.578 108.561 114.319 108.898 115.015C109.489 116.231 110.082 117.45 110.672 118.666L110.598 118.314C110.941 119.415 111.386 120.47 112.004 121.434C112.083 121.557 112.182 121.691 112.325 121.705C112.63 121.732 112.693 121.259 112.632 120.945Z" fill="#E34D4A"/>
<path d="M129.91 127.946C129.913 127.607 129.946 127.268 130.014 126.935C130.308 125.533 131.011 125.047 132.118 124.746C133.32 124.418 134.361 123.806 135.426 123.068C135.662 122.904 135.92 122.694 135.942 122.385C135.964 122.093 135.753 121.828 135.506 121.724C135.259 121.623 134.987 121.645 134.726 121.672C130.948 122.076 127.249 123.721 123.499 123.713C116.398 123.697 109.298 123.68 102.197 123.661C99.4925 123.194 96.5655 122.262 93.861 122.202C93.839 122.541 94.0477 122.852 94.3058 123.027C94.5639 123.202 94.8687 123.268 95.1624 123.336C95.9175 123.514 96.6726 123.749 97.3371 124.189C101.134 126.705 97.7901 131.22 96.4804 133.955C95.9862 134.991 95.621 136.434 96.409 137.21C96.939 137.734 97.7874 137.65 98.386 137.231C98.9873 136.813 99.3964 136.133 99.789 135.474C100.783 133.805 101.777 132.135 102.771 130.466C103.326 129.531 103.897 128.583 104.682 127.886C105.835 126.867 109.792 125.131 110.824 126.883C111.222 127.558 111.264 128.416 111.247 129.222C111.225 130.165 111.14 131.105 110.989 132.031C110.89 132.646 110.775 133.34 111.102 133.846C111.2 134.001 111.335 134.124 111.48 134.226C112.381 134.854 113.721 134.466 114.24 133.425C114.633 132.635 114.561 131.654 114.836 130.802C115.16 129.791 115.994 129.012 116.939 128.84C117.884 128.667 118.897 129.113 119.487 129.957C119.871 130.506 120.077 131.192 120.484 131.72C120.89 132.247 121.637 132.572 122.126 132.141C123.013 131.359 122.683 129.017 123.644 128.566C124.119 128.345 124.685 128.558 125.069 128.943C125.454 129.329 125.692 129.859 125.923 130.375C127.087 132.971 128.249 135.567 129.413 138.163C129.759 138.937 130.119 139.729 130.682 140.319C131.244 140.91 132.068 141.267 132.801 141.002C133.452 138.666 132.225 136.264 131.346 134.023C130.854 132.769 130.465 131.468 130.179 130.135C130.025 129.424 129.902 128.681 129.91 127.946Z" fill="#E34D4A"/>
<path d="M155.326 161.42C153.961 177.212 145.312 181.571 134.757 184.295C126.748 186.364 114.593 185.97 114.593 185.97C114.593 185.97 102.437 186.364 94.4251 184.295C83.8704 181.571 75.224 177.209 73.8594 161.42C86.3416 164.104 100.114 165.59 114.59 165.59C129.068 165.59 142.844 164.101 155.326 161.42Z" fill="#F8AE9B"/>
<mask id="mask0_301_2" style="mask-type:luminance" maskUnits="userSpaceOnUse" x="73" y="161" width="83" height="25">
<path d="M155.328 161.42C153.963 177.212 145.314 181.571 134.759 184.295C126.75 186.364 114.595 185.97 114.595 185.97C114.595 185.97 102.439 186.364 94.427 184.295C83.8723 181.571 75.226 177.209 73.8613 161.42C86.3435 164.104 100.116 165.59 114.592 165.59C129.07 165.59 142.846 164.101 155.328 161.42Z" fill="white"/>
</mask>
<g mask="url(#mask0_301_2)">
<path d="M103.532 175.586C103.389 171.687 102.475 167.746 100.462 164.563C99.2539 162.653 97.686 161.062 96.0304 159.636C85.72 150.761 72.1148 148.197 59.1219 148.331C54.0341 148.383 48.8583 148.826 44.1191 150.9L65.0747 167.574C66.8622 173.938 69.2812 180.081 72.2713 185.85C74.111 189.402 76.4559 193.058 79.9759 194.192C81.1786 194.58 82.4416 194.641 83.6909 194.673C87.6009 194.775 91.5163 194.619 95.4098 194.209C96.9612 194.045 98.5976 193.802 99.8305 192.731C101.316 191.435 101.882 189.238 102.302 187.183C103.081 183.374 103.675 179.486 103.532 175.586Z" fill="#B93E42"/>
</g>
<mask id="mask1_301_2" style="mask-type:luminance" maskUnits="userSpaceOnUse" x="73" y="161" width="83" height="25">
<path d="M155.328 161.42C153.963 177.212 145.314 181.571 134.759 184.295C126.75 186.364 114.595 185.97 114.595 185.97C114.595 185.97 102.439 186.364 94.427 184.295C83.8723 181.571 75.226 177.209 73.8613 161.42C86.3435 164.104 100.116 165.59 114.592 165.59C129.07 165.59 142.846 164.101 155.328 161.42Z" fill="white"/>
</mask>
<g mask="url(#mask1_301_2)">
<path d="M113.389 176.215C110.725 168.842 108.905 161.21 107.09 153.602C100.81 152.698 94.5501 151.269 88.3777 149.331L84.1025 154.477C85.3134 165.686 88.5836 176.824 93.6468 186.987C93.8774 187.451 94.1273 187.932 94.5144 188.246C94.9208 188.574 95.4205 188.678 95.8983 188.763C102.938 190.02 109.998 189.815 117.005 189.607C116.881 185.025 114.973 180.595 113.389 176.215Z" fill="#63AA88"/>
</g>
<mask id="mask2_301_2" style="mask-type:luminance" maskUnits="userSpaceOnUse" x="73" y="161" width="83" height="25">
<path d="M155.328 161.42C153.963 177.212 145.314 181.571 134.759 184.295C126.75 186.364 114.595 185.97 114.595 185.97C114.595 185.97 102.439 186.364 94.427 184.295C83.8723 181.571 75.226 177.209 73.8613 161.42C86.3435 164.104 100.116 165.59 114.592 165.59C129.07 165.59 142.846 164.101 155.328 161.42Z" fill="white"/>
</mask>
<g mask="url(#mask2_301_2)">
<path d="M144.238 153.439C144.323 152.75 144.367 151.941 143.928 151.605C143.711 151.441 143.423 151.43 143.148 151.427C137.511 151.335 131.877 151.244 126.24 151.151L122.193 151.425C122.341 155.865 121.734 160.456 121.13 165.011C120.062 173.042 118.944 181.265 115.693 188.889C121.259 188.968 126.825 189.044 132.388 189.124C132.835 189.129 133.299 189.132 133.741 188.9C134.161 188.678 134.513 188.266 134.834 187.85C136.792 185.32 138.134 182.248 139.202 179.161C142.102 170.774 143.184 162.044 144.238 153.439Z" fill="#FFD681"/>
</g>
<mask id="mask3_301_2" style="mask-type:luminance" maskUnits="userSpaceOnUse" x="73" y="161" width="83" height="25">
<path d="M155.328 161.42C153.963 177.212 145.314 181.571 134.759 184.295C126.75 186.364 114.595 185.97 114.595 185.97C114.595 185.97 102.439 186.364 94.427 184.295C83.8723 181.571 75.226 177.209 73.8613 161.42C86.3435 164.104 100.116 165.59 114.592 165.59C129.07 165.59 142.846 164.101 155.328 161.42Z" fill="white"/>
</mask>
<g mask="url(#mask3_301_2)">
<path d="M107.364 160.855C106.01 161.087 104.665 161.385 103.333 161.759C103.399 166.085 106.301 181.598 108.825 188.856C108.918 189.121 109.264 189.053 109.497 189.053C113.256 188.897 117.161 189.367 120.851 188.883C122.479 184.467 123.21 179.551 124.041 174.851C124.398 172.523 124.689 170.178 124.909 167.828C125.085 165.946 125.645 163.44 125.387 161.565C125.104 159.527 123.407 160.106 121.826 160.079C117.001 159.994 112.147 160.032 107.364 160.855Z" fill="#B8AD85"/>
</g>
<path d="M92.8465 122.197C99.2221 124.205 105.966 124.681 112.564 124.782C118.426 124.872 124.329 124.659 130.156 123.91C131.411 123.749 132.668 123.563 133.909 123.29C134.76 123.104 135.625 122.888 136.419 122.481C136.954 122.205 136.487 121.328 135.955 121.601C135.425 121.872 134.62 122.087 133.959 122.24C132.932 122.481 131.891 122.65 130.848 122.798C128.094 123.183 125.318 123.402 122.547 123.555C116.303 123.902 110.007 123.913 103.777 123.282C100.175 122.915 96.5752 122.311 93.0908 121.213C92.5197 121.035 92.2781 122.016 92.8465 122.197Z" fill="#FAB156"/>
<path d="M93.107 121.27C99.4442 123.279 106.149 123.754 112.706 123.855C118.533 123.946 124.403 123.732 130.194 122.984C131.443 122.822 132.69 122.637 133.925 122.363C134.771 122.178 135.633 121.962 136.419 121.555C136.951 121.279 136.487 120.401 135.957 120.675C135.433 120.945 134.628 121.161 133.975 121.314C132.953 121.555 131.918 121.724 130.883 121.872C128.146 122.257 125.386 122.475 122.632 122.628C116.424 122.975 110.166 122.986 103.975 122.355C100.394 121.989 96.8165 121.385 93.3541 120.287C92.783 120.109 92.5414 121.09 93.107 121.27Z" fill="#FFD455"/>
<path d="M114.132 123.055C113.168 123.115 112.204 123.254 111.251 123.421C109.527 123.724 107.772 124.156 106.191 125.014C104.843 125.743 103.511 127.02 103.747 128.872C103.898 130.055 104.609 131.162 105.353 131.974C106.287 132.99 107.553 133.531 108.824 133.037C110.131 132.528 111.119 131.302 111.899 130.069C112.871 128.533 113.588 126.79 114.14 125.017C114.28 124.563 114.409 124.104 114.524 123.639C114.667 123.068 113.879 122.825 113.733 123.396C113.297 125.129 112.696 126.812 111.894 128.369C111.235 129.648 110.411 130.974 109.277 131.774C108.33 132.444 107.297 132.485 106.369 131.744C105.559 131.099 104.799 129.984 104.579 128.916C104.535 128.697 104.53 128.676 104.53 128.449C104.53 128.367 104.532 128.282 104.538 128.2C104.543 128.11 104.527 128.252 104.541 128.162C104.549 128.115 104.554 128.069 104.565 128.025C104.582 127.949 104.601 127.872 104.623 127.796C104.634 127.757 104.648 127.722 104.659 127.684C104.659 127.684 104.65 127.7 104.681 127.629C104.747 127.479 104.823 127.334 104.911 127.197C104.952 127.132 104.925 127.175 104.939 127.159C104.966 127.121 104.994 127.082 105.024 127.047C105.079 126.976 105.136 126.91 105.197 126.845C105.298 126.733 105.469 126.571 105.526 126.525C105.817 126.279 106.133 126.071 106.454 125.888C107.866 125.085 109.521 124.672 111.103 124.374C111.803 124.243 112.336 124.161 113.036 124.079C113.382 124.038 113.728 124.011 114.077 123.978C114.093 123.975 114.11 123.975 114.126 123.975C114.656 123.94 114.661 123.022 114.132 123.055Z" fill="#FFD455"/>
<path d="M115.135 123.973C115.967 124.025 116.829 124.142 117.579 124.268C119.163 124.533 120.83 124.916 122.277 125.607C122.936 125.921 123.589 126.323 124.064 126.839C124.306 127.104 124.421 127.268 124.581 127.624C124.622 127.719 124.594 127.64 124.633 127.771C124.657 127.853 124.679 127.935 124.696 128.02C124.704 128.058 124.71 128.099 124.718 128.137C124.732 128.225 124.721 128.151 124.723 128.176C124.732 128.266 124.734 128.353 124.734 128.443C124.732 128.744 124.652 129.126 124.534 129.433C124.322 129.99 123.996 130.504 123.642 130.955C122.886 131.916 121.876 132.583 120.72 132.165C119.548 131.739 118.647 130.531 117.972 129.435C117.074 127.973 116.396 126.339 115.885 124.661C115.756 124.241 115.638 123.814 115.531 123.388C115.388 122.82 114.597 123.06 114.74 123.631C115.201 125.468 115.849 127.266 116.709 128.913C117.442 130.318 118.37 131.742 119.63 132.6C120.701 133.329 121.964 133.439 123.059 132.712C124.097 132.023 124.998 130.766 125.391 129.479C125.638 128.67 125.599 127.793 125.231 127.039C124.872 126.301 124.251 125.749 123.617 125.331C122.104 124.336 120.316 123.866 118.606 123.527C117.494 123.306 116.327 123.071 115.193 123.055C115.174 123.055 115.154 123.052 115.135 123.052C114.608 123.022 114.611 123.94 115.135 123.973Z" fill="#FFD455"/>
<path d="M114.272 123.552C113.52 129.203 112.633 134.83 111.617 140.429C111.513 141.005 112.301 141.254 112.408 140.672C113.424 135.073 114.31 129.446 115.063 123.795C115.096 123.549 115.008 123.303 114.777 123.23C114.585 123.17 114.305 123.306 114.272 123.552Z" fill="#FFD455"/>
<path d="M114.374 123.713C115.044 128.061 115.659 132.422 116.22 136.789C116.253 137.037 116.53 137.166 116.722 137.108C116.958 137.037 117.041 136.789 117.008 136.543C116.447 132.173 115.832 127.815 115.162 123.467C115.072 122.885 114.284 123.134 114.374 123.713Z" fill="#FFD455"/>
<path d="M28.6162 102C33.2895 102 37.3313 102.571 40.7415 103.716C44.149 104.858 46.9469 106.386 49.1298 108.29C51.3126 110.198 52.9217 112.428 53.9568 114.98C54.992 117.535 55.5082 120.183 55.5082 122.929V124.186C55.5082 128.531 54.4922 132.706 52.4631 136.709C50.4313 140.713 47.4631 144.659 43.5559 148.547L19.3081 172.452H54.1298C55.8898 172.452 57.194 173.042 58.037 174.225C58.8799 175.409 59.3 176.838 59.3 178.513C59.3 180.191 58.8772 181.62 58.037 182.803C57.194 183.986 55.8898 184.576 54.1298 184.576H10.3433C6.66669 184.576 4.02253 183.929 2.41352 182.631C0.804506 181.336 0 179.354 0 176.685C0 175.466 0.323999 174.324 0.977488 173.253C1.62823 172.187 2.56728 171.004 3.79189 169.708L30.4532 142.945C32.5976 140.811 34.3219 138.926 35.6234 137.283C36.9249 135.644 37.96 134.1 38.7261 132.652C39.4922 131.203 40.0084 129.812 40.2775 128.476C40.5438 127.143 40.6811 125.752 40.6811 124.301V123.73C40.6811 121.213 39.7036 119.136 37.7514 117.497C35.7964 115.857 32.8282 115.037 28.8441 115.037C25.3955 115.037 22.5234 115.685 20.2252 116.983C17.927 118.281 15.7798 120.224 13.7892 122.817C12.7156 124.265 11.3757 125.104 9.76665 125.334C8.15763 125.563 6.58706 125.145 5.05493 124.077C3.5228 123.011 2.52609 121.675 2.06755 120.073C1.60901 118.472 1.95223 116.797 3.1027 115.04C5.63154 111.305 9.00058 108.198 13.2153 105.719C17.43 103.241 22.5619 102 28.6162 102Z" fill="#544A40"/>
<path d="M198.497 102C203.17 102 207.212 102.571 210.622 103.716C214.03 104.858 216.828 106.386 219.011 108.29C221.193 110.198 222.803 112.428 223.838 114.98C224.873 117.535 225.389 120.183 225.389 122.929V124.186C225.389 128.531 224.373 132.706 222.344 136.709C220.312 140.713 217.344 144.659 213.437 148.547L189.189 172.452H224.011C225.773 172.452 227.075 173.042 227.918 174.225C228.761 175.409 229.181 176.838 229.181 178.513C229.181 180.191 228.758 181.62 227.918 182.803C227.075 183.986 225.771 184.576 224.011 184.576H180.224C176.548 184.576 173.903 183.929 172.294 182.631C170.685 181.336 169.881 179.354 169.881 176.682C169.881 175.463 170.205 174.321 170.858 173.25C171.509 172.184 172.448 171.001 173.675 169.706L200.337 142.943C202.481 140.808 204.206 138.923 205.507 137.281C206.808 135.641 207.844 134.097 208.61 132.649C209.376 131.201 209.892 129.81 210.161 128.473C210.43 127.14 210.562 125.749 210.562 124.298V123.727C210.562 121.21 209.584 119.133 207.632 117.494C205.677 115.854 202.709 115.035 198.725 115.035C195.276 115.035 192.404 115.682 190.106 116.98C187.808 118.278 185.661 120.221 183.67 122.814C182.596 124.262 181.257 125.101 179.648 125.331C178.038 125.56 176.468 125.142 174.936 124.074C173.404 123.008 172.407 121.672 171.948 120.071C171.487 118.469 171.833 116.794 172.984 115.037C175.512 111.302 178.881 108.195 183.096 105.716C187.308 103.241 192.443 102 198.497 102Z" fill="#544A40"/>
<path d="M291.148 103.257C292.911 103.257 294.212 103.869 295.055 105.088C295.898 106.309 296.318 107.757 296.318 109.433C296.318 111.187 295.895 112.654 295.055 113.835C294.212 115.018 292.911 115.608 291.148 115.608H261.961L261.041 136.31C262.955 135.165 265.137 134.176 267.592 133.337C270.044 132.498 272.993 132.08 276.442 132.08C280.423 132.08 283.949 132.766 287.016 134.138C290.08 135.51 292.664 137.36 294.772 139.685C296.878 142.011 298.468 144.7 299.542 147.749C300.613 150.799 301.151 153.966 301.151 157.242V158.387C301.151 161.666 300.593 164.945 299.484 168.222C298.372 171.501 296.612 174.438 294.199 177.029C291.785 179.622 288.721 181.737 285.006 183.377C281.288 185.016 276.788 185.836 271.502 185.836C266.063 185.836 261.348 185.322 257.367 184.292C253.383 183.262 249.819 181.759 246.681 179.775C244.918 178.63 243.902 177.166 243.635 175.373C243.366 173.583 243.732 171.886 244.726 170.285C245.799 168.531 247.101 167.465 248.633 167.082C250.165 166.702 251.81 167.044 253.575 168.112C256.027 169.561 258.611 170.667 261.332 171.43C264.05 172.192 267.403 172.575 271.387 172.575C276.444 172.575 280.195 171.26 282.65 168.629C285.102 165.997 286.326 162.549 286.326 158.278V157.592C286.326 153.171 285.041 149.777 282.477 147.413C279.91 145.052 276.329 143.869 271.733 143.869C269.05 143.869 266.56 144.29 264.262 145.126C261.963 145.965 259.932 147.11 258.171 148.558C257.024 149.473 256.046 150.121 255.242 150.504C254.437 150.886 253.383 151.075 252.081 151.075C250.319 151.075 248.902 150.637 247.828 149.76C246.755 148.886 246.258 147.684 246.335 146.159L248.171 113.22C248.248 111.239 248.46 109.599 248.803 108.301C249.149 107.006 249.684 105.995 250.412 105.271C251.14 104.547 252.117 104.033 253.342 103.727C254.566 103.424 256.101 103.271 257.938 103.271H291.148V103.257Z" fill="#544A40"/>
<path d="M129.452 162.497C131.725 152.818 125.683 143.138 115.958 140.876C106.232 138.614 96.5051 144.626 94.232 154.305C91.9589 163.984 98.0004 173.665 107.726 175.927C117.452 178.189 127.178 172.176 129.452 162.497Z" fill="white"/>
<path d="M111.841 173.999C103.203 173.999 96.1738 167.003 96.1738 158.406C96.1738 149.81 103.203 142.814 111.841 142.814C120.479 142.814 127.508 149.81 127.508 158.406C127.511 167.006 120.482 173.999 111.841 173.999ZM111.841 143.497C103.579 143.497 96.8603 150.187 96.8603 158.406C96.8603 166.629 103.582 173.315 111.841 173.315C120.103 173.315 126.822 166.626 126.822 158.406C126.825 150.187 120.103 143.497 111.841 143.497Z" fill="#FFD455"/>
<path d="M104.078 159.625C104.078 159.114 104.059 158.622 104.018 158.15C103.976 157.677 103.916 157.322 103.834 157.078L105.58 157.401C105.728 157.414 105.81 157.483 105.824 157.603C105.838 157.723 105.791 157.811 105.681 157.865L105.154 158.169C105.154 158.425 105.152 158.707 105.143 159.018C105.135 159.33 105.124 159.642 105.102 159.958C105.083 160.275 105.061 160.576 105.042 160.858C105.022 161.142 105.003 161.382 104.992 161.584C104.937 162.339 104.792 163.03 104.556 163.656C104.32 164.281 103.985 164.913 103.551 165.547L103.186 165.224C103.402 164.779 103.573 164.333 103.694 163.891C103.814 163.445 103.902 162.997 103.957 162.546C104.012 162.095 104.045 161.625 104.059 161.142C104.072 160.658 104.078 160.153 104.078 159.625ZM103.713 155.34L103.449 154.45C103.842 154.545 104.232 154.608 104.616 154.641C105.003 154.674 105.352 154.69 105.662 154.69H108.142L108.932 153.862C109.149 153.646 109.339 153.641 109.501 153.843L110.599 154.753C110.692 154.849 110.72 154.955 110.681 155.075C110.64 155.196 110.561 155.258 110.437 155.258H107.472V167.186C107.472 167.375 107.411 167.52 107.288 167.621C107.167 167.722 107.016 167.771 106.84 167.771C106.692 167.771 106.563 167.733 106.453 167.659C106.343 167.585 106.291 167.495 106.291 167.386C106.318 167.265 106.338 167.02 106.351 166.648C106.365 166.276 106.371 165.929 106.371 165.607V155.258H105.659C105.253 155.258 104.86 155.267 104.482 155.278C104.105 155.294 103.847 155.313 103.713 155.34ZM104.201 151.681L103.938 150.771C104.289 150.84 104.685 150.9 105.127 150.955C105.566 151.009 105.929 151.037 106.214 151.037H107.738L108.51 150.187C108.617 150.094 108.716 150.045 108.803 150.045C108.891 150.045 108.99 150.091 109.097 150.187L110.072 151.179C110.141 151.261 110.171 151.343 110.163 151.43C110.154 151.517 110.077 151.561 109.929 151.561H106.211C105.764 151.561 105.366 151.572 105.011 151.591C104.66 151.61 104.391 151.64 104.201 151.681ZM108.589 158.595C108.589 158.406 108.581 158.174 108.57 157.898C108.556 157.622 108.543 157.354 108.529 157.1L110.011 157.464C110.187 157.518 110.286 157.603 110.305 157.718C110.325 157.833 110.281 157.904 110.173 157.931L109.666 158.215V164.24C109.666 164.35 109.608 164.437 109.493 164.503C109.377 164.571 109.232 164.604 109.056 164.604C108.908 164.604 108.781 164.571 108.68 164.503C108.578 164.434 108.526 164.347 108.526 164.24C108.54 164.052 108.553 163.822 108.567 163.555C108.581 163.284 108.586 163.022 108.586 162.765V158.595H108.589ZM110.821 160.232C110.821 160.057 110.797 159.836 110.75 159.565C110.703 159.294 110.651 159.032 110.599 158.778L112.101 159.628H119.007L119.413 159.122C119.468 159.04 119.534 158.991 119.616 158.969C119.699 158.95 119.786 158.98 119.88 159.059L120.692 159.666C120.813 159.734 120.876 159.822 120.876 159.928C120.876 160.038 120.822 160.139 120.714 160.232L120.187 160.636V166.014C120.215 166.161 120.242 166.323 120.27 166.498C120.297 166.672 120.311 166.787 120.311 166.842C120.311 166.962 120.292 167.061 120.25 167.134C120.209 167.208 120.154 167.279 120.088 167.347C120.047 167.402 119.976 167.451 119.874 167.498C119.773 167.544 119.674 167.569 119.58 167.569C119.446 167.569 119.339 167.528 119.265 167.449C119.191 167.367 119.147 167.279 119.133 167.186V166.599H111.859V167.186C111.859 167.32 111.799 167.438 111.675 167.539C111.555 167.64 111.398 167.692 111.209 167.692C111.06 167.692 110.937 167.667 110.843 167.621C110.747 167.574 110.701 167.495 110.701 167.388C110.742 167.145 110.772 166.897 110.791 166.64C110.811 166.383 110.821 166.202 110.821 166.093V160.232ZM111.126 151.802L110.863 150.933C111.283 151.039 111.692 151.11 112.093 151.146C112.491 151.179 112.829 151.195 113.098 151.195H118.381L119.152 150.345C119.314 150.129 119.512 150.138 119.742 150.364L120.676 151.274C120.745 151.356 120.769 151.449 120.758 151.558C120.745 151.668 120.662 151.72 120.514 151.72H113.1C112.708 151.72 112.315 151.731 111.923 151.75C111.527 151.772 111.264 151.791 111.126 151.802ZM111.879 154.228C111.879 154.053 111.865 153.835 111.837 153.572C111.81 153.31 111.777 153.05 111.736 152.794L113.177 153.643H117.991L118.375 153.138C118.43 153.042 118.49 152.985 118.559 152.966C118.628 152.947 118.735 152.977 118.883 153.056L119.696 153.745C119.899 153.919 119.893 154.081 119.677 154.231L119.149 154.616V156.78C119.177 156.969 119.196 157.144 119.21 157.305C119.223 157.466 119.229 157.581 119.229 157.649C119.229 157.759 119.218 157.846 119.199 157.912C119.18 157.98 119.147 158.059 119.108 158.155C119.053 158.196 118.963 158.231 118.834 158.267C118.705 158.3 118.606 158.319 118.54 158.319C118.43 158.319 118.328 158.286 118.235 158.218C118.139 158.15 118.087 158.048 118.073 157.915V157.731H112.974V157.852C112.974 158.027 112.914 158.166 112.79 158.267C112.669 158.368 112.513 158.42 112.323 158.42C112.175 158.42 112.046 158.39 111.939 158.33C111.829 158.27 111.783 158.185 111.796 158.078C111.81 157.849 111.826 157.614 111.846 157.371C111.865 157.128 111.876 156.934 111.876 156.786V154.228H111.879ZM111.859 160.193V162.863H114.847V160.193H111.859ZM111.859 163.388V166.096H114.847V163.388H111.859ZM112.977 154.149V157.182H118.076V154.149H112.977ZM119.13 160.193H115.901V162.863H119.13V160.193ZM115.901 163.388V166.096H119.13V163.388H115.901Z" fill="#E34D4A"/>
<path d="M106.84 168.115C106.621 168.115 106.426 168.058 106.261 167.943C106.061 167.806 105.951 167.61 105.951 167.388L105.959 167.315C105.973 167.257 105.995 167.096 106.011 166.637C106.025 166.271 106.03 165.929 106.03 165.609V158.024C105.978 158.084 105.912 158.133 105.835 158.171L105.498 158.368C105.495 158.573 105.492 158.792 105.489 159.027C105.481 159.341 105.47 159.661 105.448 159.98C105.429 160.297 105.407 160.598 105.388 160.882L105.338 161.609C105.281 162.393 105.127 163.123 104.88 163.779C104.633 164.429 104.284 165.088 103.836 165.741L103.617 166.063L102.766 165.309L102.878 165.077C103.084 164.65 103.249 164.221 103.364 163.8C103.482 163.374 103.567 162.937 103.62 162.505C103.672 162.065 103.705 161.603 103.718 161.131C103.732 160.65 103.738 160.147 103.738 159.625C103.738 159.122 103.718 158.636 103.677 158.18C103.639 157.737 103.584 157.403 103.51 157.188L103.326 156.638L105.646 157.067C105.802 157.081 105.937 157.147 106.033 157.253V155.6H105.665C105.262 155.6 104.874 155.608 104.498 155.619C104.051 155.635 103.861 155.657 103.782 155.674L103.474 155.734L102.952 153.977L103.532 154.116C103.905 154.206 104.281 154.269 104.649 154.299C105.023 154.332 105.363 154.348 105.665 154.348H107.996L108.685 153.624C108.88 153.43 109.078 153.34 109.281 153.354C109.405 153.362 109.581 153.408 109.745 153.597L110.819 154.488C111.028 154.695 111.088 154.939 111.006 155.182C110.918 155.441 110.706 155.597 110.437 155.597H107.815V167.183C107.815 167.55 107.648 167.765 107.508 167.88C107.324 168.039 107.098 168.115 106.84 168.115ZM106.643 167.391C106.807 167.457 107.011 167.408 107.071 167.358C107.087 167.345 107.131 167.309 107.131 167.186V155.034H106.72V165.609C106.72 165.937 106.711 166.287 106.698 166.662C106.681 167.08 106.659 167.282 106.643 167.391ZM104.287 157.51C104.317 157.69 104.339 157.893 104.361 158.122C104.402 158.598 104.424 159.106 104.424 159.628C104.424 160.158 104.416 160.666 104.405 161.153C104.391 161.647 104.355 162.131 104.301 162.59C104.246 163.054 104.152 163.524 104.026 163.984C104.012 164.033 103.998 164.082 103.985 164.128C104.081 163.932 104.163 163.735 104.237 163.541C104.463 162.948 104.603 162.281 104.652 161.565L104.701 160.838C104.721 160.557 104.743 160.256 104.762 159.942C104.781 159.631 104.795 159.322 104.803 159.016C104.808 158.71 104.814 158.428 104.814 158.174V157.977L105.297 157.699L104.287 157.51ZM103.941 154.9L103.96 154.966C104.045 154.958 104.144 154.952 104.257 154.947C104.152 154.933 104.045 154.917 103.941 154.9ZM108.4 154.917H110.283L109.235 154.056C109.265 154.034 109.235 154.045 109.177 154.105L108.4 154.917ZM111.209 168.033C111.006 168.033 110.833 167.998 110.69 167.927C110.478 167.82 110.358 167.626 110.358 167.388C110.402 167.099 110.432 166.858 110.451 166.612C110.47 166.369 110.481 166.197 110.481 166.093V160.232C110.481 160.079 110.459 159.874 110.415 159.622C110.369 159.357 110.319 159.098 110.264 158.846L110.154 158.33L110.009 158.412V164.235C110.009 164.465 109.888 164.664 109.666 164.792C109.344 164.978 108.82 165.003 108.488 164.781C108.293 164.653 108.183 164.456 108.183 164.235C108.197 164.025 108.21 163.798 108.224 163.53C108.238 163.268 108.243 163.008 108.243 162.759V158.595C108.243 158.412 108.235 158.185 108.224 157.914L108.161 156.657L110.091 157.133C110.495 157.256 110.61 157.485 110.64 157.658C110.687 157.92 110.564 158.144 110.333 158.237L112.192 159.286H118.842L119.144 158.909C119.226 158.783 119.366 158.68 119.531 158.639C119.666 158.606 119.874 158.609 120.102 158.803L120.899 159.396C121.173 159.543 121.22 159.797 121.22 159.931C121.22 160.076 121.17 160.289 120.94 160.491L120.528 160.806V166.017C120.55 166.107 120.577 166.271 120.605 166.448C120.635 166.651 120.649 166.782 120.649 166.845C120.649 167.022 120.613 167.175 120.547 167.301C120.492 167.402 120.418 167.5 120.327 167.591C120.284 167.653 120.171 167.738 120.017 167.809C119.869 167.878 119.721 167.913 119.578 167.913C119.284 167.913 119.108 167.787 119.01 167.681C118.889 167.547 118.815 167.397 118.79 167.235L118.787 166.943H112.203V167.189C112.203 167.356 112.151 167.596 111.895 167.804C111.711 167.957 111.481 168.033 111.209 168.033ZM111.058 167.336C111.148 167.358 111.363 167.358 111.456 167.279C111.516 167.23 111.516 167.203 111.516 167.189V159.852H111.805L111.077 159.442C111.08 159.464 111.085 159.486 111.088 159.508C111.14 159.8 111.165 160.038 111.165 160.234V166.099C111.165 166.213 111.154 166.402 111.135 166.672C111.115 166.897 111.091 167.121 111.058 167.336ZM119.476 167.17C119.479 167.17 119.49 167.192 119.517 167.222C119.622 167.233 119.674 167.219 119.729 167.194C119.795 167.164 119.817 167.142 119.817 167.142C119.888 167.066 119.924 167.022 119.949 166.976C119.951 166.973 119.968 166.938 119.968 166.847C119.968 166.801 119.954 166.703 119.932 166.555C119.905 166.383 119.88 166.224 119.852 166.079L119.847 160.472L120.509 159.964C120.525 159.95 120.536 159.931 120.539 159.926L119.679 159.335L119.273 159.855H119.479L119.476 167.17C119.474 167.17 119.474 167.17 119.476 167.17ZM115.187 166.26H115.558V159.969H115.187V166.26ZM116.245 165.754H118.787V163.729H116.245V165.754ZM112.203 165.754H114.504V163.729H112.203V165.754ZM108.894 157.54L108.911 157.882C108.924 158.166 108.933 158.404 108.933 158.595V162.759C108.933 163.022 108.924 163.289 108.911 163.565C108.897 163.839 108.883 164.068 108.869 164.26C108.913 164.243 108.977 164.257 109.056 164.257C109.169 164.257 109.257 164.238 109.32 164.202L109.322 158.01L109.778 157.756L108.894 157.54ZM116.245 162.519H118.787V160.532H116.245V162.519ZM112.203 162.519H114.504V160.532H112.203V162.519ZM112.326 158.756C112.118 158.756 111.931 158.71 111.772 158.622C111.541 158.494 111.426 158.278 111.459 158.029C111.47 157.822 111.489 157.581 111.508 157.335C111.527 157.103 111.538 156.917 111.538 156.778V154.231C111.538 154.064 111.525 153.857 111.5 153.608C111.472 153.351 111.439 153.1 111.401 152.848L111.288 152.135C111.239 152.138 111.198 152.143 111.165 152.146L110.885 152.173L110.363 150.454L110.953 150.605C111.354 150.709 111.75 150.777 112.126 150.807C112.513 150.84 112.84 150.856 113.103 150.856H118.232L118.902 150.118C119.051 149.919 119.243 149.859 119.375 149.851C119.586 149.837 119.789 149.93 119.99 150.127L120.921 151.034C121.072 151.214 121.126 151.4 121.102 151.602C121.074 151.826 120.904 152.064 120.517 152.064H113.103C112.716 152.064 112.329 152.075 111.942 152.094C111.656 152.108 111.439 152.121 111.294 152.132L113.279 153.302H117.829L118.112 152.933C118.186 152.799 118.315 152.687 118.469 152.641C118.683 152.575 118.908 152.676 119.056 152.758L119.114 152.799L119.927 153.488C120.116 153.652 120.204 153.829 120.193 154.023C120.185 154.154 120.124 154.346 119.877 154.515L119.498 154.791V156.78C119.523 156.928 119.545 157.108 119.559 157.278C119.572 157.453 119.581 157.578 119.581 157.649C119.581 157.791 119.567 157.909 119.537 158.01C119.512 158.089 119.479 158.182 119.432 158.289L119.397 158.374L119.323 158.428C119.229 158.497 119.106 158.551 118.93 158.598C118.482 158.715 118.282 158.666 118.043 158.494C117.939 158.42 117.815 158.289 117.76 158.073H113.301C113.26 158.253 113.164 158.409 113.018 158.529C112.829 158.677 112.598 158.756 112.326 158.756ZM112.142 158.04C112.274 158.095 112.475 158.078 112.571 157.999C112.601 157.975 112.631 157.942 112.631 157.846V153.805H112.782L112.17 153.444C112.173 153.474 112.175 153.504 112.181 153.534C112.208 153.813 112.222 154.042 112.222 154.225V156.772C112.222 156.928 112.211 157.133 112.189 157.387C112.173 157.614 112.156 157.83 112.142 158.04ZM118.419 157.384V157.909C118.485 157.966 118.518 157.972 118.543 157.972C118.554 157.972 118.609 157.969 118.749 157.934C118.787 157.923 118.817 157.914 118.842 157.906C118.856 157.871 118.867 157.841 118.875 157.811C118.88 157.797 118.891 157.748 118.891 157.647C118.891 157.584 118.886 157.48 118.872 157.33C118.858 157.174 118.839 157.007 118.815 156.824L118.812 154.439L119.443 153.98L118.696 153.34C118.686 153.335 118.677 153.329 118.669 153.326L118.304 153.807H118.422V157.384H118.419ZM113.32 156.838H117.733V154.488H113.32V156.838ZM111.363 151.392L111.376 151.441C111.437 151.438 111.505 151.433 111.579 151.427C111.508 151.416 111.434 151.405 111.363 151.392ZM118.672 151.381H120.275L119.498 150.613C119.427 150.542 119.394 150.531 119.394 150.531L118.672 151.381ZM103.96 152.083L103.452 150.331L104.001 150.435C104.347 150.501 104.734 150.561 105.168 150.613C105.591 150.665 105.942 150.692 106.214 150.692H107.584L108.254 149.954C108.658 149.596 108.977 149.624 109.322 149.927L110.316 150.935C110.492 151.143 110.514 151.329 110.506 151.452C110.5 151.528 110.446 151.9 109.929 151.9H106.212C105.772 151.9 105.38 151.911 105.034 151.93C104.701 151.949 104.446 151.977 104.273 152.015L103.96 152.083ZM104.419 151.2L104.446 151.296C104.559 151.282 104.688 151.269 104.828 151.261C104.688 151.241 104.55 151.222 104.419 151.2ZM108.032 151.22H109.641L108.853 150.424C108.831 150.405 108.812 150.394 108.801 150.389C108.795 150.397 108.771 150.411 108.735 150.441L108.032 151.22Z" fill="#E14D4A"/>
<path d="M54.64 64.98C54.64 65.66 52.62 66 48.58 66C44.54 66 42.52 65.66 42.52 64.98V51.18H34.12V64.98C34.12 65.66 32.1 66 28.06 66C24.02 66 22 65.66 22 64.98V25.2C22 24.36 24.02 23.94 28.06 23.94C32.1 23.94 34.12 24.36 34.12 25.2V39.3H42.52V25.32C42.52 24.76 43.52 24.36 45.52 24.12C46.56 24.04 47.58 24 48.58 24L51.64 24.12C53.64 24.36 54.64 24.76 54.64 25.32V64.98ZM82.9933 64.38C80.4733 65.86 77.2333 66.6 73.2733 66.6C69.3133 66.6 65.9733 65.26 63.2533 62.58C60.5333 59.86 59.1733 56.12 59.1733 51.36C59.1733 46.56 60.4733 42.7 63.0733 39.78C65.7133 36.86 69.0333 35.4 73.0333 35.4C77.0333 35.4 80.1133 36.42 82.2733 38.46C84.4733 40.5 85.5733 42.98 85.5733 45.9C85.5733 52.38 81.8533 55.62 74.4133 55.62H70.2733C70.2733 56.82 70.5933 57.66 71.2333 58.14C71.9133 58.58 72.8933 58.8 74.1733 58.8C76.9733 58.8 79.6333 58.16 82.1533 56.88C82.1933 56.84 82.3733 57.12 82.6933 57.72C83.6533 59.44 84.1333 60.9 84.1333 62.1C84.1333 63.26 83.7533 64.02 82.9933 64.38ZM75.4933 47.04C75.4933 45.36 74.6733 44.52 73.0333 44.52C72.2733 44.52 71.6133 44.76 71.0533 45.24C70.5333 45.68 70.2733 46.34 70.2733 47.22V49.08H73.5133C74.8333 49.08 75.4933 48.4 75.4933 47.04ZM100.413 65.52C100.413 65.88 98.373 66.06 94.293 66.06C91.093 66.02 89.493 65.86 89.493 65.58V24.72C89.493 24.12 91.433 23.82 95.313 23.82C98.713 23.94 100.413 24.14 100.413 24.42V65.52ZM116.761 65.52C116.761 65.88 114.721 66.06 110.641 66.06C107.441 66.02 105.841 65.86 105.841 65.58V24.72C105.841 24.12 107.781 23.82 111.661 23.82C115.061 23.94 116.761 24.14 116.761 24.42V65.52ZM124.768 62.46C122.288 59.7 121.048 55.88 121.048 51C121.048 46.12 122.288 42.3 124.768 39.54C127.288 36.78 130.668 35.4 134.908 35.4C139.148 35.4 142.508 36.78 144.988 39.54C147.468 42.3 148.708 46.12 148.708 51C148.708 55.88 147.468 59.7 144.988 62.46C142.508 65.22 139.148 66.6 134.908 66.6C130.668 66.6 127.288 65.22 124.768 62.46ZM134.908 45.42C132.668 45.42 131.548 47.26 131.548 50.94C131.548 54.62 132.668 56.46 134.908 56.46C137.188 56.46 138.328 54.62 138.328 50.94C138.328 47.26 137.188 45.42 134.908 45.42ZM162.85 53.4C162.85 53.64 161.41 53.76 158.53 53.76C155.69 53.76 154.27 53.66 154.27 53.46L153.07 23.88C153.07 23.56 154.89 23.4 158.53 23.4C162.21 23.4 164.05 23.54 164.05 23.82L162.85 53.4ZM152.95 57C152.95 56.72 154.79 56.58 158.47 56.58C162.19 56.58 164.05 56.7 164.05 56.94V65.58C164.05 65.98 162.19 66.18 158.47 66.18C154.79 66.18 152.95 66.06 152.95 65.82V57Z" fill="#544A40"/>
<ellipse cx="244" cy="84" rx="42" ry="7" fill="black" fill-opacity="0.15"/>
<path d="M261.978 46.9412C266.426 47.8532 271.338 45.3092 273.162 41.1492C273.586 40.1732 273.866 39.1252 274.41 38.2212C274.962 37.3092 275.874 36.5172 276.938 36.5172C278.466 36.5092 279.522 38.0212 280.114 39.4212C281.89 43.6292 282.002 48.5172 280.418 52.8052C278.834 57.0932 275.578 60.7332 271.498 62.7812" fill="#7797CE"/>
<path d="M215.465 48.6292C210.033 50.3332 206.121 56.1652 205.721 62.2612C205.321 68.3572 208.153 74.4452 212.561 78.2772C216.969 82.1092 222.777 83.7972 228.425 83.5812" fill="#9DB1DA"/>
<path d="M220.073 36.4131C211.217 47.3651 207.401 67.1331 218.017 78.2371C221.625 82.0131 226.913 84.8531 231.953 86.0851C239.785 88.0051 248.097 87.4851 255.801 85.2371C262.657 83.2371 271.353 79.8851 274.897 73.2051C278.889 65.6771 276.297 56.8611 270.969 50.8291C264.489 43.4931 254.921 42.2211 245.729 42.1491" fill="#9DB1DA"/>
<mask id="mask4_301_2" style="mask-type:luminance" maskUnits="userSpaceOnUse" x="211" y="36" width="66" height="52">
<path d="M220.073 36.4131C211.217 47.3651 207.401 67.1331 218.017 78.2371C221.625 82.0131 226.913 84.8531 231.953 86.0851C239.785 88.0051 248.097 87.4851 255.801 85.2371C262.657 83.2371 271.353 79.8851 274.897 73.2051C278.889 65.6771 276.297 56.8611 270.969 50.8291C264.489 43.4931 254.921 42.2211 245.729 42.1491" fill="white"/>
</mask>
<g mask="url(#mask4_301_2)">
<path d="M242.818 39.8852C239.498 45.5012 239.314 52.7012 241.802 58.7332C244.29 64.7652 249.258 69.6132 255.098 72.5172C260.938 75.4212 267.594 76.4692 274.114 76.1332C274.426 79.3332 272.562 82.4372 270.042 84.4372C267.522 86.4292 264.41 87.5092 261.354 88.4932C253.714 90.9412 245.898 93.0372 237.898 93.5892C229.898 94.1412 221.65 93.0772 214.482 89.4772C207.314 85.8772 201.33 79.5572 199.122 71.8532C197.506 66.2132 197.938 60.1972 198.746 54.3812C199.442 49.3492 200.482 44.1732 203.434 40.0452C206.626 35.5972 211.754 32.8452 217.058 31.4772C222.362 30.1092 227.89 29.9972 233.362 29.8932C235.626 29.8532 237.922 29.8132 240.098 30.4292C242.274 31.0452 244.346 32.4292 245.25 34.5012" fill="#B6CAE8"/>
<mask id="mask5_301_2" style="mask-type:luminance" maskUnits="userSpaceOnUse" x="198" y="29" width="77" height="65">
<path d="M242.818 39.8852C239.498 45.5012 239.314 52.7012 241.802 58.7332C244.29 64.7652 249.258 69.6132 255.098 72.5172C260.938 75.4212 267.594 76.4692 274.114 76.1332C274.426 79.3332 272.562 82.4372 270.042 84.4372C267.522 86.4292 264.41 87.5092 261.354 88.4932C253.714 90.9412 245.898 93.0372 237.898 93.5892C229.898 94.1412 221.65 93.0772 214.482 89.4772C207.314 85.8772 201.33 79.5572 199.122 71.8532C197.506 66.2132 197.938 60.1972 198.746 54.3812C199.442 49.3492 200.482 44.1732 203.434 40.0452C206.626 35.5972 211.754 32.8452 217.058 31.4772C222.362 30.1092 227.89 29.9972 233.362 29.8932C235.626 29.8532 237.922 29.8132 240.098 30.4292C242.274 31.0452 244.346 32.4292 245.25 34.5012" fill="white"/>
</mask>
<g mask="url(#mask5_301_2)">
<path d="M243.329 51.5571C238.361 54.6771 232.201 55.8451 226.433 54.7651C220.665 53.6851 215.353 50.3571 211.857 45.6451" stroke="#9DB1DA" stroke-width="1.2945" stroke-miterlimit="10"/>
</g>
<mask id="mask6_301_2" style="mask-type:luminance" maskUnits="userSpaceOnUse" x="198" y="29" width="77" height="65">
<path d="M242.818 39.8852C239.498 45.5012 239.314 52.7012 241.802 58.7332C244.29 64.7652 249.258 69.6132 255.098 72.5172C260.938 75.4212 267.594 76.4692 274.114 76.1332C274.426 79.3332 272.562 82.4372 270.042 84.4372C267.522 86.4292 264.41 87.5092 261.354 88.4932C253.714 90.9412 245.898 93.0372 237.898 93.5892C229.898 94.1412 221.65 93.0772 214.482 89.4772C207.314 85.8772 201.33 79.5572 199.122 71.8532C197.506 66.2132 197.938 60.1972 198.746 54.3812C199.442 49.3492 200.482 44.1732 203.434 40.0452C206.626 35.5972 211.754 32.8452 217.058 31.4772C222.362 30.1092 227.89 29.9972 233.362 29.8932C235.626 29.8532 237.922 29.8132 240.098 30.4292C242.274 31.0452 244.346 32.4292 245.25 34.5012" fill="white"/>
</mask>
<g mask="url(#mask6_301_2)">
<path d="M248.769 62.8292C243.393 68.0372 235.777 70.8612 228.305 70.4212C220.825 69.9812 213.601 66.2772 208.873 60.4692" stroke="#9DB1DA" stroke-width="1.2945" stroke-miterlimit="10"/>
</g>
<mask id="mask7_301_2" style="mask-type:luminance" maskUnits="userSpaceOnUse" x="198" y="29" width="77" height="65">
<path d="M242.818 39.8852C239.498 45.5012 239.314 52.7012 241.802 58.7332C244.29 64.7652 249.258 69.6132 255.098 72.5172C260.938 75.4212 267.594 76.4692 274.114 76.1332C274.426 79.3332 272.562 82.4372 270.042 84.4372C267.522 86.4292 264.41 87.5092 261.354 88.4932C253.714 90.9412 245.898 93.0372 237.898 93.5892C229.898 94.1412 221.65 93.0772 214.482 89.4772C207.314 85.8772 201.33 79.5572 199.122 71.8532C197.506 66.2132 197.938 60.1972 198.746 54.3812C199.442 49.3492 200.482 44.1732 203.434 40.0452C206.626 35.5972 211.754 32.8452 217.058 31.4772C222.362 30.1092 227.89 29.9972 233.362 29.8932C235.626 29.8532 237.922 29.8132 240.098 30.4292C242.274 31.0452 244.346 32.4292 245.25 34.5012" fill="white"/>
</mask>
<g mask="url(#mask7_301_2)">
<path d="M259.49 72.2772C254.266 78.3892 246.994 82.7252 239.138 84.4212C231.274 86.1172 222.866 85.1652 215.586 81.7492" stroke="#9DB1DA" stroke-width="1.2945" stroke-miterlimit="10"/>
</g>
</g>
<path d="M253.057 49.1972C255.273 49.9652 257.369 51.2212 258.737 52.8292C259.961 54.2692 260.713 56.3332 259.945 58.0612C259.065 60.0452 256.433 60.7732 254.369 60.0932C252.305 59.4132 250.769 57.6852 249.617 55.8452C248.897 54.6932 245.841 49.6452 246.721 48.6292C246.953 48.3572 247.945 48.3332 248.305 48.3332C249.801 48.3412 251.465 48.6452 253.057 49.1972Z" fill="#7796CD"/>
<path d="M246.617 41.7092C245.129 48.7812 248.489 56.6052 254.633 60.4052" stroke="#5B7DBD" stroke-width="0.8322" stroke-miterlimit="10" stroke-linecap="round" stroke-linejoin="round"/>
<path d="M270.777 70.1332C271.785 69.6292 272.545 68.4372 272.169 67.3732C271.793 66.3172 270.545 65.8772 269.433 65.7172C267.985 65.5092 266.505 65.5412 265.065 65.8132C263.817 66.0532 262.393 66.6932 262.193 67.9492C262.025 69.0292 262.913 70.0532 263.953 70.4132C265.569 70.9652 269.225 70.9012 270.777 70.1332Z" fill="#DAE6F5"/>
<path d="M273.961 62.6612C274.009 62.9572 273.857 63.2612 273.633 63.4692C273.409 63.6692 273.121 63.7812 272.825 63.8612C272.441 63.9572 272.033 63.9892 271.641 63.9012C271.257 63.8052 270.889 63.5732 270.697 63.2212C270.209 62.3332 271.081 61.5812 271.937 61.6372C272.585 61.6852 273.849 61.8852 273.961 62.6612Z" fill="#DAE6F5"/>
<path d="M259.937 48.5012C259.881 48.1092 260.073 47.7012 260.369 47.4372C260.665 47.1732 261.049 47.0212 261.433 46.9252C261.945 46.7972 262.481 46.7492 262.993 46.8772C263.505 47.0052 263.985 47.3092 264.233 47.7732C264.881 48.9492 263.729 49.9412 262.593 49.8612C261.753 49.7972 260.089 49.5252 259.937 48.5012Z" fill="#E4F2F1"/>
<path d="M229.569 44.3172C240.753 45.8932 248.689 44.1572 248.689 44.1572C258.433 42.4692 259.345 35.1172 259.345 35.1172C261.105 27.0932 255.425 24.8772 255.425 24.8772C256.641 2.65317 236.521 0.285172 236.521 0.285172H236.529C236.529 0.285172 216.665 -3.66683 210.969 17.8532C210.969 17.8532 204.881 18.2132 204.081 26.3892C204.081 26.3892 202.689 33.6612 211.433 38.2692C211.433 38.2692 218.449 42.3652 229.577 44.3092" fill="#9DB1DA"/>
<mask id="mask8_301_2" style="mask-type:luminance" maskUnits="userSpaceOnUse" x="204" y="0" width="56" height="45">
<path d="M229.569 44.3172C240.753 45.8932 248.689 44.1572 248.689 44.1572C258.433 42.4692 259.345 35.1172 259.345 35.1172C261.105 27.0932 255.425 24.8772 255.425 24.8772C256.641 2.65317 236.521 0.285172 236.521 0.285172H236.529C236.529 0.285172 216.665 -3.66683 210.969 17.8532C210.969 17.8532 204.881 18.2132 204.081 26.3892C204.081 26.3892 202.689 33.6612 211.433 38.2692C211.433 38.2692 218.449 42.3652 229.577 44.3092" fill="white"/>
</mask>
<g mask="url(#mask8_301_2)">
<path d="M250.017 46.5092C252.305 45.9652 254.289 44.1012 255.073 41.7332C255.857 39.3652 255.433 36.5812 253.977 34.6132C252.529 32.6452 250.265 31.5972 248.065 30.7492C239.737 27.5412 229.521 25.8132 220.633 25.6052C216.697 25.5092 213.657 25.5332 210.097 27.4612C207.057 29.1012 204.657 32.2372 205.057 35.8372C205.113 36.3572 205.233 36.8692 205.393 37.3652C206.161 39.7252 208.121 41.4692 210.273 42.4532C212.425 43.4372 214.777 43.7652 217.097 44.0772" fill="#B6CAE8"/>
</g>
<path d="M227.689 23.7612C227.945 22.9154 227.467 22.0222 226.621 21.7661C225.775 21.5101 224.882 21.9881 224.626 22.8338C224.37 23.6796 224.848 24.5728 225.693 24.8289C226.539 25.0849 227.432 24.6069 227.689 23.7612Z" fill="#231815"/>
<path d="M232.153 23.7412C232.153 24.0132 231.937 24.2292 231.665 24.2292C231.393 24.2292 231.177 24.0132 231.177 23.7412C231.177 23.4692 231.393 23.2532 231.665 23.2532C231.937 23.2532 232.153 23.4692 232.153 23.7412Z" fill="#5B7DBD"/>
<path d="M234.481 24.1012C234.481 24.3732 234.265 24.5892 233.993 24.5892C233.721 24.5892 233.505 24.3732 233.505 24.1012C233.505 23.8292 233.721 23.6132 233.993 23.6132C234.257 23.6132 234.481 23.8292 234.481 24.1012Z" fill="#5B7DBD"/>
<path d="M239.121 27.1812C240.005 27.1812 240.721 26.4649 240.721 25.5812C240.721 24.6975 240.005 23.9812 239.121 23.9812C238.238 23.9812 237.521 24.6975 237.521 25.5812C237.521 26.4649 238.238 27.1812 239.121 27.1812Z" fill="#231815"/>
<path d="M251.493 31.6591C251.944 28.8809 250.057 26.2633 247.279 25.8124C244.501 25.3616 241.883 27.2482 241.433 30.0263C240.982 32.8045 242.868 35.4221 245.646 35.873C248.425 36.3238 251.042 34.4372 251.493 31.6591Z" fill="#DAE6F5"/>
<path d="M217.034 30.7012C219.848 30.7012 222.129 28.4196 222.129 25.6052C222.129 22.7907 219.848 20.5092 217.034 20.5092C214.219 20.5092 211.938 22.7907 211.938 25.6052C211.938 28.4196 214.219 30.7012 217.034 30.7012Z" fill="#DAE6F5"/>
<path d="M235.145 27.5172C235.145 29.0132 234.121 30.3012 232.369 30.3012C230.057 30.3012 228.577 28.8132 229.225 26.5732L232.009 26.2532L235.145 27.5172Z" fill="#E25D83"/>
<mask id="mask9_301_2" style="mask-type:luminance" maskUnits="userSpaceOnUse" x="229" y="26" width="7" height="5">
<path d="M235.145 27.5172C235.145 29.0132 234.121 30.3012 232.369 30.3012C230.057 30.3012 228.577 28.8132 229.225 26.5732L232.009 26.2532L235.145 27.5172Z" fill="white"/>
</mask>
<g mask="url(#mask9_301_2)">
<path d="M230.025 28.4052C229.513 28.4692 229.025 28.6371 228.809 29.0611C228.593 29.4851 228.801 30.0292 229.161 30.3332C229.521 30.6372 230.009 30.7572 230.473 30.8292C231.257 30.9492 232.185 31.0371 232.961 30.8451C233.521 30.7011 234.553 30.1012 234.033 29.4052C233.873 29.1972 233.633 29.0692 233.393 28.9652C232.633 28.6292 231.817 28.4132 230.985 28.3812C230.713 28.3652 230.361 28.3652 230.025 28.4052Z" fill="#EF93B1"/>
</g>
<path d="M229.338 26.6612L229.818 27.8212C229.866 27.9412 230.034 27.9572 230.106 27.8452C230.298 27.5412 230.426 27.2372 230.554 26.6612" fill="white"/>
<path d="M234.818 27.4932L233.978 28.4372C233.89 28.5332 233.73 28.4932 233.698 28.3652C233.618 28.0132 233.594 27.6852 233.658 27.0932" fill="white"/>
<path d="M228.89 26.2452C229.922 26.9092 231.602 25.9172 232.258 26.0692C233.01 26.1652 234.266 27.6052 235.418 27.4612" stroke="#5B7DBD" stroke-width="0.9068" stroke-miterlimit="10" stroke-linecap="round" stroke-linejoin="round"/>
</svg>
