<svg width="100" height="100" viewBox="0 0 100 100" fill="none" xmlns="http://www.w3.org/2000/svg">
<rect x="0.5" y="0.5" width="99" height="99" rx="49.5" fill="#F8F9FF" stroke="#DDDDDD"/>
<path d="M65.7954 53.6244C69.2658 54.336 73.0983 52.3511 74.5214 49.1054C74.8522 48.3439 75.0707 47.5262 75.4951 46.8209C75.9258 46.1094 76.6373 45.4914 77.4675 45.4914C78.6597 45.4852 79.4836 46.6649 79.9455 47.7572C81.3311 51.0403 81.4185 54.8541 80.1827 58.1996C78.9468 61.5452 76.4064 64.3852 73.2231 65.9831" fill="#7797CE"/>
<path d="M29.5058 54.9414C25.2676 56.2709 22.2154 60.8211 21.9033 65.5774C21.5912 70.3336 23.8008 75.0836 27.24 78.0734C30.6792 81.0632 35.2107 82.3802 39.6174 82.2116" fill="#9DB1DA"/>
<path d="M33.1009 45.4103C26.1912 53.9552 23.2139 69.3786 31.4967 78.0422C34.3118 80.9883 38.4376 83.2041 42.3699 84.1654C48.4806 85.6634 54.9658 85.2577 60.9766 83.5037C66.3258 81.9433 73.1105 79.328 75.8756 74.1161C78.9903 68.2426 76.968 61.3642 72.8109 56.6579C67.7551 50.9342 60.29 49.9418 53.1182 49.8856" fill="#9DB1DA"/>
<mask id="mask0_556_109" style="mask-type:luminance" maskUnits="userSpaceOnUse" x="26" y="45" width="52" height="41">
<path d="M33.1009 45.4103C26.1912 53.9552 23.2139 69.3786 31.4967 78.0422C34.3118 80.9883 38.4376 83.2041 42.3699 84.1654C48.4806 85.6634 54.9658 85.2577 60.9766 83.5037C66.3258 81.9433 73.1105 79.328 75.8756 74.1161C78.9903 68.2426 76.968 61.3642 72.8109 56.6579C67.7551 50.9342 60.29 49.9418 53.1182 49.8856" fill="white"/>
</mask>
<g mask="url(#mask0_556_109)">
<path d="M50.8464 48.1192C48.2561 52.5009 48.1125 58.1185 50.0537 62.8248C51.9949 67.531 55.871 71.3135 60.4275 73.5793C64.984 75.8451 70.1771 76.6627 75.2642 76.4006C75.5076 78.8973 74.0533 81.3191 72.0871 82.8795C70.121 84.4337 67.6929 85.2764 65.3086 86.0441C59.3477 87.9541 53.2495 89.5894 47.0077 90.0201C40.766 90.4508 34.3307 89.6206 28.7381 86.8118C23.1455 84.003 18.4767 79.072 16.7539 73.0612C15.4931 68.6608 15.8302 63.967 16.4606 59.4292C17.0036 55.5032 17.815 51.4648 20.1183 48.244C22.6087 44.7736 26.6097 42.6264 30.748 41.5591C34.8863 40.4917 39.1993 40.4044 43.4687 40.3232C45.2351 40.292 47.0265 40.2608 48.7242 40.7414C50.422 41.222 52.0386 42.3019 52.7439 43.9185" fill="#B6CAE8"/>
<mask id="mask1_556_109" style="mask-type:luminance" maskUnits="userSpaceOnUse" x="15" y="40" width="61" height="51">
<path d="M50.8464 48.1192C48.2561 52.5009 48.1125 58.1185 50.0537 62.8248C51.9949 67.531 55.871 71.3135 60.4275 73.5793C64.984 75.8451 70.1771 76.6627 75.2642 76.4006C75.5076 78.8973 74.0533 81.3191 72.0871 82.8795C70.121 84.4337 67.6929 85.2764 65.3086 86.0441C59.3477 87.9541 53.2495 89.5894 47.0077 90.0201C40.766 90.4508 34.3307 89.6206 28.7381 86.8118C23.1455 84.003 18.4767 79.072 16.7539 73.0612C15.4931 68.6608 15.8302 63.967 16.4606 59.4292C17.0036 55.5032 17.815 51.4648 20.1183 48.244C22.6087 44.7736 26.6097 42.6264 30.748 41.5591C34.8863 40.4917 39.1993 40.4044 43.4687 40.3232C45.2351 40.292 47.0265 40.2608 48.7242 40.7414C50.422 41.222 52.0386 42.3019 52.7439 43.9185" fill="white"/>
</mask>
<g mask="url(#mask1_556_109)">
<path d="M51.2455 57.2259C47.3694 59.6602 42.5632 60.5715 38.0629 59.7288C33.5626 58.8862 29.4181 56.2896 26.6904 52.6132" stroke="#9DB1DA" stroke-width="1.2945" stroke-miterlimit="10"/>
</g>
<mask id="mask2_556_109" style="mask-type:luminance" maskUnits="userSpaceOnUse" x="15" y="40" width="61" height="51">
<path d="M50.8464 48.1192C48.2561 52.5009 48.1125 58.1185 50.0537 62.8248C51.9949 67.531 55.871 71.3135 60.4275 73.5793C64.984 75.8451 70.1771 76.6627 75.2642 76.4006C75.5076 78.8973 74.0533 81.3191 72.0871 82.8795C70.121 84.4337 67.6929 85.2764 65.3086 86.0441C59.3477 87.9541 53.2495 89.5894 47.0077 90.0201C40.766 90.4508 34.3307 89.6206 28.7381 86.8118C23.1455 84.003 18.4767 79.072 16.7539 73.0612C15.4931 68.6608 15.8302 63.967 16.4606 59.4292C17.0036 55.5032 17.815 51.4648 20.1183 48.244C22.6087 44.7736 26.6097 42.6264 30.748 41.5591C34.8863 40.4917 39.1993 40.4044 43.4687 40.3232C45.2351 40.292 47.0265 40.2608 48.7242 40.7414C50.422 41.222 52.0386 42.3019 52.7439 43.9185" fill="white"/>
</mask>
<g mask="url(#mask2_556_109)">
<path d="M55.49 66.0206C51.2955 70.084 45.3533 72.2873 39.5235 71.944C33.6875 71.6007 28.0512 68.7108 24.3623 64.1793" stroke="#9DB1DA" stroke-width="1.2945" stroke-miterlimit="10"/>
</g>
<mask id="mask3_556_109" style="mask-type:luminance" maskUnits="userSpaceOnUse" x="15" y="40" width="61" height="51">
<path d="M50.8464 48.1192C48.2561 52.5009 48.1125 58.1185 50.0537 62.8248C51.9949 67.531 55.871 71.3135 60.4275 73.5793C64.984 75.8451 70.1771 76.6627 75.2642 76.4006C75.5076 78.8973 74.0533 81.3191 72.0871 82.8795C70.121 84.4337 67.6929 85.2764 65.3086 86.0441C59.3477 87.9541 53.2495 89.5894 47.0077 90.0201C40.766 90.4508 34.3307 89.6206 28.7381 86.8118C23.1455 84.003 18.4767 79.072 16.7539 73.0612C15.4931 68.6608 15.8302 63.967 16.4606 59.4292C17.0036 55.5032 17.815 51.4648 20.1183 48.244C22.6087 44.7736 26.6097 42.6264 30.748 41.5591C34.8863 40.4917 39.1993 40.4044 43.4687 40.3232C45.2351 40.292 47.0265 40.2608 48.7242 40.7414C50.422 41.222 52.0386 42.3019 52.7439 43.9185" fill="white"/>
</mask>
<g mask="url(#mask3_556_109)">
<path d="M63.8539 73.3921C59.778 78.1608 54.1043 81.5438 47.9749 82.8671C41.8392 84.1903 35.2791 83.4476 29.5991 80.7823" stroke="#9DB1DA" stroke-width="1.2945" stroke-miterlimit="10"/>
</g>
</g>
<path d="M58.8361 55.3846C60.5651 55.9838 62.2004 56.9638 63.2677 58.2184C64.2227 59.3419 64.8095 60.9523 64.2102 62.3005C63.5237 63.8484 61.4701 64.4164 59.8597 63.8859C58.2494 63.3553 57.0509 62.0071 56.1521 60.5715C55.5904 59.6727 53.206 55.7342 53.8926 54.9415C54.0736 54.7292 54.8476 54.7105 55.1285 54.7105C56.2957 54.7168 57.594 54.9539 58.8361 55.3846Z" fill="#7796CD"/>
<path d="M53.811 49.5423C52.65 55.06 55.2715 61.1645 60.0652 64.1293" stroke="#5B7DBD" stroke-width="0.8322" stroke-miterlimit="10" stroke-linecap="round" stroke-linejoin="round"/>
<path d="M72.6612 71.7193C73.4476 71.326 74.0406 70.396 73.7472 69.5659C73.4539 68.742 72.4802 68.3987 71.6126 68.2738C70.4828 68.1115 69.3281 68.1365 68.2046 68.3487C67.2308 68.536 66.1198 69.0353 65.9638 70.0153C65.8327 70.8579 66.5255 71.6569 67.337 71.9377C68.5978 72.3684 71.4503 72.3185 72.6612 71.7193Z" fill="#DAE6F5"/>
<path d="M75.1451 65.8895C75.1826 66.1204 75.064 66.3576 74.8892 66.5199C74.7144 66.676 74.4897 66.7633 74.2588 66.8258C73.9592 66.9007 73.6408 66.9256 73.335 66.857C73.0354 66.7821 72.7483 66.6011 72.5985 66.3264C72.2177 65.6336 72.8981 65.0469 73.5659 65.0906C74.0715 65.128 75.0577 65.284 75.1451 65.8895Z" fill="#DAE6F5"/>
<path d="M64.2034 54.8416C64.1597 54.5357 64.3095 54.2174 64.5404 54.0114C64.7714 53.8054 65.071 53.6868 65.3706 53.6119C65.7701 53.5121 66.1882 53.4746 66.5877 53.5745C66.9872 53.6744 67.3617 53.9116 67.5552 54.2736C68.0608 55.1911 67.162 55.9651 66.2756 55.9027C65.6202 55.8527 64.322 55.6405 64.2034 54.8416Z" fill="#E4F2F1"/>
<path d="M40.5101 51.5771C49.2361 52.8068 55.4279 51.4523 55.4279 51.4523C63.0304 50.1353 63.742 44.3991 63.742 44.3991C65.1151 38.1386 60.6835 36.4097 60.6835 36.4097C61.6322 19.0701 45.9342 17.2225 45.9342 17.2225H45.9405C45.9405 17.2225 30.4422 14.1391 25.998 30.9294C25.998 30.9294 21.2481 31.2103 20.6239 37.5894C20.6239 37.5894 19.5378 43.2631 26.3601 46.8584C26.3601 46.8584 31.8341 50.0541 40.5164 51.5709" fill="#9DB1DA"/>
<mask id="mask4_556_109" style="mask-type:luminance" maskUnits="userSpaceOnUse" x="20" y="17" width="45" height="36">
<path d="M40.5101 51.5771C49.2361 52.8068 55.4279 51.4523 55.4279 51.4523C63.0304 50.1353 63.742 44.3991 63.742 44.3991C65.1151 38.1386 60.6835 36.4097 60.6835 36.4097C61.6322 19.0701 45.9342 17.2225 45.9342 17.2225H45.9405C45.9405 17.2225 30.4422 14.1391 25.998 30.9294C25.998 30.9294 21.2481 31.2103 20.6239 37.5894C20.6239 37.5894 19.5378 43.2631 26.3601 46.8584C26.3601 46.8584 31.8341 50.0541 40.5164 51.5709" fill="white"/>
</mask>
<g mask="url(#mask4_556_109)">
<path d="M56.4643 53.2874C58.2495 52.8629 59.7974 51.4086 60.4091 49.5611C61.0208 47.7135 60.69 45.5414 59.554 44.0059C58.4242 42.4704 56.6578 41.6527 54.9413 40.9911C48.4437 38.4882 40.4729 37.14 33.5383 36.9777C30.4674 36.9028 28.0955 36.9215 25.3179 38.4258C22.9461 39.7053 21.0736 42.1521 21.3856 44.9609C21.4293 45.3666 21.523 45.7661 21.6478 46.1531C22.247 47.9944 23.7762 49.3551 25.4553 50.1228C27.1343 50.8905 28.9694 51.1465 30.7795 51.3899" fill="#B6CAE8"/>
</g>
<path d="M39.0424 35.5389C39.2422 34.8791 38.8692 34.1822 38.2094 33.9824C37.5495 33.7826 36.8526 34.1555 36.6528 34.8154C36.453 35.4753 36.8259 36.1722 37.4858 36.372C38.1457 36.5718 38.8426 36.1988 39.0424 35.5389Z" fill="#231815"/>
<path d="M42.5261 35.5233C42.5261 35.7355 42.3576 35.9041 42.1454 35.9041C41.9332 35.9041 41.7646 35.7355 41.7646 35.5233C41.7646 35.3111 41.9332 35.1426 42.1454 35.1426C42.3576 35.1426 42.5261 35.3111 42.5261 35.5233Z" fill="#5B7DBD"/>
<path d="M44.3425 35.8042C44.3425 36.0164 44.174 36.185 43.9618 36.185C43.7496 36.185 43.5811 36.0164 43.5811 35.8042C43.5811 35.592 43.7496 35.4235 43.9618 35.4235C44.1678 35.4235 44.3425 35.592 44.3425 35.8042Z" fill="#5B7DBD"/>
<path d="M47.9627 38.2073C48.6522 38.2073 49.2111 37.6484 49.2111 36.959C49.2111 36.2695 48.6522 35.7106 47.9627 35.7106C47.2733 35.7106 46.7144 36.2695 46.7144 36.959C46.7144 37.6484 47.2733 38.2073 47.9627 38.2073Z" fill="#231815"/>
<path d="M57.6153 41.701C57.9671 39.5334 56.4951 37.4911 54.3275 37.1393C52.16 36.7876 50.1176 38.2595 49.7659 40.4271C49.4141 42.5947 50.8861 44.637 53.0536 44.9888C55.2212 45.3405 57.2635 43.8686 57.6153 41.701Z" fill="#DAE6F5"/>
<path d="M30.7289 40.9536C32.9248 40.9536 34.7049 39.1735 34.7049 36.9776C34.7049 34.7818 32.9248 33.0016 30.7289 33.0016C28.533 33.0016 26.7529 34.7818 26.7529 36.9776C26.7529 39.1735 28.533 40.9536 30.7289 40.9536Z" fill="#DAE6F5"/>
<path d="M44.8608 38.4694C44.8608 39.6366 44.0618 40.6415 42.6949 40.6415C40.891 40.6415 39.7363 39.4806 40.2419 37.7329L42.414 37.4832L44.8608 38.4694Z" fill="#E25D83"/>
<mask id="mask5_556_109" style="mask-type:luminance" maskUnits="userSpaceOnUse" x="40" y="37" width="5" height="4">
<path d="M44.8608 38.4694C44.8608 39.6366 44.0618 40.6415 42.6949 40.6415C40.891 40.6415 39.7363 39.4806 40.2419 37.7329L42.414 37.4832L44.8608 38.4694Z" fill="white"/>
</mask>
<g mask="url(#mask5_556_109)">
<path d="M40.8658 39.1623C40.4663 39.2122 40.0856 39.3433 39.917 39.6741C39.7485 40.0049 39.9108 40.4293 40.1917 40.6665C40.4726 40.9037 40.8533 40.9973 41.2153 41.0535C41.827 41.1471 42.5511 41.2158 43.1565 41.066C43.5934 40.9537 44.3986 40.4855 43.9929 39.9425C43.8681 39.7802 43.6808 39.6803 43.4936 39.5992C42.9006 39.337 42.2639 39.1685 41.6148 39.1435C41.4026 39.1311 41.1279 39.1311 40.8658 39.1623Z" fill="#EF93B1"/>
</g>
<path d="M40.3291 37.8016L40.7036 38.7066C40.7411 38.8003 40.8721 38.8127 40.9283 38.7254C41.0781 38.4882 41.178 38.251 41.2778 37.8016" fill="white"/>
<path d="M44.6045 38.4508L43.9491 39.1873C43.8805 39.2622 43.7556 39.231 43.7307 39.1311C43.6683 38.8565 43.6495 38.6006 43.6995 38.1387" fill="white"/>
<path d="M39.9795 37.477C40.7847 37.9951 42.0954 37.2211 42.6073 37.3397C43.194 37.4146 44.174 38.5381 45.0728 38.4258" stroke="#5B7DBD" stroke-width="0.9068" stroke-miterlimit="10" stroke-linecap="round" stroke-linejoin="round"/>
</svg>
