<svg width="23" height="22" viewBox="0 0 23 22" fill="none" xmlns="http://www.w3.org/2000/svg">
<path fill-rule="evenodd" clip-rule="evenodd" d="M11.7963 13.0712C10.6841 12.716 9.50363 12.6283 8.35106 12.8152C7.19849 13.0022 6.10632 13.4585 5.16337 14.1472C4.22042 14.8358 3.45332 15.7373 2.92446 16.7783C2.39559 17.8193 2.11989 18.9704 2.11979 20.1381C2.11973 20.7234 1.64516 21.1979 1.0598 21.1978C0.474432 21.1978 -5.39465e-05 20.7232 4.60039e-09 20.1379C0.000138483 18.6366 0.354606 17.1566 1.03458 15.8182C1.71455 14.4797 2.70082 13.3207 3.91318 12.4353C5.12554 11.5499 6.52976 10.9632 8.01164 10.7228C9.49352 10.4824 11.0112 10.5952 12.4413 11.0519C12.9989 11.23 13.3066 11.8264 13.1285 12.384C12.9504 12.9417 12.354 13.2493 11.7963 13.0712Z" fill="white"/>
<path fill-rule="evenodd" clip-rule="evenodd" d="M9.53904 2.11979C7.19759 2.11979 5.29947 4.01791 5.29947 6.35936C5.29947 8.70081 7.19759 10.5989 9.53904 10.5989C11.8805 10.5989 13.7786 8.70081 13.7786 6.35936C13.7786 4.01791 11.8805 2.11979 9.53904 2.11979ZM3.17969 6.35936C3.17969 2.84718 6.02687 0 9.53904 0C13.0512 0 15.8984 2.84718 15.8984 6.35936C15.8984 9.87153 13.0512 12.7187 9.53904 12.7187C6.02687 12.7187 3.17969 9.87153 3.17969 6.35936Z" fill="white"/>
<path fill-rule="evenodd" clip-rule="evenodd" d="M18.0181 14.8385C16.8474 14.8385 15.8984 15.7876 15.8984 16.9583C15.8984 18.129 16.8474 19.0781 18.0181 19.0781C19.1889 19.0781 20.1379 18.129 20.1379 16.9583C20.1379 15.7876 19.1889 14.8385 18.0181 14.8385ZM13.7786 16.9583C13.7786 14.6168 15.6767 12.7187 18.0181 12.7187C20.3596 12.7187 22.2577 14.6168 22.2577 16.9583C22.2577 19.2997 20.3596 21.1979 18.0181 21.1979C15.6767 21.1979 13.7786 19.2997 13.7786 16.9583Z" fill="white"/>
<path fill-rule="evenodd" clip-rule="evenodd" d="M20.0386 12.0681C20.5735 12.3059 20.8144 12.9322 20.5767 13.4672L20.1527 14.4211C19.915 14.956 19.2886 15.1969 18.7537 14.9591C18.2188 14.7214 17.9779 14.095 18.2156 13.5601L18.6396 12.6062C18.8773 12.0713 19.5037 11.8304 20.0386 12.0681Z" fill="white"/>
<path fill-rule="evenodd" clip-rule="evenodd" d="M17.2827 18.9574C17.8177 19.1952 18.0586 19.8215 17.8208 20.3564L17.3969 21.3104C17.1591 21.8453 16.5328 22.0862 15.9979 21.8484C15.4629 21.6107 15.222 20.9843 15.4598 20.4494L15.8837 19.4955C16.1215 18.9606 16.7478 18.7197 17.2827 18.9574Z" fill="white"/>
<path fill-rule="evenodd" clip-rule="evenodd" d="M20.0174 17.6937C20.2551 17.1588 20.8815 16.9179 21.4164 17.1556L22.3703 17.5796C22.9052 17.8173 23.1461 18.4437 22.9084 18.9786C22.6706 19.5135 22.0443 19.7544 21.5094 19.5167L20.5555 19.0927C20.0206 18.855 19.7797 18.2286 20.0174 17.6937Z" fill="white"/>
<path fill-rule="evenodd" clip-rule="evenodd" d="M13.128 14.938C13.3657 14.4031 13.9921 14.1622 14.527 14.3999L15.4809 14.8239C16.0158 15.0616 16.2567 15.688 16.019 16.2229C15.7812 16.7578 15.1549 16.9987 14.62 16.7609L13.6661 16.337C13.1312 16.0993 12.8903 15.4729 13.128 14.938Z" fill="white"/>
<path fill-rule="evenodd" clip-rule="evenodd" d="M22.9084 14.938C23.1461 15.4729 22.9052 16.0993 22.3703 16.337L21.4164 16.7609C20.8815 16.9987 20.2551 16.7578 20.0174 16.2229C19.7797 15.688 20.0206 15.0616 20.5555 14.8239L21.5094 14.3999C22.0443 14.1622 22.6706 14.4031 22.9084 14.938Z" fill="white"/>
<path fill-rule="evenodd" clip-rule="evenodd" d="M16.019 17.6937C16.2567 18.2286 16.0158 18.855 15.4809 19.0927L14.527 19.5167C13.9921 19.7544 13.3657 19.5135 13.128 18.9786C12.8903 18.4437 13.1312 17.8173 13.6661 17.5796L14.62 17.1556C15.1549 16.9179 15.7812 17.1588 16.019 17.6937Z" fill="white"/>
<path fill-rule="evenodd" clip-rule="evenodd" d="M18.7537 18.9574C19.2886 18.7197 19.915 18.9606 20.1527 19.4955L20.5767 20.4494C20.8144 20.9843 20.5735 21.6107 20.0386 21.8484C19.5037 22.0862 18.8773 21.8453 18.6396 21.3104L18.2156 20.3564C17.9779 19.8215 18.2188 19.1952 18.7537 18.9574Z" fill="white"/>
<path fill-rule="evenodd" clip-rule="evenodd" d="M15.9979 12.0681C16.5328 11.8304 17.1591 12.0713 17.3969 12.6062L17.8208 13.5601C18.0586 14.095 17.8177 14.7214 17.2827 14.9591C16.7478 15.1969 16.1215 14.956 15.8837 14.4211L15.4598 13.4672C15.222 12.9322 15.4629 12.3059 15.9979 12.0681Z" fill="white"/>
</svg>
