<svg width="23" height="18" viewBox="0 0 23 18" fill="none" xmlns="http://www.w3.org/2000/svg">
<path fill-rule="evenodd" clip-rule="evenodd" d="M1 0C1.55228 0 2 0.50368 2 1.125V16.875C2 17.4963 1.55228 18 1 18C0.447715 18 0 17.4963 0 16.875V1.125C0 0.50368 0.447715 0 1 0Z" fill="white"/>
<path fill-rule="evenodd" clip-rule="evenodd" d="M13.6705 1.33474C14.1098 1.78105 14.1098 2.50467 13.6705 2.95098L7.71599 9L13.6705 15.049C14.1098 15.4953 14.1098 16.219 13.6705 16.6653C13.2312 17.1116 12.5188 17.1116 12.0795 16.6653L5.3295 9.80812C4.89017 9.36181 4.89017 8.63819 5.3295 8.19188L12.0795 1.33474C12.5188 0.888422 13.2312 0.888422 13.6705 1.33474Z" fill="white"/>
<path fill-rule="evenodd" clip-rule="evenodd" d="M5 9C5 8.44772 5.50368 8 6.125 8H21.875C22.4963 8 23 8.44772 23 9C23 9.55228 22.4963 10 21.875 10H6.125C5.50368 10 5 9.55228 5 9Z" fill="white"/>
</svg>
